<svg xmlns="http://www.w3.org/2000/svg" xmlns:xlink="http://www.w3.org/1999/xlink" width="128" zoomAndPan="magnify" viewBox="0 0 96 119.999999" height="160" preserveAspectRatio="xMidYMid meet" version="1.0"><defs><g/><clipPath id="b19f7d8925"><path d="M 9.601562 39.253906 L 86 39.253906 L 86 61.753906 L 9.601562 61.753906 Z M 9.601562 39.253906 " clip-rule="nonzero"/></clipPath></defs><rect x="-9.6" width="115.2" fill="#ffffff" y="-12" height="143.999998" fill-opacity="1"/><rect x="-9.6" width="115.2" fill="#ffffff" y="-12" height="143.999998" fill-opacity="1"/><rect x="-9.6" width="115.2" fill="#fdfdfd" y="-12" height="143.999998" fill-opacity="1"/><g clip-path="url(#b19f7d8925)"><path fill="#222222" d="M 10.21875 56.796875 L 10.21875 48.152344 L 20.816406 48.152344 L 20.816406 47.648438 L 10.21875 47.648438 L 10.21875 39.761719 L 21.484375 39.761719 L 21.484375 39.253906 L 9.722656 39.253906 L 9.722656 57.304688 L 21.582031 57.304688 L 21.582031 56.796875 Z M 31.136719 44.308594 L 26.746094 50.199219 L 22.453125 44.308594 L 21.808594 44.308594 L 26.449219 50.578125 L 21.359375 57.304688 L 21.957031 57.304688 L 26.746094 50.957031 L 31.558594 57.304688 L 32.179688 57.304688 L 27.066406 50.578125 L 31.734375 44.308594 Z M 33.667969 61.753906 L 33.667969 53.664062 L 33.71875 53.664062 C 34.015625 54.84375 34.605469 55.789062 35.480469 56.507812 C 36.355469 57.222656 37.472656 57.582031 38.832031 57.582031 C 39.707031 57.582031 40.484375 57.402344 41.164062 57.039062 C 41.839844 56.675781 42.40625 56.183594 42.863281 55.558594 C 43.316406 54.9375 43.664062 54.210938 43.90625 53.386719 C 44.144531 52.558594 44.265625 51.691406 44.265625 50.78125 C 44.265625 49.804688 44.140625 48.902344 43.894531 48.078125 C 43.644531 47.25 43.285156 46.535156 42.8125 45.929688 C 42.339844 45.320312 41.769531 44.851562 41.101562 44.511719 C 40.429688 44.175781 39.671875 44.007812 38.832031 44.007812 C 38.183594 44.007812 37.585938 44.105469 37.03125 44.296875 C 36.476562 44.492188 35.984375 44.765625 35.554688 45.121094 C 35.125 45.472656 34.753906 45.890625 34.4375 46.371094 C 34.125 46.851562 33.882812 47.378906 33.71875 47.949219 L 33.667969 47.949219 L 33.667969 44.3125 L 33.171875 44.3125 L 33.171875 61.753906 Z M 38.832031 57.101562 C 37.277344 57.101562 36.027344 56.558594 35.082031 55.472656 C 34.140625 54.382812 33.667969 52.820312 33.667969 50.78125 C 33.667969 49.9375 33.785156 49.140625 34.015625 48.378906 C 34.246094 47.621094 34.582031 46.957031 35.019531 46.382812 C 35.457031 45.808594 36 45.355469 36.644531 45.019531 C 37.292969 44.679688 38.019531 44.511719 38.832031 44.511719 C 39.65625 44.511719 40.382812 44.679688 41 45.019531 C 41.621094 45.355469 42.132812 45.816406 42.539062 46.394531 C 42.945312 46.976562 43.25 47.644531 43.457031 48.394531 C 43.664062 49.144531 43.769531 49.9375 43.769531 50.78125 C 43.769531 51.539062 43.671875 52.292969 43.484375 53.042969 C 43.292969 53.792969 43 54.46875 42.601562 55.066406 C 42.207031 55.664062 41.695312 56.152344 41.074219 56.53125 C 40.457031 56.914062 39.707031 57.101562 38.832031 57.101562 Z M 46.992188 57.304688 L 46.992188 49.949219 C 46.992188 49.238281 47.09375 48.550781 47.292969 47.875 C 47.488281 47.199219 47.796875 46.605469 48.210938 46.09375 C 48.625 45.578125 49.148438 45.175781 49.785156 44.878906 C 50.421875 44.585938 51.179688 44.460938 52.054688 44.511719 L 52.054688 44.007812 C 51.296875 43.992188 50.628906 44.074219 50.058594 44.261719 C 49.488281 44.445312 48.996094 44.699219 48.582031 45.019531 C 48.167969 45.339844 47.839844 45.714844 47.589844 46.144531 C 47.339844 46.574219 47.160156 47.03125 47.042969 47.519531 L 46.992188 47.519531 L 46.992188 44.3125 L 46.496094 44.3125 L 46.496094 57.304688 Z M 52.675781 50.910156 L 63.347656 50.910156 C 63.378906 50.015625 63.292969 49.15625 63.085938 48.328125 C 62.878906 47.503906 62.550781 46.769531 62.09375 46.128906 C 61.640625 45.492188 61.050781 44.976562 60.332031 44.589844 C 59.613281 44.199219 58.757812 44.007812 57.761719 44.007812 C 57.054688 44.007812 56.359375 44.160156 55.679688 44.460938 C 55 44.765625 54.40625 45.207031 53.894531 45.789062 C 53.378906 46.371094 52.964844 47.082031 52.652344 47.925781 C 52.335938 48.769531 52.179688 49.730469 52.179688 50.808594 C 52.179688 51.769531 52.289062 52.664062 52.503906 53.5 C 52.71875 54.332031 53.050781 55.058594 53.496094 55.671875 C 53.941406 56.289062 54.515625 56.765625 55.21875 57.101562 C 55.921875 57.4375 56.773438 57.597656 57.761719 57.582031 C 59.21875 57.582031 60.445312 57.164062 61.4375 56.332031 C 62.429688 55.496094 63.015625 54.320312 63.199219 52.804688 L 62.703125 52.804688 C 62.484375 54.238281 61.9375 55.3125 61.050781 56.027344 C 60.167969 56.742188 59.054688 57.101562 57.714844 57.101562 C 56.804688 57.101562 56.035156 56.941406 55.40625 56.621094 C 54.777344 56.300781 54.265625 55.863281 53.867188 55.308594 C 53.472656 54.75 53.179688 54.097656 52.988281 53.347656 C 52.796875 52.597656 52.695312 51.785156 52.675781 50.910156 Z M 62.851562 50.402344 L 52.675781 50.402344 C 52.726562 49.492188 52.890625 48.675781 53.171875 47.949219 C 53.453125 47.226562 53.824219 46.605469 54.277344 46.09375 C 54.734375 45.578125 55.261719 45.1875 55.867188 44.917969 C 56.46875 44.648438 57.117188 44.511719 57.8125 44.511719 C 58.640625 44.511719 59.367188 44.667969 59.996094 44.980469 C 60.625 45.292969 61.148438 45.71875 61.574219 46.257812 C 61.996094 46.796875 62.3125 47.425781 62.527344 48.140625 C 62.742188 48.855469 62.851562 49.609375 62.851562 50.402344 Z M 73.644531 48.152344 L 74.140625 48.152344 C 74.140625 46.703125 73.726562 45.652344 72.902344 44.992188 C 72.074219 44.335938 70.949219 44.007812 69.527344 44.007812 C 68.730469 44.007812 68.0625 44.109375 67.515625 44.3125 C 66.96875 44.511719 66.523438 44.773438 66.175781 45.09375 C 65.828125 45.414062 65.578125 45.769531 65.429688 46.15625 C 65.285156 46.542969 65.207031 46.914062 65.207031 47.269531 C 65.207031 47.976562 65.332031 48.539062 65.578125 48.960938 C 65.828125 49.382812 66.21875 49.710938 66.746094 49.949219 C 67.109375 50.117188 67.523438 50.269531 67.988281 50.402344 C 68.453125 50.539062 68.988281 50.679688 69.601562 50.832031 C 70.144531 50.96875 70.683594 51.101562 71.214844 51.238281 C 71.742188 51.371094 72.210938 51.554688 72.617188 51.78125 C 73.019531 52.007812 73.351562 52.296875 73.605469 52.652344 C 73.863281 53.007812 73.992188 53.46875 73.992188 54.042969 C 73.992188 54.597656 73.863281 55.070312 73.605469 55.457031 C 73.351562 55.84375 73.023438 56.164062 72.628906 56.40625 C 72.230469 56.652344 71.789062 56.828125 71.300781 56.9375 C 70.8125 57.046875 70.335938 57.101562 69.875 57.101562 C 68.367188 57.101562 67.214844 56.761719 66.414062 56.078125 C 65.609375 55.394531 65.207031 54.320312 65.207031 52.855469 L 64.710938 52.855469 C 64.710938 54.488281 65.144531 55.6875 66.015625 56.445312 C 66.882812 57.203125 68.167969 57.582031 69.875 57.582031 C 70.417969 57.582031 70.96875 57.519531 71.523438 57.390625 C 72.078125 57.265625 72.574219 57.058594 73.011719 56.773438 C 73.449219 56.484375 73.808594 56.117188 74.078125 55.660156 C 74.351562 55.207031 74.488281 54.648438 74.488281 53.992188 C 74.488281 53.367188 74.367188 52.863281 74.128906 52.476562 C 73.890625 52.089844 73.574219 51.769531 73.1875 51.515625 C 72.796875 51.261719 72.359375 51.0625 71.871094 50.921875 C 71.382812 50.777344 70.890625 50.640625 70.394531 50.503906 C 69.699219 50.320312 69.089844 50.160156 68.570312 50.023438 C 68.050781 49.890625 67.566406 49.730469 67.117188 49.542969 C 66.6875 49.359375 66.34375 49.09375 66.089844 48.746094 C 65.832031 48.402344 65.703125 47.910156 65.703125 47.269531 C 65.703125 47.148438 65.738281 46.941406 65.804688 46.636719 C 65.871094 46.332031 66.027344 46.023438 66.273438 45.714844 C 66.523438 45.402344 66.902344 45.125 67.417969 44.878906 C 67.929688 44.636719 68.632812 44.511719 69.527344 44.511719 C 70.140625 44.511719 70.695312 44.582031 71.199219 44.714844 C 71.707031 44.851562 72.140625 45.066406 72.503906 45.359375 C 72.867188 45.65625 73.148438 46.03125 73.347656 46.484375 C 73.546875 46.941406 73.644531 47.496094 73.644531 48.152344 Z M 85.136719 48.152344 L 85.632812 48.152344 C 85.632812 46.703125 85.21875 45.652344 84.390625 44.992188 C 83.5625 44.335938 82.4375 44.007812 81.015625 44.007812 C 80.222656 44.007812 79.550781 44.109375 79.003906 44.3125 C 78.460938 44.511719 78.011719 44.773438 77.664062 45.09375 C 77.316406 45.414062 77.070312 45.769531 76.921875 46.15625 C 76.773438 46.542969 76.699219 46.914062 76.699219 47.269531 C 76.699219 47.976562 76.820312 48.539062 77.070312 48.960938 C 77.316406 49.382812 77.707031 49.710938 78.238281 49.949219 C 78.601562 50.117188 79.015625 50.269531 79.476562 50.402344 C 79.941406 50.539062 80.476562 50.679688 81.089844 50.832031 C 81.636719 50.96875 82.171875 51.101562 82.703125 51.238281 C 83.230469 51.371094 83.699219 51.554688 84.105469 51.78125 C 84.507812 52.007812 84.839844 52.296875 85.097656 52.652344 C 85.355469 53.007812 85.480469 53.46875 85.480469 54.042969 C 85.480469 54.597656 85.355469 55.070312 85.097656 55.457031 C 84.839844 55.84375 84.515625 56.164062 84.117188 56.40625 C 83.71875 56.652344 83.277344 56.828125 82.789062 56.9375 C 82.300781 57.046875 81.824219 57.101562 81.363281 57.101562 C 79.855469 57.101562 78.703125 56.761719 77.902344 56.078125 C 77.097656 55.394531 76.699219 54.320312 76.699219 52.855469 L 76.199219 52.855469 C 76.199219 54.488281 76.636719 55.6875 77.503906 56.445312 C 78.371094 57.203125 79.660156 57.582031 81.363281 57.582031 C 81.910156 57.582031 82.457031 57.519531 83.011719 57.390625 C 83.566406 57.265625 84.0625 57.058594 84.503906 56.773438 C 84.941406 56.484375 85.296875 56.117188 85.570312 55.660156 C 85.839844 55.207031 85.976562 54.648438 85.976562 53.992188 C 85.976562 53.367188 85.859375 52.863281 85.617188 52.476562 C 85.378906 52.089844 85.0625 51.769531 84.675781 51.515625 C 84.285156 51.261719 83.847656 51.0625 83.359375 50.921875 C 82.871094 50.777344 82.378906 50.640625 81.882812 50.503906 C 81.1875 50.320312 80.582031 50.160156 80.058594 50.023438 C 79.539062 49.890625 79.054688 49.730469 78.609375 49.542969 C 78.179688 49.359375 77.835938 49.09375 77.578125 48.746094 C 77.320312 48.402344 77.195312 47.910156 77.195312 47.269531 C 77.195312 47.148438 77.226562 46.941406 77.292969 46.636719 C 77.359375 46.332031 77.515625 46.023438 77.765625 45.714844 C 78.011719 45.402344 78.394531 45.125 78.90625 44.878906 C 79.417969 44.636719 80.121094 44.511719 81.015625 44.511719 C 81.628906 44.511719 82.1875 44.582031 82.691406 44.714844 C 83.195312 44.851562 83.628906 45.066406 83.992188 45.359375 C 84.355469 45.65625 84.636719 46.03125 84.835938 46.484375 C 85.035156 46.941406 85.136719 47.496094 85.136719 48.152344 Z M 85.136719 48.152344 " fill-opacity="1" fill-rule="nonzero"/></g><g fill="#222222" fill-opacity="1"><g transform="translate(9.75, 106.550022)"><g><path d="M 1.171875 -9.796875 L 8.5625 -9.796875 L 8.5625 -7.875 L 3.3125 -7.875 L 3.3125 -5.890625 L 7.9375 -5.890625 L 7.9375 -3.96875 L 3.3125 -3.96875 L 3.3125 -1.921875 L 8.640625 -1.921875 L 8.640625 0 L 1.171875 0 Z M 1.171875 -9.796875 "/></g></g></g><g fill="#222222" fill-opacity="1"><g transform="translate(19.124771, 106.550022)"><g><path d="M 4.109375 -5.3125 L 5.515625 -7.5 L 7.734375 -7.5 L 5.203125 -3.84375 L 7.859375 0 L 5.578125 0 L 4.0625 -2.34375 L 2.546875 0 L 0.328125 0 L 2.953125 -3.8125 L 0.421875 -7.5 L 2.703125 -7.5 Z M 4.109375 -5.3125 "/></g></g></g><g fill="#222222" fill-opacity="1"><g transform="translate(27.296207, 106.550022)"><g><path d="M 0.953125 -7.5 L 3.078125 -7.5 L 3.078125 -6.421875 C 3.335938 -6.773438 3.648438 -7.066406 4.015625 -7.296875 C 4.390625 -7.523438 4.859375 -7.640625 5.421875 -7.640625 C 5.859375 -7.640625 6.28125 -7.554688 6.6875 -7.390625 C 7.101562 -7.222656 7.46875 -6.972656 7.78125 -6.640625 C 8.101562 -6.304688 8.359375 -5.898438 8.546875 -5.421875 C 8.734375 -4.941406 8.828125 -4.390625 8.828125 -3.765625 L 8.828125 -3.734375 C 8.828125 -3.109375 8.734375 -2.554688 8.546875 -2.078125 C 8.359375 -1.597656 8.109375 -1.191406 7.796875 -0.859375 C 7.484375 -0.523438 7.117188 -0.273438 6.703125 -0.109375 C 6.296875 0.0546875 5.867188 0.140625 5.421875 0.140625 C 4.847656 0.140625 4.375 0.03125 4 -0.1875 C 3.632812 -0.414062 3.328125 -0.679688 3.078125 -0.984375 L 3.078125 2.234375 L 0.953125 2.234375 Z M 4.875 -1.671875 C 5.125 -1.671875 5.359375 -1.71875 5.578125 -1.8125 C 5.796875 -1.90625 5.988281 -2.039062 6.15625 -2.21875 C 6.320312 -2.40625 6.453125 -2.625 6.546875 -2.875 C 6.648438 -3.132812 6.703125 -3.421875 6.703125 -3.734375 L 6.703125 -3.765625 C 6.703125 -4.078125 6.648438 -4.359375 6.546875 -4.609375 C 6.453125 -4.867188 6.320312 -5.085938 6.15625 -5.265625 C 5.988281 -5.453125 5.796875 -5.59375 5.578125 -5.6875 C 5.359375 -5.789062 5.125 -5.84375 4.875 -5.84375 C 4.625 -5.84375 4.390625 -5.789062 4.171875 -5.6875 C 3.953125 -5.59375 3.757812 -5.453125 3.59375 -5.265625 C 3.425781 -5.085938 3.289062 -4.867188 3.1875 -4.609375 C 3.09375 -4.359375 3.046875 -4.078125 3.046875 -3.765625 L 3.046875 -3.734375 C 3.046875 -3.429688 3.09375 -3.148438 3.1875 -2.890625 C 3.289062 -2.628906 3.425781 -2.40625 3.59375 -2.21875 C 3.757812 -2.039062 3.953125 -1.90625 4.171875 -1.8125 C 4.390625 -1.71875 4.625 -1.671875 4.875 -1.671875 Z M 4.875 -1.671875 "/></g></g></g><g fill="#222222" fill-opacity="1"><g transform="translate(36.740935, 106.550022)"><g><path d="M 0.953125 -7.5 L 3.078125 -7.5 L 3.078125 -5.984375 C 3.296875 -6.503906 3.585938 -6.914062 3.953125 -7.21875 C 4.328125 -7.53125 4.832031 -7.671875 5.46875 -7.640625 L 5.46875 -5.421875 L 5.359375 -5.421875 C 4.648438 -5.421875 4.09375 -5.203125 3.6875 -4.765625 C 3.28125 -4.335938 3.078125 -3.671875 3.078125 -2.765625 L 3.078125 0 L 0.953125 0 Z M 0.953125 -7.5 "/></g></g></g><g fill="#222222" fill-opacity="1"><g transform="translate(42.589667, 106.550022)"><g><path d="M 4.515625 0.171875 C 3.953125 0.171875 3.425781 0.078125 2.9375 -0.109375 C 2.457031 -0.296875 2.039062 -0.5625 1.6875 -0.90625 C 1.34375 -1.25 1.070312 -1.65625 0.875 -2.125 C 0.6875 -2.601562 0.59375 -3.128906 0.59375 -3.703125 L 0.59375 -3.734375 C 0.59375 -4.265625 0.679688 -4.769531 0.859375 -5.25 C 1.046875 -5.726562 1.300781 -6.144531 1.625 -6.5 C 1.945312 -6.851562 2.332031 -7.128906 2.78125 -7.328125 C 3.238281 -7.535156 3.742188 -7.640625 4.296875 -7.640625 C 4.921875 -7.640625 5.460938 -7.523438 5.921875 -7.296875 C 6.378906 -7.078125 6.757812 -6.78125 7.0625 -6.40625 C 7.363281 -6.03125 7.585938 -5.597656 7.734375 -5.109375 C 7.878906 -4.617188 7.953125 -4.101562 7.953125 -3.5625 C 7.953125 -3.476562 7.945312 -3.390625 7.9375 -3.296875 C 7.9375 -3.203125 7.929688 -3.109375 7.921875 -3.015625 L 2.703125 -3.015625 C 2.804688 -2.523438 3.019531 -2.15625 3.34375 -1.90625 C 3.664062 -1.664062 4.0625 -1.546875 4.53125 -1.546875 C 4.882812 -1.546875 5.203125 -1.601562 5.484375 -1.71875 C 5.765625 -1.84375 6.054688 -2.039062 6.359375 -2.3125 L 7.578125 -1.234375 C 7.222656 -0.796875 6.789062 -0.453125 6.28125 -0.203125 C 5.78125 0.046875 5.191406 0.171875 4.515625 0.171875 Z M 5.875 -4.34375 C 5.8125 -4.8125 5.644531 -5.191406 5.375 -5.484375 C 5.101562 -5.785156 4.742188 -5.9375 4.296875 -5.9375 C 3.847656 -5.9375 3.484375 -5.789062 3.203125 -5.5 C 2.929688 -5.207031 2.753906 -4.820312 2.671875 -4.34375 Z M 5.875 -4.34375 "/></g></g></g><g fill="#222222" fill-opacity="1"><g transform="translate(51.166876, 106.550022)"><g><path d="M 3.578125 0.140625 C 3.046875 0.140625 2.503906 0.0507812 1.953125 -0.125 C 1.398438 -0.3125 0.867188 -0.601562 0.359375 -1 L 1.28125 -2.390625 C 1.6875 -2.097656 2.09375 -1.875 2.5 -1.71875 C 2.90625 -1.570312 3.285156 -1.5 3.640625 -1.5 C 3.953125 -1.5 4.175781 -1.550781 4.3125 -1.65625 C 4.457031 -1.757812 4.53125 -1.894531 4.53125 -2.0625 L 4.53125 -2.09375 C 4.53125 -2.195312 4.488281 -2.289062 4.40625 -2.375 C 4.320312 -2.457031 4.207031 -2.53125 4.0625 -2.59375 C 3.914062 -2.65625 3.75 -2.710938 3.5625 -2.765625 C 3.382812 -2.828125 3.191406 -2.890625 2.984375 -2.953125 C 2.722656 -3.023438 2.457031 -3.113281 2.1875 -3.21875 C 1.925781 -3.332031 1.6875 -3.472656 1.46875 -3.640625 C 1.25 -3.816406 1.070312 -4.03125 0.9375 -4.28125 C 0.800781 -4.53125 0.734375 -4.835938 0.734375 -5.203125 L 0.734375 -5.234375 C 0.734375 -5.617188 0.804688 -5.957031 0.953125 -6.25 C 1.097656 -6.539062 1.296875 -6.789062 1.546875 -7 C 1.796875 -7.207031 2.082031 -7.359375 2.40625 -7.453125 C 2.738281 -7.554688 3.097656 -7.609375 3.484375 -7.609375 C 3.960938 -7.609375 4.445312 -7.53125 4.9375 -7.375 C 5.425781 -7.226562 5.875 -7.019531 6.28125 -6.75 L 5.46875 -5.28125 C 5.09375 -5.488281 4.726562 -5.65625 4.375 -5.78125 C 4.019531 -5.914062 3.707031 -5.984375 3.4375 -5.984375 C 3.175781 -5.984375 2.976562 -5.929688 2.84375 -5.828125 C 2.71875 -5.734375 2.65625 -5.609375 2.65625 -5.453125 L 2.65625 -5.4375 C 2.65625 -5.332031 2.695312 -5.238281 2.78125 -5.15625 C 2.863281 -5.082031 2.972656 -5.007812 3.109375 -4.9375 C 3.253906 -4.863281 3.414062 -4.796875 3.59375 -4.734375 C 3.78125 -4.671875 3.976562 -4.601562 4.1875 -4.53125 C 4.445312 -4.445312 4.710938 -4.347656 4.984375 -4.234375 C 5.253906 -4.117188 5.492188 -3.976562 5.703125 -3.8125 C 5.921875 -3.644531 6.097656 -3.4375 6.234375 -3.1875 C 6.378906 -2.945312 6.453125 -2.65625 6.453125 -2.3125 L 6.453125 -2.28125 C 6.453125 -1.863281 6.378906 -1.5 6.234375 -1.1875 C 6.085938 -0.882812 5.882812 -0.632812 5.625 -0.4375 C 5.363281 -0.25 5.054688 -0.101562 4.703125 0 C 4.359375 0.09375 3.984375 0.140625 3.578125 0.140625 Z M 3.578125 0.140625 "/></g></g></g><g fill="#222222" fill-opacity="1"><g transform="translate(58.19095, 106.550022)"><g><path d="M 3.578125 0.140625 C 3.046875 0.140625 2.503906 0.0507812 1.953125 -0.125 C 1.398438 -0.3125 0.867188 -0.601562 0.359375 -1 L 1.28125 -2.390625 C 1.6875 -2.097656 2.09375 -1.875 2.5 -1.71875 C 2.90625 -1.570312 3.285156 -1.5 3.640625 -1.5 C 3.953125 -1.5 4.175781 -1.550781 4.3125 -1.65625 C 4.457031 -1.757812 4.53125 -1.894531 4.53125 -2.0625 L 4.53125 -2.09375 C 4.53125 -2.195312 4.488281 -2.289062 4.40625 -2.375 C 4.320312 -2.457031 4.207031 -2.53125 4.0625 -2.59375 C 3.914062 -2.65625 3.75 -2.710938 3.5625 -2.765625 C 3.382812 -2.828125 3.191406 -2.890625 2.984375 -2.953125 C 2.722656 -3.023438 2.457031 -3.113281 2.1875 -3.21875 C 1.925781 -3.332031 1.6875 -3.472656 1.46875 -3.640625 C 1.25 -3.816406 1.070312 -4.03125 0.9375 -4.28125 C 0.800781 -4.53125 0.734375 -4.835938 0.734375 -5.203125 L 0.734375 -5.234375 C 0.734375 -5.617188 0.804688 -5.957031 0.953125 -6.25 C 1.097656 -6.539062 1.296875 -6.789062 1.546875 -7 C 1.796875 -7.207031 2.082031 -7.359375 2.40625 -7.453125 C 2.738281 -7.554688 3.097656 -7.609375 3.484375 -7.609375 C 3.960938 -7.609375 4.445312 -7.53125 4.9375 -7.375 C 5.425781 -7.226562 5.875 -7.019531 6.28125 -6.75 L 5.46875 -5.28125 C 5.09375 -5.488281 4.726562 -5.65625 4.375 -5.78125 C 4.019531 -5.914062 3.707031 -5.984375 3.4375 -5.984375 C 3.175781 -5.984375 2.976562 -5.929688 2.84375 -5.828125 C 2.71875 -5.734375 2.65625 -5.609375 2.65625 -5.453125 L 2.65625 -5.4375 C 2.65625 -5.332031 2.695312 -5.238281 2.78125 -5.15625 C 2.863281 -5.082031 2.972656 -5.007812 3.109375 -4.9375 C 3.253906 -4.863281 3.414062 -4.796875 3.59375 -4.734375 C 3.78125 -4.671875 3.976562 -4.601562 4.1875 -4.53125 C 4.445312 -4.445312 4.710938 -4.347656 4.984375 -4.234375 C 5.253906 -4.117188 5.492188 -3.976562 5.703125 -3.8125 C 5.921875 -3.644531 6.097656 -3.4375 6.234375 -3.1875 C 6.378906 -2.945312 6.453125 -2.65625 6.453125 -2.3125 L 6.453125 -2.28125 C 6.453125 -1.863281 6.378906 -1.5 6.234375 -1.1875 C 6.085938 -0.882812 5.882812 -0.632812 5.625 -0.4375 C 5.363281 -0.25 5.054688 -0.101562 4.703125 0 C 4.359375 0.09375 3.984375 0.140625 3.578125 0.140625 Z M 3.578125 0.140625 "/></g></g></g><g fill="#222222" fill-opacity="1"><g transform="translate(65.215024, 106.550022)"><g/></g></g><g fill="#222222" fill-opacity="1"><g transform="translate(69.412682, 106.550022)"><g><path d="M 3.40625 0.140625 C 2.632812 0.140625 1.988281 -0.00390625 1.46875 -0.296875 C 0.957031 -0.585938 0.535156 -0.929688 0.203125 -1.328125 L 1.546875 -2.84375 C 1.828125 -2.53125 2.109375 -2.285156 2.390625 -2.109375 C 2.679688 -1.941406 3 -1.859375 3.34375 -1.859375 C 3.757812 -1.859375 4.082031 -1.984375 4.3125 -2.234375 C 4.539062 -2.492188 4.65625 -2.910156 4.65625 -3.484375 L 4.65625 -9.796875 L 6.875 -9.796875 L 6.875 -3.390625 C 6.875 -2.796875 6.789062 -2.285156 6.625 -1.859375 C 6.46875 -1.429688 6.242188 -1.066406 5.953125 -0.765625 C 5.648438 -0.472656 5.28125 -0.25 4.84375 -0.09375 C 4.414062 0.0625 3.9375 0.140625 3.40625 0.140625 Z M 3.40625 0.140625 "/></g></g></g><g fill="#222222" fill-opacity="1"><g transform="translate(77.304276, 106.550022)"><g><path d="M 4.65625 0.140625 C 3.914062 0.140625 3.1875 0.015625 2.46875 -0.234375 C 1.75 -0.492188 1.09375 -0.890625 0.5 -1.421875 L 1.78125 -2.953125 C 2.226562 -2.585938 2.6875 -2.296875 3.15625 -2.078125 C 3.625 -1.867188 4.140625 -1.765625 4.703125 -1.765625 C 5.148438 -1.765625 5.5 -1.84375 5.75 -2 C 6 -2.164062 6.125 -2.394531 6.125 -2.6875 L 6.125 -2.71875 C 6.125 -2.851562 6.097656 -2.972656 6.046875 -3.078125 C 5.992188 -3.191406 5.894531 -3.296875 5.75 -3.390625 C 5.601562 -3.484375 5.398438 -3.578125 5.140625 -3.671875 C 4.890625 -3.765625 4.554688 -3.863281 4.140625 -3.96875 C 3.648438 -4.082031 3.203125 -4.210938 2.796875 -4.359375 C 2.398438 -4.515625 2.0625 -4.703125 1.78125 -4.921875 C 1.5 -5.140625 1.28125 -5.410156 1.125 -5.734375 C 0.96875 -6.066406 0.890625 -6.472656 0.890625 -6.953125 L 0.890625 -6.984375 C 0.890625 -7.429688 0.972656 -7.832031 1.140625 -8.1875 C 1.316406 -8.550781 1.554688 -8.863281 1.859375 -9.125 C 2.160156 -9.382812 2.519531 -9.582031 2.9375 -9.71875 C 3.351562 -9.863281 3.816406 -9.9375 4.328125 -9.9375 C 5.046875 -9.9375 5.703125 -9.828125 6.296875 -9.609375 C 6.898438 -9.398438 7.457031 -9.09375 7.96875 -8.6875 L 6.84375 -7.0625 C 6.40625 -7.363281 5.972656 -7.597656 5.546875 -7.765625 C 5.128906 -7.941406 4.710938 -8.03125 4.296875 -8.03125 C 3.878906 -8.03125 3.5625 -7.945312 3.34375 -7.78125 C 3.132812 -7.625 3.03125 -7.425781 3.03125 -7.1875 L 3.03125 -7.15625 C 3.03125 -7 3.0625 -6.859375 3.125 -6.734375 C 3.1875 -6.617188 3.296875 -6.515625 3.453125 -6.421875 C 3.617188 -6.328125 3.835938 -6.238281 4.109375 -6.15625 C 4.378906 -6.070312 4.726562 -5.972656 5.15625 -5.859375 C 5.644531 -5.734375 6.082031 -5.585938 6.46875 -5.421875 C 6.863281 -5.265625 7.191406 -5.070312 7.453125 -4.84375 C 7.722656 -4.613281 7.925781 -4.34375 8.0625 -4.03125 C 8.195312 -3.71875 8.265625 -3.347656 8.265625 -2.921875 L 8.265625 -2.890625 C 8.265625 -2.410156 8.175781 -1.976562 8 -1.59375 C 7.820312 -1.21875 7.570312 -0.898438 7.25 -0.640625 C 6.9375 -0.390625 6.554688 -0.195312 6.109375 -0.0625 C 5.671875 0.0703125 5.1875 0.140625 4.65625 0.140625 Z M 4.65625 0.140625 "/></g></g></g><path stroke-linecap="butt" transform="matrix(0.75, -0.000000000000000167, 0.000000000000000167, 0.75, 0.0000006, 119.624996)" fill="none" stroke-linejoin="miter" d="M -0.0000008 0.500006 L 128.000006 0.500006 " stroke="#222222" stroke-width="1" stroke-opacity="1" stroke-miterlimit="4"/><path stroke-linecap="butt" transform="matrix(0.75, -0.000000000000000167, 0.000000000000000167, 0.75, 0.0000006, 0.000002)" fill="none" stroke-linejoin="miter" d="M -0.0000008 0.499997 L 128.000006 0.499997 " stroke="#222222" stroke-width="1" stroke-opacity="1" stroke-miterlimit="4"/><path stroke-linecap="butt" transform="matrix(-0.00235846, 0.752347, -0.749996, -0.00235109, 0.749706, 0.00147143)" fill="none" stroke-linejoin="miter" d="M -0.000394496 0.499612 L 159.500379 0.498044 " stroke="#222222" stroke-width="1" stroke-opacity="1" stroke-miterlimit="4"/><path stroke-linecap="butt" transform="matrix(-0.00235846, 0.752347, -0.749996, -0.00235109, 95.999703, 0.000298408)" fill="none" stroke-linejoin="miter" d="M 0.00116462 0.499602 L 159.501939 0.498035 " stroke="#222222" stroke-width="1" stroke-opacity="1" stroke-miterlimit="4"/></svg>