<svg xmlns="http://www.w3.org/2000/svg" xmlns:xlink="http://www.w3.org/1999/xlink" width="128" zoomAndPan="magnify" viewBox="0 0 96 119.999999" height="160" preserveAspectRatio="xMidYMid meet" version="1.0"><defs><g/><clipPath id="e502629633"><path d="M 22 62 L 48 62 L 48 88.441406 L 22 88.441406 Z M 22 62 " clip-rule="nonzero"/></clipPath><clipPath id="566273837a"><path d="M 22 11.941406 L 48 11.941406 L 48 38 L 22 38 Z M 22 11.941406 " clip-rule="nonzero"/></clipPath><clipPath id="dbd37596d6"><path d="M 47 11.941406 L 74 11.941406 L 74 38 L 47 38 Z M 47 11.941406 " clip-rule="nonzero"/></clipPath></defs><rect x="-9.6" width="115.2" fill="#ffffff" y="-12" height="143.999998" fill-opacity="1"/><rect x="-9.6" width="115.2" fill="#ffffff" y="-12" height="143.999998" fill-opacity="1"/><rect x="-9.6" width="115.2" fill="#0a4b66" y="-12" height="143.999998" fill-opacity="1"/><g clip-path="url(#e502629633)"><path fill="#0acf83" d="M 35.101562 88.441406 C 42.136719 88.441406 47.851562 82.730469 47.851562 75.691406 L 47.851562 62.941406 L 35.101562 62.941406 C 28.0625 62.941406 22.351562 68.65625 22.351562 75.691406 C 22.351562 82.730469 28.0625 88.441406 35.101562 88.441406 Z M 35.101562 88.441406 " fill-opacity="1" fill-rule="nonzero"/></g><path fill="#a259ff" d="M 22.351562 50.191406 C 22.351562 43.15625 28.0625 37.441406 35.101562 37.441406 L 47.851562 37.441406 L 47.851562 62.941406 L 35.101562 62.941406 C 28.0625 62.941406 22.351562 57.230469 22.351562 50.191406 Z M 22.351562 50.191406 " fill-opacity="1" fill-rule="nonzero"/><g clip-path="url(#566273837a)"><path fill="#f24e1e" d="M 22.351562 24.691406 C 22.351562 17.65625 28.0625 11.941406 35.101562 11.941406 L 47.851562 11.941406 L 47.851562 37.441406 L 35.101562 37.441406 C 28.0625 37.441406 22.351562 31.730469 22.351562 24.691406 Z M 22.351562 24.691406 " fill-opacity="1" fill-rule="nonzero"/></g><g clip-path="url(#dbd37596d6)"><path fill="#ff7262" d="M 47.851562 11.941406 L 60.601562 11.941406 C 67.636719 11.941406 73.351562 17.65625 73.351562 24.691406 C 73.351562 31.730469 67.636719 37.441406 60.601562 37.441406 L 47.851562 37.441406 Z M 47.851562 11.941406 " fill-opacity="1" fill-rule="nonzero"/></g><path fill="#1abcfe" d="M 73.351562 50.191406 C 73.351562 57.230469 67.636719 62.941406 60.601562 62.941406 C 53.5625 62.941406 47.851562 57.230469 47.851562 50.191406 C 47.851562 43.15625 53.5625 37.441406 60.601562 37.441406 C 67.636719 37.441406 73.351562 43.15625 73.351562 50.191406 Z M 73.351562 50.191406 " fill-opacity="1" fill-rule="nonzero"/><g fill="#1abcfe" fill-opacity="1"><g transform="translate(25.788282, 106.550022)"><g><path d="M 1.171875 -9.796875 L 8.640625 -9.796875 L 8.640625 -7.84375 L 3.328125 -7.84375 L 3.328125 -5.75 L 8.015625 -5.75 L 8.015625 -3.796875 L 3.328125 -3.796875 L 3.328125 0 L 1.171875 0 Z M 1.171875 -9.796875 "/></g></g></g><g fill="#1abcfe" fill-opacity="1"><g transform="translate(34.967164, 106.550022)"><g><path d="M 1 -10.21875 L 3.234375 -10.21875 L 3.234375 -8.328125 L 1 -8.328125 Z M 1.046875 -7.5 L 3.171875 -7.5 L 3.171875 0 L 1.046875 0 Z M 1.046875 -7.5 "/></g></g></g><g fill="#1abcfe" fill-opacity="1"><g transform="translate(39.192803, 106.550022)"><g><path d="M 4.3125 2.265625 C 3.695312 2.265625 3.109375 2.195312 2.546875 2.0625 C 1.984375 1.925781 1.46875 1.734375 1 1.484375 L 1.71875 -0.109375 C 2.113281 0.0976562 2.507812 0.265625 2.90625 0.390625 C 3.300781 0.515625 3.75 0.578125 4.25 0.578125 C 4.976562 0.578125 5.515625 0.398438 5.859375 0.046875 C 6.210938 -0.296875 6.390625 -0.800781 6.390625 -1.46875 L 6.390625 -1.828125 C 6.078125 -1.453125 5.734375 -1.15625 5.359375 -0.9375 C 4.984375 -0.71875 4.515625 -0.609375 3.953125 -0.609375 C 3.515625 -0.609375 3.09375 -0.6875 2.6875 -0.84375 C 2.289062 -1 1.9375 -1.222656 1.625 -1.515625 C 1.3125 -1.816406 1.0625 -2.1875 0.875 -2.625 C 0.695312 -3.0625 0.609375 -3.554688 0.609375 -4.109375 L 0.609375 -4.140625 C 0.609375 -4.703125 0.703125 -5.195312 0.890625 -5.625 C 1.078125 -6.0625 1.320312 -6.429688 1.625 -6.734375 C 1.9375 -7.035156 2.289062 -7.257812 2.6875 -7.40625 C 3.09375 -7.5625 3.515625 -7.640625 3.953125 -7.640625 C 4.523438 -7.640625 5 -7.53125 5.375 -7.3125 C 5.75 -7.101562 6.082031 -6.84375 6.375 -6.53125 L 6.375 -7.5 L 8.5 -7.5 L 8.5 -1.6875 C 8.5 -0.351562 8.179688 0.628906 7.546875 1.265625 C 7.191406 1.617188 6.742188 1.875 6.203125 2.03125 C 5.671875 2.1875 5.039062 2.265625 4.3125 2.265625 Z M 4.5625 -2.375 C 4.820312 -2.375 5.0625 -2.414062 5.28125 -2.5 C 5.507812 -2.582031 5.707031 -2.703125 5.875 -2.859375 C 6.039062 -3.015625 6.164062 -3.195312 6.25 -3.40625 C 6.34375 -3.625 6.390625 -3.859375 6.390625 -4.109375 L 6.390625 -4.140625 C 6.390625 -4.390625 6.34375 -4.625 6.25 -4.84375 C 6.164062 -5.0625 6.039062 -5.242188 5.875 -5.390625 C 5.707031 -5.546875 5.507812 -5.664062 5.28125 -5.75 C 5.0625 -5.832031 4.820312 -5.875 4.5625 -5.875 C 4.300781 -5.875 4.0625 -5.832031 3.84375 -5.75 C 3.625 -5.664062 3.429688 -5.546875 3.265625 -5.390625 C 3.109375 -5.242188 2.984375 -5.0625 2.890625 -4.84375 C 2.796875 -4.625 2.75 -4.390625 2.75 -4.140625 L 2.75 -4.109375 C 2.75 -3.585938 2.921875 -3.164062 3.265625 -2.84375 C 3.609375 -2.53125 4.039062 -2.375 4.5625 -2.375 Z M 4.5625 -2.375 "/></g></g></g><g fill="#1abcfe" fill-opacity="1"><g transform="translate(48.637532, 106.550022)"><g><path d="M 0.953125 -7.5 L 3.078125 -7.5 L 3.078125 -6.4375 C 3.203125 -6.59375 3.335938 -6.742188 3.484375 -6.890625 C 3.628906 -7.035156 3.789062 -7.164062 3.96875 -7.28125 C 4.144531 -7.394531 4.34375 -7.484375 4.5625 -7.546875 C 4.78125 -7.609375 5.023438 -7.640625 5.296875 -7.640625 C 5.785156 -7.640625 6.207031 -7.535156 6.5625 -7.328125 C 6.925781 -7.128906 7.207031 -6.835938 7.40625 -6.453125 C 7.726562 -6.847656 8.085938 -7.144531 8.484375 -7.34375 C 8.890625 -7.539062 9.351562 -7.640625 9.875 -7.640625 C 10.664062 -7.640625 11.285156 -7.40625 11.734375 -6.9375 C 12.179688 -6.476562 12.40625 -5.796875 12.40625 -4.890625 L 12.40625 0 L 10.28125 0 L 10.28125 -4.1875 C 10.28125 -4.6875 10.171875 -5.066406 9.953125 -5.328125 C 9.734375 -5.585938 9.425781 -5.71875 9.03125 -5.71875 C 8.625 -5.71875 8.304688 -5.585938 8.078125 -5.328125 C 7.847656 -5.066406 7.734375 -4.6875 7.734375 -4.1875 L 7.734375 0 L 5.609375 0 L 5.609375 -4.1875 C 5.609375 -4.6875 5.5 -5.066406 5.28125 -5.328125 C 5.070312 -5.585938 4.769531 -5.71875 4.375 -5.71875 C 3.96875 -5.71875 3.648438 -5.585938 3.421875 -5.328125 C 3.191406 -5.066406 3.078125 -4.6875 3.078125 -4.1875 L 3.078125 0 L 0.953125 0 Z M 0.953125 -7.5 "/></g></g></g><g fill="#1abcfe" fill-opacity="1"><g transform="translate(61.930107, 106.550022)"><g><path d="M 3.078125 0.140625 C 2.722656 0.140625 2.390625 0.09375 2.078125 0 C 1.765625 -0.101562 1.488281 -0.25 1.25 -0.4375 C 1.019531 -0.632812 0.835938 -0.875 0.703125 -1.15625 C 0.566406 -1.445312 0.5 -1.78125 0.5 -2.15625 L 0.5 -2.1875 C 0.5 -2.59375 0.570312 -2.945312 0.71875 -3.25 C 0.875 -3.550781 1.082031 -3.796875 1.34375 -3.984375 C 1.613281 -4.179688 1.929688 -4.328125 2.296875 -4.421875 C 2.671875 -4.523438 3.082031 -4.578125 3.53125 -4.578125 C 3.914062 -4.578125 4.25 -4.546875 4.53125 -4.484375 C 4.8125 -4.429688 5.085938 -4.359375 5.359375 -4.265625 L 5.359375 -4.390625 C 5.359375 -4.835938 5.222656 -5.175781 4.953125 -5.40625 C 4.679688 -5.644531 4.28125 -5.765625 3.75 -5.765625 C 3.34375 -5.765625 2.984375 -5.726562 2.671875 -5.65625 C 2.359375 -5.59375 2.03125 -5.492188 1.6875 -5.359375 L 1.140625 -6.984375 C 1.554688 -7.160156 1.988281 -7.304688 2.4375 -7.421875 C 2.882812 -7.535156 3.425781 -7.59375 4.0625 -7.59375 C 4.644531 -7.59375 5.144531 -7.519531 5.5625 -7.375 C 5.976562 -7.226562 6.320312 -7.019531 6.59375 -6.75 C 6.875 -6.46875 7.078125 -6.125 7.203125 -5.71875 C 7.335938 -5.3125 7.40625 -4.859375 7.40625 -4.359375 L 7.40625 0 L 5.34375 0 L 5.34375 -0.8125 C 5.082031 -0.519531 4.769531 -0.285156 4.40625 -0.109375 C 4.039062 0.0546875 3.597656 0.140625 3.078125 0.140625 Z M 3.71875 -1.328125 C 4.226562 -1.328125 4.632812 -1.445312 4.9375 -1.6875 C 5.238281 -1.9375 5.390625 -2.253906 5.390625 -2.640625 L 5.390625 -3.03125 C 5.203125 -3.113281 4.992188 -3.175781 4.765625 -3.21875 C 4.535156 -3.269531 4.289062 -3.296875 4.03125 -3.296875 C 3.570312 -3.296875 3.210938 -3.207031 2.953125 -3.03125 C 2.691406 -2.851562 2.5625 -2.597656 2.5625 -2.265625 L 2.5625 -2.234375 C 2.5625 -1.953125 2.664062 -1.726562 2.875 -1.5625 C 3.09375 -1.40625 3.375 -1.328125 3.71875 -1.328125 Z M 3.71875 -1.328125 "/></g></g></g></svg>