<svg xmlns="http://www.w3.org/2000/svg" xmlns:xlink="http://www.w3.org/1999/xlink" width="128" zoomAndPan="magnify" viewBox="0 0 96 119.999999" height="160" preserveAspectRatio="xMidYMid meet" version="1.0"><defs><g/><clipPath id="1c8b8835ab"><path d="M 9.601562 9.601562 L 86.101562 9.601562 L 86.101562 86.101562 L 9.601562 86.101562 Z M 9.601562 9.601562 " clip-rule="nonzero"/></clipPath></defs><rect x="-9.6" width="115.2" fill="#ffffff" y="-12" height="143.999998" fill-opacity="1"/><rect x="-9.6" width="115.2" fill="#ffffff" y="-12" height="143.999998" fill-opacity="1"/><rect x="-9.6" width="115.2" fill="#63590c" y="-12" height="143.999998" fill-opacity="1"/><g clip-path="url(#1c8b8835ab)"><path fill="#f7df1e" d="M 9.601562 9.601562 L 86.101562 9.601562 L 86.101562 86.101562 L 9.601562 86.101562 Z M 9.601562 9.601562 " fill-opacity="1" fill-rule="nonzero"/></g><path fill="#000000" d="M 29.714844 73.527344 L 35.570312 69.988281 C 36.699219 71.988281 37.726562 73.683594 40.191406 73.683594 C 42.550781 73.683594 44.042969 72.757812 44.042969 69.164062 L 44.042969 44.722656 L 51.230469 44.722656 L 51.230469 69.265625 C 51.230469 76.710938 46.867188 80.101562 40.5 80.101562 C 34.746094 80.101562 31.410156 77.125 29.714844 73.527344 " fill-opacity="1" fill-rule="nonzero"/><path fill="#000000" d="M 55.136719 72.757812 L 60.988281 69.367188 C 62.53125 71.882812 64.535156 73.734375 68.074219 73.734375 C 71.054688 73.734375 72.953125 72.246094 72.953125 70.191406 C 72.953125 67.726562 71.003906 66.851562 67.714844 65.414062 L 65.921875 64.644531 C 60.734375 62.4375 57.292969 59.664062 57.292969 53.808594 C 57.292969 48.417969 61.398438 44.308594 67.820312 44.308594 C 72.390625 44.308594 75.675781 45.902344 78.039062 50.0625 L 72.441406 53.65625 C 71.210938 51.449219 69.875 50.574219 67.820312 50.574219 C 65.714844 50.574219 64.378906 51.910156 64.378906 53.65625 C 64.378906 55.8125 65.714844 56.6875 68.792969 58.023438 L 70.589844 58.789062 C 76.703125 61.410156 80.144531 64.078125 80.144531 70.089844 C 80.144531 76.558594 75.0625 80.101562 68.230469 80.101562 C 61.554688 80.101562 57.242188 76.917969 55.136719 72.757812 " fill-opacity="1" fill-rule="nonzero"/><g fill="#f7df1e" fill-opacity="1"><g transform="translate(10.43203, 106.550022)"><g><path d="M 3.40625 0.140625 C 2.632812 0.140625 1.988281 -0.00390625 1.46875 -0.296875 C 0.957031 -0.585938 0.535156 -0.929688 0.203125 -1.328125 L 1.546875 -2.84375 C 1.828125 -2.53125 2.109375 -2.285156 2.390625 -2.109375 C 2.679688 -1.941406 3 -1.859375 3.34375 -1.859375 C 3.757812 -1.859375 4.082031 -1.984375 4.3125 -2.234375 C 4.539062 -2.492188 4.65625 -2.910156 4.65625 -3.484375 L 4.65625 -9.796875 L 6.875 -9.796875 L 6.875 -3.390625 C 6.875 -2.796875 6.789062 -2.285156 6.625 -1.859375 C 6.46875 -1.429688 6.242188 -1.066406 5.953125 -0.765625 C 5.648438 -0.472656 5.28125 -0.25 4.84375 -0.09375 C 4.414062 0.0625 3.9375 0.140625 3.40625 0.140625 Z M 3.40625 0.140625 "/></g></g></g><g fill="#f7df1e" fill-opacity="1"><g transform="translate(18.323624, 106.550022)"><g><path d="M 3.078125 0.140625 C 2.722656 0.140625 2.390625 0.09375 2.078125 0 C 1.765625 -0.101562 1.488281 -0.25 1.25 -0.4375 C 1.019531 -0.632812 0.835938 -0.875 0.703125 -1.15625 C 0.566406 -1.445312 0.5 -1.78125 0.5 -2.15625 L 0.5 -2.1875 C 0.5 -2.59375 0.570312 -2.945312 0.71875 -3.25 C 0.875 -3.550781 1.082031 -3.796875 1.34375 -3.984375 C 1.613281 -4.179688 1.929688 -4.328125 2.296875 -4.421875 C 2.671875 -4.523438 3.082031 -4.578125 3.53125 -4.578125 C 3.914062 -4.578125 4.25 -4.546875 4.53125 -4.484375 C 4.8125 -4.429688 5.085938 -4.359375 5.359375 -4.265625 L 5.359375 -4.390625 C 5.359375 -4.835938 5.222656 -5.175781 4.953125 -5.40625 C 4.679688 -5.644531 4.28125 -5.765625 3.75 -5.765625 C 3.34375 -5.765625 2.984375 -5.726562 2.671875 -5.65625 C 2.359375 -5.59375 2.03125 -5.492188 1.6875 -5.359375 L 1.140625 -6.984375 C 1.554688 -7.160156 1.988281 -7.304688 2.4375 -7.421875 C 2.882812 -7.535156 3.425781 -7.59375 4.0625 -7.59375 C 4.644531 -7.59375 5.144531 -7.519531 5.5625 -7.375 C 5.976562 -7.226562 6.320312 -7.019531 6.59375 -6.75 C 6.875 -6.46875 7.078125 -6.125 7.203125 -5.71875 C 7.335938 -5.3125 7.40625 -4.859375 7.40625 -4.359375 L 7.40625 0 L 5.34375 0 L 5.34375 -0.8125 C 5.082031 -0.519531 4.769531 -0.285156 4.40625 -0.109375 C 4.039062 0.0546875 3.597656 0.140625 3.078125 0.140625 Z M 3.71875 -1.328125 C 4.226562 -1.328125 4.632812 -1.445312 4.9375 -1.6875 C 5.238281 -1.9375 5.390625 -2.253906 5.390625 -2.640625 L 5.390625 -3.03125 C 5.203125 -3.113281 4.992188 -3.175781 4.765625 -3.21875 C 4.535156 -3.269531 4.289062 -3.296875 4.03125 -3.296875 C 3.570312 -3.296875 3.210938 -3.207031 2.953125 -3.03125 C 2.691406 -2.851562 2.5625 -2.597656 2.5625 -2.265625 L 2.5625 -2.234375 C 2.5625 -1.953125 2.664062 -1.726562 2.875 -1.5625 C 3.09375 -1.40625 3.375 -1.328125 3.71875 -1.328125 Z M 3.71875 -1.328125 "/></g></g></g><g fill="#f7df1e" fill-opacity="1"><g transform="translate(26.607006, 106.550022)"><g><path d="M 0.28125 -7.5 L 2.53125 -7.5 L 4.21875 -2.484375 L 5.90625 -7.5 L 8.125 -7.5 L 5.171875 0.0625 L 3.234375 0.0625 Z M 0.28125 -7.5 "/></g></g></g><g fill="#f7df1e" fill-opacity="1"><g transform="translate(35.002322, 106.550022)"><g><path d="M 3.078125 0.140625 C 2.722656 0.140625 2.390625 0.09375 2.078125 0 C 1.765625 -0.101562 1.488281 -0.25 1.25 -0.4375 C 1.019531 -0.632812 0.835938 -0.875 0.703125 -1.15625 C 0.566406 -1.445312 0.5 -1.78125 0.5 -2.15625 L 0.5 -2.1875 C 0.5 -2.59375 0.570312 -2.945312 0.71875 -3.25 C 0.875 -3.550781 1.082031 -3.796875 1.34375 -3.984375 C 1.613281 -4.179688 1.929688 -4.328125 2.296875 -4.421875 C 2.671875 -4.523438 3.082031 -4.578125 3.53125 -4.578125 C 3.914062 -4.578125 4.25 -4.546875 4.53125 -4.484375 C 4.8125 -4.429688 5.085938 -4.359375 5.359375 -4.265625 L 5.359375 -4.390625 C 5.359375 -4.835938 5.222656 -5.175781 4.953125 -5.40625 C 4.679688 -5.644531 4.28125 -5.765625 3.75 -5.765625 C 3.34375 -5.765625 2.984375 -5.726562 2.671875 -5.65625 C 2.359375 -5.59375 2.03125 -5.492188 1.6875 -5.359375 L 1.140625 -6.984375 C 1.554688 -7.160156 1.988281 -7.304688 2.4375 -7.421875 C 2.882812 -7.535156 3.425781 -7.59375 4.0625 -7.59375 C 4.644531 -7.59375 5.144531 -7.519531 5.5625 -7.375 C 5.976562 -7.226562 6.320312 -7.019531 6.59375 -6.75 C 6.875 -6.46875 7.078125 -6.125 7.203125 -5.71875 C 7.335938 -5.3125 7.40625 -4.859375 7.40625 -4.359375 L 7.40625 0 L 5.34375 0 L 5.34375 -0.8125 C 5.082031 -0.519531 4.769531 -0.285156 4.40625 -0.109375 C 4.039062 0.0546875 3.597656 0.140625 3.078125 0.140625 Z M 3.71875 -1.328125 C 4.226562 -1.328125 4.632812 -1.445312 4.9375 -1.6875 C 5.238281 -1.9375 5.390625 -2.253906 5.390625 -2.640625 L 5.390625 -3.03125 C 5.203125 -3.113281 4.992188 -3.175781 4.765625 -3.21875 C 4.535156 -3.269531 4.289062 -3.296875 4.03125 -3.296875 C 3.570312 -3.296875 3.210938 -3.207031 2.953125 -3.03125 C 2.691406 -2.851562 2.5625 -2.597656 2.5625 -2.265625 L 2.5625 -2.234375 C 2.5625 -1.953125 2.664062 -1.726562 2.875 -1.5625 C 3.09375 -1.40625 3.375 -1.328125 3.71875 -1.328125 Z M 3.71875 -1.328125 "/></g></g></g><g fill="#f7df1e" fill-opacity="1"><g transform="translate(43.285704, 106.550022)"><g><path d="M 4.65625 0.140625 C 3.914062 0.140625 3.1875 0.015625 2.46875 -0.234375 C 1.75 -0.492188 1.09375 -0.890625 0.5 -1.421875 L 1.78125 -2.953125 C 2.226562 -2.585938 2.6875 -2.296875 3.15625 -2.078125 C 3.625 -1.867188 4.140625 -1.765625 4.703125 -1.765625 C 5.148438 -1.765625 5.5 -1.84375 5.75 -2 C 6 -2.164062 6.125 -2.394531 6.125 -2.6875 L 6.125 -2.71875 C 6.125 -2.851562 6.097656 -2.972656 6.046875 -3.078125 C 5.992188 -3.191406 5.894531 -3.296875 5.75 -3.390625 C 5.601562 -3.484375 5.398438 -3.578125 5.140625 -3.671875 C 4.890625 -3.765625 4.554688 -3.863281 4.140625 -3.96875 C 3.648438 -4.082031 3.203125 -4.210938 2.796875 -4.359375 C 2.398438 -4.515625 2.0625 -4.703125 1.78125 -4.921875 C 1.5 -5.140625 1.28125 -5.410156 1.125 -5.734375 C 0.96875 -6.066406 0.890625 -6.472656 0.890625 -6.953125 L 0.890625 -6.984375 C 0.890625 -7.429688 0.972656 -7.832031 1.140625 -8.1875 C 1.316406 -8.550781 1.554688 -8.863281 1.859375 -9.125 C 2.160156 -9.382812 2.519531 -9.582031 2.9375 -9.71875 C 3.351562 -9.863281 3.816406 -9.9375 4.328125 -9.9375 C 5.046875 -9.9375 5.703125 -9.828125 6.296875 -9.609375 C 6.898438 -9.398438 7.457031 -9.09375 7.96875 -8.6875 L 6.84375 -7.0625 C 6.40625 -7.363281 5.972656 -7.597656 5.546875 -7.765625 C 5.128906 -7.941406 4.710938 -8.03125 4.296875 -8.03125 C 3.878906 -8.03125 3.5625 -7.945312 3.34375 -7.78125 C 3.132812 -7.625 3.03125 -7.425781 3.03125 -7.1875 L 3.03125 -7.15625 C 3.03125 -7 3.0625 -6.859375 3.125 -6.734375 C 3.1875 -6.617188 3.296875 -6.515625 3.453125 -6.421875 C 3.617188 -6.328125 3.835938 -6.238281 4.109375 -6.15625 C 4.378906 -6.070312 4.726562 -5.972656 5.15625 -5.859375 C 5.644531 -5.734375 6.082031 -5.585938 6.46875 -5.421875 C 6.863281 -5.265625 7.191406 -5.070312 7.453125 -4.84375 C 7.722656 -4.613281 7.925781 -4.34375 8.0625 -4.03125 C 8.195312 -3.71875 8.265625 -3.347656 8.265625 -2.921875 L 8.265625 -2.890625 C 8.265625 -2.410156 8.175781 -1.976562 8 -1.59375 C 7.820312 -1.21875 7.570312 -0.898438 7.25 -0.640625 C 6.9375 -0.390625 6.554688 -0.195312 6.109375 -0.0625 C 5.671875 0.0703125 5.1875 0.140625 4.65625 0.140625 Z M 4.65625 0.140625 "/></g></g></g><g fill="#f7df1e" fill-opacity="1"><g transform="translate(52.240706, 106.550022)"><g><path d="M 4.5 0.171875 C 3.9375 0.171875 3.414062 0.0664062 2.9375 -0.140625 C 2.457031 -0.347656 2.039062 -0.625 1.6875 -0.96875 C 1.34375 -1.320312 1.070312 -1.734375 0.875 -2.203125 C 0.6875 -2.671875 0.59375 -3.171875 0.59375 -3.703125 L 0.59375 -3.734375 C 0.59375 -4.265625 0.6875 -4.769531 0.875 -5.25 C 1.070312 -5.726562 1.34375 -6.144531 1.6875 -6.5 C 2.039062 -6.851562 2.457031 -7.128906 2.9375 -7.328125 C 3.414062 -7.535156 3.941406 -7.640625 4.515625 -7.640625 C 5.234375 -7.640625 5.820312 -7.523438 6.28125 -7.296875 C 6.75 -7.078125 7.160156 -6.773438 7.515625 -6.390625 L 6.21875 -4.984375 C 5.976562 -5.234375 5.726562 -5.429688 5.46875 -5.578125 C 5.207031 -5.734375 4.890625 -5.8125 4.515625 -5.8125 C 4.242188 -5.8125 3.992188 -5.753906 3.765625 -5.640625 C 3.546875 -5.535156 3.351562 -5.390625 3.1875 -5.203125 C 3.03125 -5.015625 2.90625 -4.796875 2.8125 -4.546875 C 2.726562 -4.304688 2.6875 -4.046875 2.6875 -3.765625 L 2.6875 -3.734375 C 2.6875 -3.441406 2.726562 -3.171875 2.8125 -2.921875 C 2.90625 -2.671875 3.035156 -2.453125 3.203125 -2.265625 C 3.367188 -2.078125 3.566406 -1.929688 3.796875 -1.828125 C 4.035156 -1.722656 4.300781 -1.671875 4.59375 -1.671875 C 4.945312 -1.671875 5.253906 -1.738281 5.515625 -1.875 C 5.785156 -2.019531 6.050781 -2.21875 6.3125 -2.46875 L 7.5625 -1.203125 C 7.195312 -0.804688 6.78125 -0.476562 6.3125 -0.21875 C 5.84375 0.0390625 5.238281 0.171875 4.5 0.171875 Z M 4.5 0.171875 "/></g></g></g><g fill="#f7df1e" fill-opacity="1"><g transform="translate(60.230249, 106.550022)"><g><path d="M 0.953125 -7.5 L 3.078125 -7.5 L 3.078125 -5.984375 C 3.296875 -6.503906 3.585938 -6.914062 3.953125 -7.21875 C 4.328125 -7.53125 4.832031 -7.671875 5.46875 -7.640625 L 5.46875 -5.421875 L 5.359375 -5.421875 C 4.648438 -5.421875 4.09375 -5.203125 3.6875 -4.765625 C 3.28125 -4.335938 3.078125 -3.671875 3.078125 -2.765625 L 3.078125 0 L 0.953125 0 Z M 0.953125 -7.5 "/></g></g></g><g fill="#f7df1e" fill-opacity="1"><g transform="translate(66.078981, 106.550022)"><g><path d="M 1 -10.21875 L 3.234375 -10.21875 L 3.234375 -8.328125 L 1 -8.328125 Z M 1.046875 -7.5 L 3.171875 -7.5 L 3.171875 0 L 1.046875 0 Z M 1.046875 -7.5 "/></g></g></g><g fill="#f7df1e" fill-opacity="1"><g transform="translate(70.30462, 106.550022)"><g><path d="M 0.953125 -7.5 L 3.078125 -7.5 L 3.078125 -6.421875 C 3.335938 -6.773438 3.648438 -7.066406 4.015625 -7.296875 C 4.390625 -7.523438 4.859375 -7.640625 5.421875 -7.640625 C 5.859375 -7.640625 6.28125 -7.554688 6.6875 -7.390625 C 7.101562 -7.222656 7.46875 -6.972656 7.78125 -6.640625 C 8.101562 -6.304688 8.359375 -5.898438 8.546875 -5.421875 C 8.734375 -4.941406 8.828125 -4.390625 8.828125 -3.765625 L 8.828125 -3.734375 C 8.828125 -3.109375 8.734375 -2.554688 8.546875 -2.078125 C 8.359375 -1.597656 8.109375 -1.191406 7.796875 -0.859375 C 7.484375 -0.523438 7.117188 -0.273438 6.703125 -0.109375 C 6.296875 0.0546875 5.867188 0.140625 5.421875 0.140625 C 4.847656 0.140625 4.375 0.03125 4 -0.1875 C 3.632812 -0.414062 3.328125 -0.679688 3.078125 -0.984375 L 3.078125 2.234375 L 0.953125 2.234375 Z M 4.875 -1.671875 C 5.125 -1.671875 5.359375 -1.71875 5.578125 -1.8125 C 5.796875 -1.90625 5.988281 -2.039062 6.15625 -2.21875 C 6.320312 -2.40625 6.453125 -2.625 6.546875 -2.875 C 6.648438 -3.132812 6.703125 -3.421875 6.703125 -3.734375 L 6.703125 -3.765625 C 6.703125 -4.078125 6.648438 -4.359375 6.546875 -4.609375 C 6.453125 -4.867188 6.320312 -5.085938 6.15625 -5.265625 C 5.988281 -5.453125 5.796875 -5.59375 5.578125 -5.6875 C 5.359375 -5.789062 5.125 -5.84375 4.875 -5.84375 C 4.625 -5.84375 4.390625 -5.789062 4.171875 -5.6875 C 3.953125 -5.59375 3.757812 -5.453125 3.59375 -5.265625 C 3.425781 -5.085938 3.289062 -4.867188 3.1875 -4.609375 C 3.09375 -4.359375 3.046875 -4.078125 3.046875 -3.765625 L 3.046875 -3.734375 C 3.046875 -3.429688 3.09375 -3.148438 3.1875 -2.890625 C 3.289062 -2.628906 3.425781 -2.40625 3.59375 -2.21875 C 3.757812 -2.039062 3.953125 -1.90625 4.171875 -1.8125 C 4.390625 -1.71875 4.625 -1.671875 4.875 -1.671875 Z M 4.875 -1.671875 "/></g></g></g><g fill="#f7df1e" fill-opacity="1"><g transform="translate(79.749348, 106.550022)"><g><path d="M 3.484375 0.125 C 3.160156 0.125 2.863281 0.0859375 2.59375 0.015625 C 2.332031 -0.046875 2.101562 -0.164062 1.90625 -0.34375 C 1.71875 -0.519531 1.566406 -0.75 1.453125 -1.03125 C 1.347656 -1.320312 1.296875 -1.6875 1.296875 -2.125 L 1.296875 -5.6875 L 0.40625 -5.6875 L 0.40625 -7.5 L 1.296875 -7.5 L 1.296875 -9.421875 L 3.4375 -9.421875 L 3.4375 -7.5 L 5.1875 -7.5 L 5.1875 -5.6875 L 3.4375 -5.6875 L 3.4375 -2.484375 C 3.4375 -1.992188 3.660156 -1.75 4.109375 -1.75 C 4.484375 -1.75 4.835938 -1.835938 5.171875 -2.015625 L 5.171875 -0.3125 C 4.941406 -0.175781 4.691406 -0.0703125 4.421875 0 C 4.148438 0.0820312 3.835938 0.125 3.484375 0.125 Z M 3.484375 0.125 "/></g></g></g></svg>