<svg xmlns="http://www.w3.org/2000/svg" xmlns:xlink="http://www.w3.org/1999/xlink" width="128" zoomAndPan="magnify" viewBox="0 0 96 119.999999" height="160" preserveAspectRatio="xMidYMid meet" version="1.0"><defs><g/><clipPath id="162ec99a2c"><path d="M 47 9.601562 L 67 9.601562 L 67 81 L 47 81 Z M 47 9.601562 " clip-rule="nonzero"/></clipPath><clipPath id="81dd17354d"><path d="M 29 9.601562 L 49 9.601562 L 49 82 L 29 82 Z M 29 9.601562 " clip-rule="nonzero"/></clipPath><clipPath id="3f7b9d38b5"><path d="M 46 71 L 52 71 L 52 91.351562 L 46 91.351562 Z M 46 71 " clip-rule="nonzero"/></clipPath></defs><rect x="-9.6" width="115.2" fill="#ffffff" y="-12" height="143.999998" fill-opacity="1"/><rect x="-9.6" width="115.2" fill="#ffffff" y="-12" height="143.999998" fill-opacity="1"/><rect x="-9.6" width="115.2" fill="#2b451c" y="-12" height="143.999998" fill-opacity="1"/><g clip-path="url(#162ec99a2c)"><path fill="#599636" d="M 47.886719 9.820312 L 50.0625 13.921875 C 50.550781 14.675781 51.082031 15.34375 51.707031 15.96875 C 53.527344 17.796875 55.257812 19.707031 56.8125 21.757812 C 60.5 26.613281 62.988281 32.003906 64.765625 37.832031 C 65.832031 41.394531 66.410156 45.046875 66.453125 48.742188 C 66.628906 59.785156 62.851562 69.265625 55.238281 77.148438 C 53.996094 78.394531 52.664062 79.550781 51.238281 80.578125 C 50.484375 80.578125 50.125 79.996094 49.816406 79.464844 C 49.234375 78.484375 48.882812 77.367188 48.703125 76.257812 C 48.4375 74.921875 48.261719 73.585938 48.347656 72.207031 L 48.347656 71.582031 C 48.285156 71.449219 47.621094 10.136719 47.886719 9.820312 Z M 47.886719 9.820312 " fill-opacity="1" fill-rule="nonzero"/></g><g clip-path="url(#81dd17354d)"><path fill="#6cac48" d="M 47.886719 9.6875 C 47.796875 9.507812 47.707031 9.644531 47.617188 9.730469 C 47.660156 10.625 47.351562 11.421875 46.863281 12.183594 C 46.328125 12.9375 45.621094 13.519531 44.910156 14.140625 C 40.957031 17.570312 37.847656 21.710938 35.359375 26.34375 C 32.046875 32.578125 30.339844 39.257812 29.855469 46.289062 C 29.632812 48.828125 30.65625 57.777344 31.453125 60.363281 C 33.628906 67.21875 37.539062 72.964844 42.601562 77.949219 C 43.847656 79.152344 45.175781 80.265625 46.550781 81.335938 C 46.953125 81.335938 46.996094 80.976562 47.085938 80.710938 C 47.261719 80.144531 47.398438 79.5625 47.488281 78.976562 L 48.378906 72.296875 Z M 47.886719 9.6875 " fill-opacity="1" fill-rule="nonzero"/></g><g clip-path="url(#3f7b9d38b5)"><path fill="#c2bfbf" d="M 50.0625 83.289062 C 50.152344 82.269531 50.640625 81.421875 51.171875 80.574219 C 50.636719 80.351562 50.242188 79.910156 49.929688 79.417969 C 49.660156 78.972656 49.441406 78.4375 49.265625 77.949219 C 48.644531 76.078125 48.511719 74.117188 48.335938 72.207031 L 48.335938 71.046875 C 48.113281 71.226562 48.066406 72.738281 48.066406 72.964844 C 47.9375 74.984375 47.667969 76.988281 47.265625 78.976562 C 47.132812 79.777344 47.042969 80.578125 46.550781 81.289062 C 46.550781 81.378906 46.550781 81.46875 46.597656 81.601562 C 47.394531 83.960938 47.617188 86.367188 47.75 88.816406 L 47.75 89.710938 C 47.75 90.777344 47.707031 90.554688 48.589844 90.910156 C 48.949219 91.042969 49.347656 91.089844 49.703125 91.355469 C 49.96875 91.355469 50.011719 91.132812 50.011719 90.953125 L 49.882812 89.484375 L 49.882812 85.386719 C 49.835938 84.671875 49.96875 83.960938 50.058594 83.292969 Z M 50.0625 83.289062 " fill-opacity="1" fill-rule="nonzero"/></g><g fill="#6bac47" fill-opacity="1"><g transform="translate(10.928905, 106.550022)"><g><path d="M 1.171875 -9.796875 L 3.5 -9.796875 L 6.078125 -5.65625 L 8.65625 -9.796875 L 10.96875 -9.796875 L 10.96875 0 L 8.828125 0 L 8.828125 -6.390625 L 6.078125 -2.21875 L 6.015625 -2.21875 L 3.296875 -6.359375 L 3.296875 0 L 1.171875 0 Z M 1.171875 -9.796875 "/></g></g></g><g fill="#6bac47" fill-opacity="1"><g transform="translate(23.074129, 106.550022)"><g><path d="M 4.640625 0.171875 C 4.054688 0.171875 3.515625 0.0703125 3.015625 -0.125 C 2.523438 -0.332031 2.097656 -0.609375 1.734375 -0.953125 C 1.378906 -1.304688 1.097656 -1.71875 0.890625 -2.1875 C 0.691406 -2.65625 0.59375 -3.160156 0.59375 -3.703125 L 0.59375 -3.734375 C 0.59375 -4.273438 0.691406 -4.78125 0.890625 -5.25 C 1.097656 -5.726562 1.382812 -6.144531 1.75 -6.5 C 2.113281 -6.851562 2.539062 -7.128906 3.03125 -7.328125 C 3.53125 -7.535156 4.070312 -7.640625 4.65625 -7.640625 C 5.238281 -7.640625 5.773438 -7.539062 6.265625 -7.34375 C 6.765625 -7.144531 7.191406 -6.867188 7.546875 -6.515625 C 7.910156 -6.160156 8.191406 -5.75 8.390625 -5.28125 C 8.597656 -4.8125 8.703125 -4.304688 8.703125 -3.765625 L 8.703125 -3.734375 C 8.703125 -3.191406 8.597656 -2.6875 8.390625 -2.21875 C 8.191406 -1.75 7.910156 -1.335938 7.546875 -0.984375 C 7.179688 -0.628906 6.75 -0.347656 6.25 -0.140625 C 5.757812 0.0664062 5.222656 0.171875 4.640625 0.171875 Z M 4.65625 -1.671875 C 4.96875 -1.671875 5.242188 -1.722656 5.484375 -1.828125 C 5.722656 -1.929688 5.925781 -2.078125 6.09375 -2.265625 C 6.257812 -2.453125 6.382812 -2.671875 6.46875 -2.921875 C 6.5625 -3.171875 6.609375 -3.429688 6.609375 -3.703125 L 6.609375 -3.734375 C 6.609375 -4.015625 6.5625 -4.28125 6.46875 -4.53125 C 6.375 -4.78125 6.238281 -5 6.0625 -5.1875 C 5.882812 -5.375 5.671875 -5.523438 5.421875 -5.640625 C 5.179688 -5.753906 4.921875 -5.8125 4.640625 -5.8125 C 4.328125 -5.8125 4.050781 -5.753906 3.8125 -5.640625 C 3.570312 -5.535156 3.367188 -5.390625 3.203125 -5.203125 C 3.035156 -5.015625 2.90625 -4.796875 2.8125 -4.546875 C 2.726562 -4.304688 2.6875 -4.046875 2.6875 -3.765625 L 2.6875 -3.734375 C 2.6875 -3.453125 2.734375 -3.1875 2.828125 -2.9375 C 2.921875 -2.695312 3.054688 -2.476562 3.234375 -2.28125 C 3.410156 -2.09375 3.617188 -1.941406 3.859375 -1.828125 C 4.097656 -1.722656 4.363281 -1.671875 4.65625 -1.671875 Z M 4.65625 -1.671875 "/></g></g></g><g fill="#6bac47" fill-opacity="1"><g transform="translate(32.364946, 106.550022)"><g><path d="M 0.953125 -7.5 L 3.078125 -7.5 L 3.078125 -6.4375 C 3.203125 -6.59375 3.335938 -6.742188 3.484375 -6.890625 C 3.628906 -7.035156 3.789062 -7.164062 3.96875 -7.28125 C 4.144531 -7.394531 4.335938 -7.484375 4.546875 -7.546875 C 4.765625 -7.609375 5.007812 -7.640625 5.28125 -7.640625 C 6.09375 -7.640625 6.71875 -7.390625 7.15625 -6.890625 C 7.601562 -6.398438 7.828125 -5.722656 7.828125 -4.859375 L 7.828125 0 L 5.703125 0 L 5.703125 -4.1875 C 5.703125 -4.6875 5.585938 -5.066406 5.359375 -5.328125 C 5.140625 -5.585938 4.820312 -5.71875 4.40625 -5.71875 C 4 -5.71875 3.675781 -5.585938 3.4375 -5.328125 C 3.195312 -5.066406 3.078125 -4.6875 3.078125 -4.1875 L 3.078125 0 L 0.953125 0 Z M 0.953125 -7.5 "/></g></g></g><g fill="#6bac47" fill-opacity="1"><g transform="translate(41.082082, 106.550022)"><g><path d="M 4.3125 2.265625 C 3.695312 2.265625 3.109375 2.195312 2.546875 2.0625 C 1.984375 1.925781 1.46875 1.734375 1 1.484375 L 1.71875 -0.109375 C 2.113281 0.0976562 2.507812 0.265625 2.90625 0.390625 C 3.300781 0.515625 3.75 0.578125 4.25 0.578125 C 4.976562 0.578125 5.515625 0.398438 5.859375 0.046875 C 6.210938 -0.296875 6.390625 -0.800781 6.390625 -1.46875 L 6.390625 -1.828125 C 6.078125 -1.453125 5.734375 -1.15625 5.359375 -0.9375 C 4.984375 -0.71875 4.515625 -0.609375 3.953125 -0.609375 C 3.515625 -0.609375 3.09375 -0.6875 2.6875 -0.84375 C 2.289062 -1 1.9375 -1.222656 1.625 -1.515625 C 1.3125 -1.816406 1.0625 -2.1875 0.875 -2.625 C 0.695312 -3.0625 0.609375 -3.554688 0.609375 -4.109375 L 0.609375 -4.140625 C 0.609375 -4.703125 0.703125 -5.195312 0.890625 -5.625 C 1.078125 -6.0625 1.320312 -6.429688 1.625 -6.734375 C 1.9375 -7.035156 2.289062 -7.257812 2.6875 -7.40625 C 3.09375 -7.5625 3.515625 -7.640625 3.953125 -7.640625 C 4.523438 -7.640625 5 -7.53125 5.375 -7.3125 C 5.75 -7.101562 6.082031 -6.84375 6.375 -6.53125 L 6.375 -7.5 L 8.5 -7.5 L 8.5 -1.6875 C 8.5 -0.351562 8.179688 0.628906 7.546875 1.265625 C 7.191406 1.617188 6.742188 1.875 6.203125 2.03125 C 5.671875 2.1875 5.039062 2.265625 4.3125 2.265625 Z M 4.5625 -2.375 C 4.820312 -2.375 5.0625 -2.414062 5.28125 -2.5 C 5.507812 -2.582031 5.707031 -2.703125 5.875 -2.859375 C 6.039062 -3.015625 6.164062 -3.195312 6.25 -3.40625 C 6.34375 -3.625 6.390625 -3.859375 6.390625 -4.109375 L 6.390625 -4.140625 C 6.390625 -4.390625 6.34375 -4.625 6.25 -4.84375 C 6.164062 -5.0625 6.039062 -5.242188 5.875 -5.390625 C 5.707031 -5.546875 5.507812 -5.664062 5.28125 -5.75 C 5.0625 -5.832031 4.820312 -5.875 4.5625 -5.875 C 4.300781 -5.875 4.0625 -5.832031 3.84375 -5.75 C 3.625 -5.664062 3.429688 -5.546875 3.265625 -5.390625 C 3.109375 -5.242188 2.984375 -5.0625 2.890625 -4.84375 C 2.796875 -4.625 2.75 -4.390625 2.75 -4.140625 L 2.75 -4.109375 C 2.75 -3.585938 2.921875 -3.164062 3.265625 -2.84375 C 3.609375 -2.53125 4.039062 -2.375 4.5625 -2.375 Z M 4.5625 -2.375 "/></g></g></g><g fill="#6bac47" fill-opacity="1"><g transform="translate(50.52681, 106.550022)"><g><path d="M 4.640625 0.171875 C 4.054688 0.171875 3.515625 0.0703125 3.015625 -0.125 C 2.523438 -0.332031 2.097656 -0.609375 1.734375 -0.953125 C 1.378906 -1.304688 1.097656 -1.71875 0.890625 -2.1875 C 0.691406 -2.65625 0.59375 -3.160156 0.59375 -3.703125 L 0.59375 -3.734375 C 0.59375 -4.273438 0.691406 -4.78125 0.890625 -5.25 C 1.097656 -5.726562 1.382812 -6.144531 1.75 -6.5 C 2.113281 -6.851562 2.539062 -7.128906 3.03125 -7.328125 C 3.53125 -7.535156 4.070312 -7.640625 4.65625 -7.640625 C 5.238281 -7.640625 5.773438 -7.539062 6.265625 -7.34375 C 6.765625 -7.144531 7.191406 -6.867188 7.546875 -6.515625 C 7.910156 -6.160156 8.191406 -5.75 8.390625 -5.28125 C 8.597656 -4.8125 8.703125 -4.304688 8.703125 -3.765625 L 8.703125 -3.734375 C 8.703125 -3.191406 8.597656 -2.6875 8.390625 -2.21875 C 8.191406 -1.75 7.910156 -1.335938 7.546875 -0.984375 C 7.179688 -0.628906 6.75 -0.347656 6.25 -0.140625 C 5.757812 0.0664062 5.222656 0.171875 4.640625 0.171875 Z M 4.65625 -1.671875 C 4.96875 -1.671875 5.242188 -1.722656 5.484375 -1.828125 C 5.722656 -1.929688 5.925781 -2.078125 6.09375 -2.265625 C 6.257812 -2.453125 6.382812 -2.671875 6.46875 -2.921875 C 6.5625 -3.171875 6.609375 -3.429688 6.609375 -3.703125 L 6.609375 -3.734375 C 6.609375 -4.015625 6.5625 -4.28125 6.46875 -4.53125 C 6.375 -4.78125 6.238281 -5 6.0625 -5.1875 C 5.882812 -5.375 5.671875 -5.523438 5.421875 -5.640625 C 5.179688 -5.753906 4.921875 -5.8125 4.640625 -5.8125 C 4.328125 -5.8125 4.050781 -5.753906 3.8125 -5.640625 C 3.570312 -5.535156 3.367188 -5.390625 3.203125 -5.203125 C 3.035156 -5.015625 2.90625 -4.796875 2.8125 -4.546875 C 2.726562 -4.304688 2.6875 -4.046875 2.6875 -3.765625 L 2.6875 -3.734375 C 2.6875 -3.453125 2.734375 -3.1875 2.828125 -2.9375 C 2.921875 -2.695312 3.054688 -2.476562 3.234375 -2.28125 C 3.410156 -2.09375 3.617188 -1.941406 3.859375 -1.828125 C 4.097656 -1.722656 4.363281 -1.671875 4.65625 -1.671875 Z M 4.65625 -1.671875 "/></g></g></g><g fill="#6bac47" fill-opacity="1"><g transform="translate(59.817627, 106.550022)"><g/></g></g><g fill="#6bac47" fill-opacity="1"><g transform="translate(64.015285, 106.550022)"><g><path d="M 1.171875 -9.796875 L 5 -9.796875 C 5.757812 -9.796875 6.457031 -9.671875 7.09375 -9.421875 C 7.738281 -9.179688 8.289062 -8.835938 8.75 -8.390625 C 9.21875 -7.953125 9.578125 -7.4375 9.828125 -6.84375 C 10.078125 -6.257812 10.203125 -5.617188 10.203125 -4.921875 L 10.203125 -4.90625 C 10.203125 -4.207031 10.078125 -3.5625 9.828125 -2.96875 C 9.578125 -2.375 9.21875 -1.851562 8.75 -1.40625 C 8.289062 -0.96875 7.738281 -0.625 7.09375 -0.375 C 6.457031 -0.125 5.757812 0 5 0 L 1.171875 0 Z M 3.328125 -7.859375 L 3.328125 -1.953125 L 5 -1.953125 C 5.4375 -1.953125 5.835938 -2.019531 6.203125 -2.15625 C 6.566406 -2.289062 6.875 -2.488281 7.125 -2.75 C 7.382812 -3.019531 7.585938 -3.332031 7.734375 -3.6875 C 7.878906 -4.039062 7.953125 -4.4375 7.953125 -4.875 L 7.953125 -4.90625 C 7.953125 -5.332031 7.878906 -5.726562 7.734375 -6.09375 C 7.585938 -6.457031 7.382812 -6.769531 7.125 -7.03125 C 6.875 -7.289062 6.566406 -7.492188 6.203125 -7.640625 C 5.835938 -7.785156 5.4375 -7.859375 5 -7.859375 Z M 3.328125 -7.859375 "/></g></g></g><g fill="#6bac47" fill-opacity="1"><g transform="translate(74.957175, 106.550022)"><g><path d="M 1.171875 -9.796875 L 5.71875 -9.796875 C 6.851562 -9.796875 7.707031 -9.507812 8.28125 -8.9375 C 8.726562 -8.488281 8.953125 -7.929688 8.953125 -7.265625 L 8.953125 -7.234375 C 8.953125 -6.953125 8.914062 -6.703125 8.84375 -6.484375 C 8.78125 -6.273438 8.691406 -6.082031 8.578125 -5.90625 C 8.460938 -5.738281 8.328125 -5.585938 8.171875 -5.453125 C 8.015625 -5.328125 7.847656 -5.21875 7.671875 -5.125 C 8.242188 -4.90625 8.691406 -4.613281 9.015625 -4.25 C 9.335938 -3.882812 9.5 -3.375 9.5 -2.71875 L 9.5 -2.6875 C 9.5 -2.238281 9.410156 -1.847656 9.234375 -1.515625 C 9.066406 -1.179688 8.820312 -0.898438 8.5 -0.671875 C 8.175781 -0.453125 7.785156 -0.285156 7.328125 -0.171875 C 6.878906 -0.0546875 6.382812 0 5.84375 0 L 1.171875 0 Z M 6.8125 -6.90625 C 6.8125 -7.226562 6.691406 -7.472656 6.453125 -7.640625 C 6.210938 -7.816406 5.863281 -7.90625 5.40625 -7.90625 L 3.28125 -7.90625 L 3.28125 -5.84375 L 5.265625 -5.84375 C 5.742188 -5.84375 6.117188 -5.921875 6.390625 -6.078125 C 6.671875 -6.242188 6.8125 -6.507812 6.8125 -6.875 Z M 7.359375 -2.984375 C 7.359375 -3.304688 7.234375 -3.5625 6.984375 -3.75 C 6.734375 -3.945312 6.328125 -4.046875 5.765625 -4.046875 L 3.28125 -4.046875 L 3.28125 -1.890625 L 5.84375 -1.890625 C 6.3125 -1.890625 6.679688 -1.972656 6.953125 -2.140625 C 7.222656 -2.316406 7.359375 -2.585938 7.359375 -2.953125 Z M 7.359375 -2.984375 "/></g></g></g></svg>