<svg xmlns="http://www.w3.org/2000/svg" xmlns:xlink="http://www.w3.org/1999/xlink" width="128" zoomAndPan="magnify" viewBox="0 0 96 119.999999" height="160" preserveAspectRatio="xMidYMid meet" version="1.0"><defs><g/><clipPath id="2ecf1b0dc5"><path d="M 9.601562 55 L 42 55 L 42 70.664062 L 9.601562 70.664062 Z M 9.601562 55 " clip-rule="nonzero"/></clipPath></defs><rect x="-9.6" width="115.2" fill="#ffffff" y="-12" height="143.999998" fill-opacity="1"/><rect x="-9.6" width="115.2" fill="#ffffff" y="-12" height="143.999998" fill-opacity="1"/><rect x="-9.6" width="115.2" fill="#002638" y="-12" height="143.999998" fill-opacity="1"/><g clip-path="url(#2ecf1b0dc5)"><path fill="#00618a" d="M 9.882812 67.164062 L 12.382812 67.164062 L 12.382812 57.214844 L 16.253906 65.894531 C 16.710938 66.9375 17.339844 67.316406 18.566406 67.316406 C 19.792969 67.316406 20.394531 66.941406 20.851562 65.894531 L 24.722656 57.214844 L 24.722656 67.167969 L 27.226562 67.167969 L 27.226562 57.230469 C 27.226562 56.261719 26.839844 55.792969 26.046875 55.550781 C 24.144531 54.953125 22.871094 55.46875 22.292969 56.761719 L 18.492188 65.328125 L 14.8125 56.757812 C 14.257812 55.464844 12.960938 54.949219 11.058594 55.546875 C 10.265625 55.789062 9.882812 56.257812 9.882812 57.226562 Z M 29.304688 59.0625 L 31.804688 59.0625 L 31.804688 64.546875 C 31.78125 64.847656 31.902344 65.546875 33.273438 65.566406 C 33.972656 65.578125 38.667969 65.566406 38.710938 65.566406 L 38.710938 59.035156 L 41.21875 59.035156 C 41.230469 59.035156 41.214844 67.941406 41.214844 67.980469 C 41.230469 70.175781 38.511719 70.652344 37.257812 70.691406 L 29.359375 70.691406 L 29.359375 68.992188 L 37.273438 68.992188 C 38.882812 68.820312 38.691406 68.015625 38.691406 67.742188 L 38.691406 67.082031 L 33.375 67.082031 C 30.902344 67.058594 29.328125 65.972656 29.308594 64.71875 C 29.304688 64.609375 29.359375 59.117188 29.304688 59.0625 Z M 29.304688 59.0625 " fill-opacity="1" fill-rule="nonzero"/></g><path fill="#e48e00" d="M 43.148438 67.164062 L 50.339844 67.164062 C 51.179688 67.164062 52 66.988281 52.648438 66.679688 C 53.730469 66.179688 54.261719 65.5 54.261719 64.613281 L 54.261719 62.769531 C 54.261719 62.042969 53.660156 61.363281 52.480469 60.914062 C 51.855469 60.667969 51.085938 60.539062 50.339844 60.539062 L 47.308594 60.539062 C 46.300781 60.539062 45.816406 60.234375 45.699219 59.554688 C 45.671875 59.472656 45.671875 59.40625 45.671875 59.328125 L 45.671875 58.179688 C 45.671875 58.117188 45.671875 58.050781 45.699219 57.972656 C 45.816406 57.453125 46.082031 57.308594 46.972656 57.222656 C 47.046875 57.222656 47.140625 57.207031 47.214844 57.207031 L 54.359375 57.207031 L 54.359375 55.527344 L 47.332031 55.527344 C 46.324219 55.527344 45.792969 55.59375 45.3125 55.738281 C 43.820312 56.207031 43.167969 56.953125 43.167969 58.246094 L 43.167969 59.714844 C 43.167969 60.847656 44.445312 61.816406 46.585938 62.042969 C 46.828125 62.058594 47.066406 62.074219 47.308594 62.074219 L 49.90625 62.074219 C 50 62.074219 50.097656 62.074219 50.171875 62.09375 C 50.964844 62.15625 51.300781 62.300781 51.542969 62.59375 C 51.691406 62.742188 51.734375 62.882812 51.734375 63.042969 L 51.734375 64.511719 C 51.734375 64.691406 51.613281 64.917969 51.375 65.109375 C 51.15625 65.304688 50.796875 65.433594 50.316406 65.464844 C 50.21875 65.464844 50.144531 65.480469 50.050781 65.480469 L 43.144531 65.480469 L 43.144531 67.160156 Z M 69.867188 64.242188 C 69.867188 65.96875 71.140625 66.941406 73.714844 67.132812 C 73.957031 67.152344 74.195312 67.164062 74.4375 67.164062 L 80.957031 67.164062 L 80.957031 65.484375 L 74.390625 65.484375 C 72.921875 65.484375 72.367188 65.113281 72.367188 64.226562 L 72.367188 55.53125 L 69.867188 55.53125 Z M 55.855469 64.328125 L 55.855469 58.335938 C 55.855469 56.816406 56.917969 55.890625 59.015625 55.601562 C 59.238281 55.570312 59.464844 55.550781 59.691406 55.550781 L 64.4375 55.550781 C 64.671875 55.550781 64.90625 55.570312 65.136719 55.601562 C 67.234375 55.890625 68.296875 56.816406 68.296875 58.335938 L 68.296875 64.328125 C 68.296875 65.5625 67.84375 66.222656 66.808594 66.65625 L 69.269531 68.898438 L 66.367188 68.898438 L 64.371094 67.082031 L 62.367188 67.210938 L 59.691406 67.210938 C 59.230469 67.210938 58.75 67.148438 58.21875 67 C 56.625 66.5625 55.859375 65.722656 55.859375 64.328125 Z M 58.558594 64.179688 C 58.558594 64.261719 58.582031 64.339844 58.605469 64.4375 C 58.753906 65.136719 59.402344 65.523438 60.386719 65.523438 L 62.660156 65.523438 L 60.570312 63.625 L 63.476562 63.625 L 65.292969 65.28125 C 65.628906 65.101562 65.847656 64.824219 65.921875 64.472656 C 65.945312 64.390625 65.945312 64.308594 65.945312 64.226562 L 65.945312 58.484375 C 65.945312 58.417969 65.945312 58.335938 65.921875 58.257812 C 65.773438 57.609375 65.128906 57.238281 64.164062 57.238281 L 60.390625 57.238281 C 59.28125 57.238281 58.5625 57.722656 58.5625 58.484375 L 58.5625 64.183594 Z M 58.558594 64.179688 " fill-opacity="1" fill-rule="nonzero"/><path fill="#00618a" d="M 83.15625 52.742188 C 81.617188 52.699219 80.445312 52.84375 79.441406 53.273438 C 79.15625 53.394531 78.699219 53.394531 78.652344 53.757812 C 78.808594 53.921875 78.835938 54.167969 78.957031 54.371094 C 79.199219 54.765625 79.605469 55.289062 79.964844 55.5625 C 80.359375 55.863281 80.765625 56.183594 81.1875 56.445312 C 81.941406 56.90625 82.78125 57.171875 83.507812 57.632812 C 83.933594 57.90625 84.359375 58.25 84.773438 58.558594 C 84.980469 58.710938 85.121094 58.949219 85.386719 59.042969 L 85.386719 59 C 85.246094 58.820312 85.210938 58.570312 85.082031 58.382812 L 84.511719 57.808594 C 83.957031 57.0625 83.25 56.414062 82.5 55.871094 C 81.902344 55.4375 80.5625 54.855469 80.3125 54.152344 L 80.269531 54.109375 C 80.695312 54.058594 81.191406 53.90625 81.582031 53.800781 C 82.242188 53.621094 82.828125 53.667969 83.507812 53.492188 L 84.425781 53.226562 L 84.425781 53.050781 C 84.082031 52.695312 83.835938 52.226562 83.464844 51.90625 C 82.484375 51.066406 81.414062 50.226562 80.316406 49.527344 C 79.707031 49.136719 78.953125 48.886719 78.304688 48.554688 C 78.085938 48.445312 77.703125 48.386719 77.5625 48.203125 C 77.222656 47.765625 77.035156 47.214844 76.773438 46.707031 C 76.226562 45.644531 75.6875 44.480469 75.199219 43.359375 C 74.867188 42.597656 74.652344 41.84375 74.238281 41.15625 C 72.253906 37.867188 70.113281 35.882812 66.804688 33.929688 C 66.097656 33.515625 65.25 33.351562 64.355469 33.136719 L 62.910156 33.050781 C 62.617188 32.925781 62.3125 32.5625 62.035156 32.386719 C 60.941406 31.691406 58.125 30.171875 57.3125 32.164062 C 56.800781 33.425781 58.082031 34.652344 58.539062 35.292969 C 58.859375 35.742188 59.269531 36.242188 59.5 36.746094 C 59.652344 37.078125 59.679688 37.410156 59.808594 37.761719 C 60.125 38.621094 60.402344 39.5625 60.8125 40.359375 C 61.019531 40.765625 61.25 41.1875 61.511719 41.550781 C 61.671875 41.773438 61.949219 41.871094 61.992188 42.210938 C 61.722656 42.59375 61.707031 43.183594 61.554688 43.664062 C 60.871094 45.835938 61.128906 48.535156 62.125 50.144531 C 62.429688 50.636719 63.148438 51.695312 64.136719 51.289062 C 65 50.933594 64.804688 49.835938 65.054688 48.863281 C 65.109375 48.644531 65.074219 48.484375 65.183594 48.335938 L 65.183594 48.378906 L 65.972656 49.964844 C 66.554688 50.910156 67.589844 51.898438 68.464844 52.566406 C 68.917969 52.914062 69.28125 53.511719 69.863281 53.710938 L 69.863281 53.667969 L 69.820312 53.667969 C 69.707031 53.488281 69.527344 53.414062 69.382812 53.273438 C 69.039062 52.933594 68.660156 52.515625 68.378906 52.125 C 67.578125 51.035156 66.875 49.84375 66.234375 48.601562 C 65.929688 48.007812 65.660156 47.355469 65.402344 46.75 C 65.304688 46.519531 65.304688 46.167969 65.097656 46.046875 C 64.816406 46.488281 64.398438 46.847656 64.179688 47.367188 C 63.828125 48.203125 63.785156 49.21875 63.65625 50.277344 C 63.578125 50.304688 63.613281 50.285156 63.566406 50.320312 C 62.957031 50.171875 62.746094 49.539062 62.519531 49 C 61.945312 47.628906 61.839844 45.421875 62.34375 43.84375 C 62.472656 43.433594 63.0625 42.148438 62.824219 41.773438 C 62.710938 41.394531 62.335938 41.175781 62.125 40.890625 C 61.863281 40.535156 61.605469 40.066406 61.425781 39.65625 C 60.957031 38.589844 60.738281 37.390625 60.242188 36.308594 C 60.007812 35.792969 59.609375 35.269531 59.28125 34.8125 C 58.917969 34.304688 58.511719 33.929688 58.234375 33.320312 C 58.132812 33.101562 57.996094 32.75 58.144531 32.527344 C 58.175781 32.382812 58.265625 32.292969 58.40625 32.261719 C 58.660156 32.066406 59.367188 32.328125 59.632812 32.4375 C 60.332031 32.730469 60.917969 33.011719 61.511719 33.40625 C 61.796875 33.59375 62.085938 33.964844 62.429688 34.070312 L 62.824219 34.070312 C 63.441406 34.210938 64.128906 34.113281 64.703125 34.289062 C 65.71875 34.601562 66.632812 35.085938 67.457031 35.609375 C 69.980469 37.214844 72.039062 39.496094 73.449219 42.222656 C 73.675781 42.664062 73.773438 43.082031 73.972656 43.546875 C 74.378906 44.480469 74.886719 45.449219 75.285156 46.367188 C 75.6875 47.28125 76.074219 48.203125 76.640625 48.964844 C 76.9375 49.363281 78.089844 49.582031 78.609375 49.800781 C 78.976562 49.957031 79.574219 50.121094 79.921875 50.332031 C 80.582031 50.734375 81.226562 51.210938 81.847656 51.652344 C 82.15625 51.875 83.109375 52.355469 83.15625 52.753906 Z M 83.15625 52.742188 " fill-opacity="1" fill-rule="nonzero"/><path fill="#00618a" d="M 63.613281 35.957031 C 63.292969 35.949219 63.066406 35.992188 62.824219 36.042969 L 62.824219 36.085938 L 62.867188 36.085938 C 63.023438 36.40625 63.292969 36.609375 63.480469 36.882812 L 63.917969 37.804688 L 63.960938 37.761719 C 64.234375 37.570312 64.355469 37.261719 64.355469 36.792969 C 64.246094 36.675781 64.230469 36.53125 64.136719 36.394531 C 64.011719 36.210938 63.765625 36.109375 63.613281 35.953125 Z M 63.613281 35.957031 " fill-opacity="1" fill-rule="evenodd"/><path fill="#e48e00" d="M 82.132812 65.4375 C 82.132812 66.546875 83.003906 67.296875 83.976562 67.296875 C 84.949219 67.296875 85.820312 66.546875 85.820312 65.4375 C 85.820312 64.328125 84.949219 63.578125 83.976562 63.578125 C 83.003906 63.578125 82.132812 64.328125 82.132812 65.4375 Z M 85.40625 65.4375 C 85.40625 66.28125 84.769531 66.910156 83.976562 66.910156 C 83.175781 66.910156 82.542969 66.28125 82.542969 65.4375 C 82.542969 64.59375 83.175781 63.964844 83.976562 63.964844 C 84.769531 63.964844 85.40625 64.59375 85.40625 65.4375 Z M 84.472656 66.496094 L 84.886719 66.496094 L 84.28125 65.566406 C 84.605469 65.53125 84.851562 65.375 84.851562 64.988281 C 84.851562 64.554688 84.582031 64.378906 84.058594 64.378906 L 83.238281 64.378906 L 83.238281 66.5 L 83.59375 66.5 L 83.59375 65.582031 L 83.921875 65.582031 L 84.472656 66.5 Z M 83.59375 65.285156 L 83.59375 64.675781 L 84 64.675781 C 84.210938 64.675781 84.46875 64.714844 84.46875 64.960938 C 84.46875 65.257812 84.238281 65.285156 83.972656 65.285156 Z M 83.59375 65.285156 " fill-opacity="1" fill-rule="evenodd"/><g fill="#00618a" fill-opacity="1"><g transform="translate(20.875779, 106.550022)"><g><path d="M 1.171875 -9.796875 L 3.5 -9.796875 L 6.078125 -5.65625 L 8.65625 -9.796875 L 10.96875 -9.796875 L 10.96875 0 L 8.828125 0 L 8.828125 -6.390625 L 6.078125 -2.21875 L 6.015625 -2.21875 L 3.296875 -6.359375 L 3.296875 0 L 1.171875 0 Z M 1.171875 -9.796875 "/></g></g></g><g fill="#00618a" fill-opacity="1"><g transform="translate(33.021004, 106.550022)"><g><path d="M 5.875 -7.5 L 8.09375 -7.5 L 5.203125 0.1875 C 5.066406 0.5625 4.914062 0.878906 4.75 1.140625 C 4.59375 1.410156 4.421875 1.628906 4.234375 1.796875 C 4.046875 1.972656 3.828125 2.097656 3.578125 2.171875 C 3.335938 2.242188 3.0625 2.28125 2.75 2.28125 C 2.351562 2.28125 2.003906 2.234375 1.703125 2.140625 C 1.410156 2.046875 1.128906 1.921875 0.859375 1.765625 L 1.5625 0.21875 C 1.707031 0.300781 1.859375 0.367188 2.015625 0.421875 C 2.179688 0.484375 2.335938 0.515625 2.484375 0.515625 C 2.671875 0.515625 2.816406 0.476562 2.921875 0.40625 C 3.023438 0.34375 3.125 0.21875 3.21875 0.03125 L 0.28125 -7.5 L 2.53125 -7.5 L 4.234375 -2.390625 Z M 5.875 -7.5 "/></g></g></g><g fill="#00618a" fill-opacity="1"><g transform="translate(41.41632, 106.550022)"><g/></g></g><g fill="#00618a" fill-opacity="1"><g transform="translate(45.613979, 106.550022)"><g><path d="M 4.65625 0.140625 C 3.914062 0.140625 3.1875 0.015625 2.46875 -0.234375 C 1.75 -0.492188 1.09375 -0.890625 0.5 -1.421875 L 1.78125 -2.953125 C 2.226562 -2.585938 2.6875 -2.296875 3.15625 -2.078125 C 3.625 -1.867188 4.140625 -1.765625 4.703125 -1.765625 C 5.148438 -1.765625 5.5 -1.84375 5.75 -2 C 6 -2.164062 6.125 -2.394531 6.125 -2.6875 L 6.125 -2.71875 C 6.125 -2.851562 6.097656 -2.972656 6.046875 -3.078125 C 5.992188 -3.191406 5.894531 -3.296875 5.75 -3.390625 C 5.601562 -3.484375 5.398438 -3.578125 5.140625 -3.671875 C 4.890625 -3.765625 4.554688 -3.863281 4.140625 -3.96875 C 3.648438 -4.082031 3.203125 -4.210938 2.796875 -4.359375 C 2.398438 -4.515625 2.0625 -4.703125 1.78125 -4.921875 C 1.5 -5.140625 1.28125 -5.410156 1.125 -5.734375 C 0.96875 -6.066406 0.890625 -6.472656 0.890625 -6.953125 L 0.890625 -6.984375 C 0.890625 -7.429688 0.972656 -7.832031 1.140625 -8.1875 C 1.316406 -8.550781 1.554688 -8.863281 1.859375 -9.125 C 2.160156 -9.382812 2.519531 -9.582031 2.9375 -9.71875 C 3.351562 -9.863281 3.816406 -9.9375 4.328125 -9.9375 C 5.046875 -9.9375 5.703125 -9.828125 6.296875 -9.609375 C 6.898438 -9.398438 7.457031 -9.09375 7.96875 -8.6875 L 6.84375 -7.0625 C 6.40625 -7.363281 5.972656 -7.597656 5.546875 -7.765625 C 5.128906 -7.941406 4.710938 -8.03125 4.296875 -8.03125 C 3.878906 -8.03125 3.5625 -7.945312 3.34375 -7.78125 C 3.132812 -7.625 3.03125 -7.425781 3.03125 -7.1875 L 3.03125 -7.15625 C 3.03125 -7 3.0625 -6.859375 3.125 -6.734375 C 3.1875 -6.617188 3.296875 -6.515625 3.453125 -6.421875 C 3.617188 -6.328125 3.835938 -6.238281 4.109375 -6.15625 C 4.378906 -6.070312 4.726562 -5.972656 5.15625 -5.859375 C 5.644531 -5.734375 6.082031 -5.585938 6.46875 -5.421875 C 6.863281 -5.265625 7.191406 -5.070312 7.453125 -4.84375 C 7.722656 -4.613281 7.925781 -4.34375 8.0625 -4.03125 C 8.195312 -3.71875 8.265625 -3.347656 8.265625 -2.921875 L 8.265625 -2.890625 C 8.265625 -2.410156 8.175781 -1.976562 8 -1.59375 C 7.820312 -1.21875 7.570312 -0.898438 7.25 -0.640625 C 6.9375 -0.390625 6.554688 -0.195312 6.109375 -0.0625 C 5.671875 0.0703125 5.1875 0.140625 4.65625 0.140625 Z M 4.65625 0.140625 "/></g></g></g><g fill="#00618a" fill-opacity="1"><g transform="translate(54.56898, 106.550022)"><g><path d="M 9.921875 0.296875 L 8.84375 -0.671875 C 8.425781 -0.398438 7.972656 -0.191406 7.484375 -0.046875 C 7.003906 0.0976562 6.488281 0.171875 5.9375 0.171875 C 5.175781 0.171875 4.476562 0.0390625 3.84375 -0.21875 C 3.207031 -0.488281 2.660156 -0.847656 2.203125 -1.296875 C 1.742188 -1.753906 1.382812 -2.289062 1.125 -2.90625 C 0.863281 -3.519531 0.734375 -4.175781 0.734375 -4.875 L 0.734375 -4.90625 C 0.734375 -5.601562 0.863281 -6.253906 1.125 -6.859375 C 1.394531 -7.472656 1.757812 -8.007812 2.21875 -8.46875 C 2.675781 -8.9375 3.222656 -9.300781 3.859375 -9.5625 C 4.503906 -9.832031 5.207031 -9.96875 5.96875 -9.96875 C 6.71875 -9.96875 7.410156 -9.832031 8.046875 -9.5625 C 8.679688 -9.300781 9.226562 -8.941406 9.6875 -8.484375 C 10.15625 -8.035156 10.515625 -7.503906 10.765625 -6.890625 C 11.023438 -6.285156 11.15625 -5.628906 11.15625 -4.921875 L 11.15625 -4.90625 C 11.15625 -4.375 11.078125 -3.875 10.921875 -3.40625 C 10.773438 -2.9375 10.566406 -2.5 10.296875 -2.09375 L 11.296875 -1.234375 Z M 5.96875 -1.8125 C 6.207031 -1.8125 6.429688 -1.832031 6.640625 -1.875 C 6.847656 -1.925781 7.046875 -2 7.234375 -2.09375 L 5.65625 -3.4375 L 7.03125 -4.984375 L 8.640625 -3.53125 C 8.816406 -3.9375 8.90625 -4.382812 8.90625 -4.875 L 8.90625 -4.90625 C 8.90625 -5.320312 8.832031 -5.71875 8.6875 -6.09375 C 8.539062 -6.46875 8.332031 -6.789062 8.0625 -7.0625 C 7.800781 -7.34375 7.488281 -7.566406 7.125 -7.734375 C 6.757812 -7.898438 6.363281 -7.984375 5.9375 -7.984375 C 5.5 -7.984375 5.097656 -7.898438 4.734375 -7.734375 C 4.378906 -7.578125 4.070312 -7.359375 3.8125 -7.078125 C 3.5625 -6.796875 3.363281 -6.472656 3.21875 -6.109375 C 3.070312 -5.742188 3 -5.347656 3 -4.921875 L 3 -4.90625 C 3 -4.476562 3.070312 -4.078125 3.21875 -3.703125 C 3.363281 -3.335938 3.566406 -3.015625 3.828125 -2.734375 C 4.097656 -2.453125 4.410156 -2.226562 4.765625 -2.0625 C 5.128906 -1.894531 5.53125 -1.8125 5.96875 -1.8125 Z M 5.96875 -1.8125 "/></g></g></g><g fill="#00618a" fill-opacity="1"><g transform="translate(66.462343, 106.550022)"><g><path d="M 1.171875 -9.796875 L 3.328125 -9.796875 L 3.328125 -1.953125 L 8.21875 -1.953125 L 8.21875 0 L 1.171875 0 Z M 1.171875 -9.796875 "/></g></g></g></svg>