<svg xmlns="http://www.w3.org/2000/svg" xmlns:xlink="http://www.w3.org/1999/xlink" width="128" zoomAndPan="magnify" viewBox="0 0 96 119.999999" height="160" preserveAspectRatio="xMidYMid meet" version="1.0"><defs><clipPath id="0d2c07e632"><path d="M 9.601562 9.601562 L 86.101562 9.601562 L 86.101562 86.101562 L 9.601562 86.101562 Z M 9.601562 9.601562 " clip-rule="nonzero"/></clipPath><clipPath id="96d339da68"><path d="M 23.503906 88.355469 L 72.253906 88.355469 L 72.253906 117.605469 L 23.503906 117.605469 Z M 23.503906 88.355469 " clip-rule="nonzero"/></clipPath></defs><rect x="-9.6" width="115.2" fill="#ffffff" y="-12" height="143.999998" fill-opacity="1"/><rect x="-9.6" width="115.2" fill="#ffffff" y="-12" height="143.999998" fill-opacity="1"/><g clip-path="url(#0d2c07e632)"><path fill="#000000" d="M 45.34375 9.621094 C 45.179688 9.636719 44.65625 9.6875 44.1875 9.726562 C 33.320312 10.703125 23.144531 16.566406 16.695312 25.578125 C 13.105469 30.585938 10.8125 36.269531 9.945312 42.289062 C 9.636719 44.386719 9.601562 45.007812 9.601562 47.859375 C 9.601562 50.707031 9.636719 51.328125 9.945312 53.429688 C 12.023438 67.789062 22.246094 79.859375 36.109375 84.328125 C 38.59375 85.128906 41.210938 85.675781 44.1875 86.003906 C 45.34375 86.132812 50.355469 86.132812 51.515625 86.003906 C 56.652344 85.4375 61.003906 84.164062 65.296875 81.976562 C 65.953125 81.636719 66.082031 81.546875 65.992188 81.472656 C 65.933594 81.429688 63.128906 77.667969 59.761719 73.121094 L 53.644531 64.859375 L 45.980469 53.515625 C 41.761719 47.28125 38.292969 42.183594 38.261719 42.183594 C 38.234375 42.175781 38.203125 47.214844 38.1875 53.367188 C 38.164062 64.140625 38.160156 64.574219 38.023438 64.828125 C 37.828125 65.195312 37.679688 65.347656 37.367188 65.511719 C 37.125 65.628906 36.917969 65.652344 35.789062 65.652344 L 34.496094 65.652344 L 34.148438 65.4375 C 33.925781 65.292969 33.761719 65.105469 33.648438 64.890625 L 33.492188 64.554688 L 33.507812 49.5625 L 33.53125 34.5625 L 33.761719 34.273438 C 33.882812 34.113281 34.136719 33.914062 34.316406 33.816406 C 34.621094 33.667969 34.742188 33.652344 36.035156 33.652344 C 37.558594 33.652344 37.816406 33.710938 38.210938 34.144531 C 38.324219 34.265625 42.472656 40.515625 47.4375 48.042969 C 52.402344 55.574219 59.195312 65.855469 62.53125 70.902344 L 68.585938 80.074219 L 68.894531 79.875 C 71.609375 78.109375 74.480469 75.597656 76.753906 72.980469 C 81.589844 67.425781 84.710938 60.652344 85.757812 53.429688 C 86.0625 51.328125 86.101562 50.707031 86.101562 47.859375 C 86.101562 45.007812 86.0625 44.386719 85.757812 42.289062 C 83.675781 27.925781 73.453125 15.855469 59.589844 11.386719 C 57.144531 10.59375 54.542969 10.046875 51.625 9.71875 C 50.910156 9.644531 45.964844 9.5625 45.34375 9.621094 Z M 61.003906 32.753906 C 61.363281 32.933594 61.65625 33.277344 61.757812 33.636719 C 61.820312 33.832031 61.832031 37.988281 61.820312 47.355469 L 61.796875 60.800781 L 59.425781 57.167969 L 57.046875 53.53125 L 57.046875 43.761719 C 57.046875 37.441406 57.078125 33.890625 57.121094 33.71875 C 57.242188 33.300781 57.503906 32.972656 57.863281 32.777344 C 58.167969 32.621094 58.28125 32.605469 59.457031 32.605469 C 60.5625 32.605469 60.757812 32.621094 61.003906 32.753906 Z M 61.003906 32.753906 " fill-opacity="1" fill-rule="nonzero"/></g><g clip-path="url(#96d339da68)"><path fill="#000000" d="M 35.011719 95.984375 L 44.203125 95.984375 L 44.203125 96.710938 L 35.855469 96.710938 L 35.855469 102.183594 L 43.707031 102.183594 L 43.707031 102.910156 L 35.855469 102.910156 L 35.855469 108.914062 L 44.296875 108.914062 L 44.296875 109.640625 L 35.011719 109.640625 Z M 45.027344 95.984375 L 46.003906 95.984375 L 50.332031 101.992188 L 54.753906 95.984375 L 60.769531 88.355469 L 50.886719 102.621094 L 55.980469 109.640625 L 54.964844 109.640625 L 50.332031 103.253906 L 45.675781 109.640625 L 44.683594 109.640625 L 49.8125 102.621094 Z M 56.34375 96.710938 L 56.34375 95.984375 L 66.816406 95.984375 L 66.816406 96.710938 L 61.992188 96.710938 L 61.992188 109.640625 L 61.148438 109.640625 L 61.148438 96.710938 Z M 23.511719 95.984375 L 24.566406 95.984375 L 39.089844 117.605469 L 33.085938 109.640625 L 24.394531 97.019531 L 24.355469 109.640625 L 23.511719 109.640625 Z M 66.734375 108.695312 C 66.5625 108.695312 66.433594 108.5625 66.433594 108.390625 C 66.433594 108.21875 66.5625 108.085938 66.734375 108.085938 C 66.90625 108.085938 67.035156 108.21875 67.035156 108.390625 C 67.035156 108.5625 66.90625 108.695312 66.734375 108.695312 Z M 67.558594 107.894531 L 68.011719 107.894531 C 68.015625 108.136719 68.195312 108.300781 68.457031 108.300781 C 68.75 108.300781 68.917969 108.125 68.917969 107.796875 L 68.917969 105.714844 L 69.375 105.714844 L 69.375 107.800781 C 69.375 108.390625 69.03125 108.730469 68.460938 108.730469 C 67.929688 108.730469 67.558594 108.402344 67.558594 107.894531 Z M 69.976562 107.867188 L 70.433594 107.867188 C 70.46875 108.148438 70.746094 108.324219 71.140625 108.324219 C 71.507812 108.324219 71.78125 108.136719 71.78125 107.875 C 71.78125 107.652344 71.609375 107.515625 71.214844 107.421875 L 70.835938 107.332031 C 70.300781 107.207031 70.058594 106.949219 70.058594 106.515625 C 70.058594 105.992188 70.488281 105.644531 71.132812 105.644531 C 71.734375 105.644531 72.171875 105.992188 72.199219 106.488281 L 71.75 106.488281 C 71.707031 106.21875 71.46875 106.046875 71.125 106.046875 C 70.761719 106.046875 70.523438 106.222656 70.523438 106.488281 C 70.523438 106.695312 70.679688 106.816406 71.0625 106.90625 L 71.390625 106.988281 C 71.996094 107.128906 72.246094 107.371094 72.246094 107.816406 C 72.246094 108.378906 71.804688 108.730469 71.105469 108.730469 C 70.449219 108.730469 70.007812 108.394531 69.976562 107.867188 Z M 69.976562 107.867188 " fill-opacity="1" fill-rule="nonzero"/></g></svg>