<svg xmlns="http://www.w3.org/2000/svg" xmlns:xlink="http://www.w3.org/1999/xlink" width="128" zoomAndPan="magnify" viewBox="0 0 96 119.999999" height="160" preserveAspectRatio="xMidYMid meet" version="1.0"><defs><g/><clipPath id="70ace77b20"><path d="M 9.601562 9.601562 L 86 9.601562 L 86 94 L 9.601562 94 Z M 9.601562 9.601562 " clip-rule="nonzero"/></clipPath></defs><rect x="-9.6" width="115.2" fill="#ffffff" y="-12" height="143.999998" fill-opacity="1"/><rect x="-9.6" width="115.2" fill="#ffffff" y="-12" height="143.999998" fill-opacity="1"/><rect x="-9.6" width="115.2" fill="#38501d" y="-12" height="143.999998" fill-opacity="1"/><g clip-path="url(#70ace77b20)"><path fill="#8cc84b" d="M 44.320312 10.726562 C 46.421875 9.53125 49.101562 9.527344 51.148438 10.726562 L 82.523438 28.503906 C 84.488281 29.613281 85.800781 31.8125 85.78125 34.085938 L 85.78125 69.726562 C 85.792969 72.097656 84.351562 74.34375 82.28125 75.429688 L 51.074219 93.125 C 50.542969 93.421875 49.980469 93.640625 49.386719 93.785156 C 48.792969 93.933594 48.191406 93.996094 47.582031 93.980469 C 46.972656 93.960938 46.378906 93.863281 45.792969 93.6875 C 45.210938 93.507812 44.660156 93.257812 44.144531 92.933594 L 34.777344 87.492188 C 34.140625 87.109375 33.421875 86.808594 32.972656 86.1875 C 33.371094 85.648438 34.082031 85.578125 34.65625 85.339844 C 35.960938 84.925781 37.152344 84.285156 38.351562 83.609375 C 38.652344 83.398438 39.023438 83.476562 39.3125 83.667969 L 47.296875 88.308594 C 47.867188 88.640625 48.445312 88.203125 48.933594 87.925781 L 79.578125 70.546875 C 79.957031 70.359375 80.164062 69.960938 80.132812 69.542969 L 80.132812 34.242188 C 80.175781 33.769531 79.90625 33.335938 79.476562 33.140625 L 48.347656 15.523438 C 48.164062 15.398438 47.960938 15.332031 47.738281 15.332031 C 47.515625 15.332031 47.3125 15.394531 47.128906 15.523438 L 16.042969 33.175781 C 15.625 33.371094 15.335938 33.796875 15.386719 34.273438 L 15.386719 69.570312 C 15.351562 69.988281 15.570312 70.382812 15.953125 70.5625 L 24.257812 75.273438 C 25.820312 76.121094 27.734375 76.59375 29.453125 75.972656 C 29.828125 75.832031 30.171875 75.636719 30.488281 75.386719 C 30.804688 75.140625 31.078125 74.847656 31.304688 74.515625 C 31.535156 74.183594 31.707031 73.824219 31.828125 73.4375 C 31.945312 73.054688 32.003906 72.65625 32.003906 72.253906 L 32.011719 37.167969 C 31.972656 36.644531 32.460938 36.214844 32.964844 36.269531 L 36.957031 36.269531 C 37.480469 36.253906 37.894531 36.816406 37.824219 37.335938 L 37.816406 72.648438 C 37.816406 75.785156 36.535156 79.195312 33.648438 80.734375 C 30.09375 82.582031 25.695312 82.195312 22.179688 80.417969 L 13.25 75.453125 C 11.148438 74.398438 9.738281 72.117188 9.75 69.75 L 9.75 34.109375 C 9.753906 33.53125 9.835938 32.960938 9.992188 32.402344 C 10.144531 31.847656 10.371094 31.320312 10.667969 30.820312 C 10.964844 30.324219 11.320312 29.875 11.734375 29.472656 C 12.152344 29.074219 12.613281 28.734375 13.117188 28.457031 Z M 53.367188 35.433594 C 57.902344 35.171875 62.761719 35.261719 66.84375 37.507812 C 70.003906 39.226562 71.753906 42.839844 71.8125 46.371094 C 71.722656 46.847656 71.230469 47.113281 70.777344 47.078125 C 69.464844 47.074219 68.144531 47.097656 66.828125 47.070312 C 66.265625 47.089844 65.945312 46.574219 65.871094 46.078125 C 65.496094 44.386719 64.578125 42.714844 62.996094 41.898438 C 60.570312 40.675781 57.753906 40.738281 55.105469 40.765625 C 53.171875 40.871094 51.09375 41.035156 49.457031 42.175781 C 48.195312 43.042969 47.820312 44.816406 48.269531 46.195312 C 48.6875 47.207031 49.851562 47.53125 50.800781 47.832031 C 56.269531 49.269531 62.0625 49.152344 67.429688 51.019531 C 69.648438 51.789062 71.820312 53.289062 72.582031 55.625 C 73.574219 58.757812 73.140625 62.5 70.925781 65.015625 C 69.128906 67.085938 66.515625 68.183594 63.898438 68.820312 C 60.425781 69.601562 56.820312 69.621094 53.292969 69.269531 C 49.976562 68.890625 46.523438 68.015625 43.960938 65.742188 C 41.773438 63.832031 40.703125 60.855469 40.808594 57.980469 C 40.835938 57.496094 41.316406 57.15625 41.78125 57.199219 L 45.722656 57.199219 C 46.253906 57.160156 46.640625 57.621094 46.667969 58.121094 C 46.914062 59.707031 47.515625 61.421875 48.910156 62.34375 C 51.605469 64.09375 54.988281 63.972656 58.070312 64.023438 C 60.628906 63.910156 63.496094 63.875 65.582031 62.175781 C 66.6875 61.207031 67.011719 59.585938 66.714844 58.191406 C 66.390625 57.015625 65.136719 56.46875 64.085938 56.082031 C 58.6875 54.363281 52.832031 54.988281 47.484375 53.042969 C 45.316406 52.273438 43.214844 50.816406 42.382812 48.574219 C 41.21875 45.40625 41.753906 41.480469 44.203125 39.050781 C 46.566406 36.636719 50.035156 35.703125 53.320312 35.371094 Z M 53.367188 35.433594 " fill-opacity="1" fill-rule="nonzero"/></g><g fill="#8cc849" fill-opacity="1"><g transform="translate(15.841406, 106.550022)"><g><path d="M 1.171875 -9.796875 L 3.15625 -9.796875 L 7.75 -3.765625 L 7.75 -9.796875 L 9.890625 -9.796875 L 9.890625 0 L 8.046875 0 L 3.296875 -6.234375 L 3.296875 0 L 1.171875 0 Z M 1.171875 -9.796875 "/></g></g></g><g fill="#8cc849" fill-opacity="1"><g transform="translate(26.895231, 106.550022)"><g><path d="M 5.9375 0.171875 C 5.175781 0.171875 4.476562 0.0390625 3.84375 -0.21875 C 3.207031 -0.488281 2.660156 -0.847656 2.203125 -1.296875 C 1.742188 -1.753906 1.382812 -2.289062 1.125 -2.90625 C 0.863281 -3.519531 0.734375 -4.175781 0.734375 -4.875 L 0.734375 -4.90625 C 0.734375 -5.601562 0.863281 -6.253906 1.125 -6.859375 C 1.394531 -7.472656 1.757812 -8.007812 2.21875 -8.46875 C 2.675781 -8.9375 3.222656 -9.300781 3.859375 -9.5625 C 4.503906 -9.832031 5.207031 -9.96875 5.96875 -9.96875 C 6.71875 -9.96875 7.410156 -9.832031 8.046875 -9.5625 C 8.679688 -9.300781 9.226562 -8.941406 9.6875 -8.484375 C 10.15625 -8.035156 10.515625 -7.503906 10.765625 -6.890625 C 11.023438 -6.285156 11.15625 -5.628906 11.15625 -4.921875 L 11.15625 -4.90625 C 11.15625 -4.195312 11.023438 -3.535156 10.765625 -2.921875 C 10.503906 -2.316406 10.140625 -1.78125 9.671875 -1.3125 C 9.210938 -0.851562 8.660156 -0.488281 8.015625 -0.21875 C 7.378906 0.0390625 6.6875 0.171875 5.9375 0.171875 Z M 5.96875 -1.8125 C 6.394531 -1.8125 6.789062 -1.890625 7.15625 -2.046875 C 7.519531 -2.210938 7.828125 -2.4375 8.078125 -2.71875 C 8.335938 -3 8.539062 -3.320312 8.6875 -3.6875 C 8.832031 -4.050781 8.90625 -4.445312 8.90625 -4.875 L 8.90625 -4.90625 C 8.90625 -5.320312 8.832031 -5.71875 8.6875 -6.09375 C 8.539062 -6.46875 8.332031 -6.789062 8.0625 -7.0625 C 7.800781 -7.34375 7.488281 -7.566406 7.125 -7.734375 C 6.757812 -7.898438 6.363281 -7.984375 5.9375 -7.984375 C 5.5 -7.984375 5.097656 -7.898438 4.734375 -7.734375 C 4.378906 -7.578125 4.070312 -7.359375 3.8125 -7.078125 C 3.5625 -6.796875 3.363281 -6.472656 3.21875 -6.109375 C 3.070312 -5.742188 3 -5.347656 3 -4.921875 L 3 -4.90625 C 3 -4.476562 3.070312 -4.078125 3.21875 -3.703125 C 3.363281 -3.335938 3.566406 -3.015625 3.828125 -2.734375 C 4.097656 -2.453125 4.410156 -2.226562 4.765625 -2.0625 C 5.128906 -1.894531 5.53125 -1.8125 5.96875 -1.8125 Z M 5.96875 -1.8125 "/></g></g></g><g fill="#8cc849" fill-opacity="1"><g transform="translate(38.788594, 106.550022)"><g><path d="M 1.171875 -9.796875 L 5 -9.796875 C 5.757812 -9.796875 6.457031 -9.671875 7.09375 -9.421875 C 7.738281 -9.179688 8.289062 -8.835938 8.75 -8.390625 C 9.21875 -7.953125 9.578125 -7.4375 9.828125 -6.84375 C 10.078125 -6.257812 10.203125 -5.617188 10.203125 -4.921875 L 10.203125 -4.90625 C 10.203125 -4.207031 10.078125 -3.5625 9.828125 -2.96875 C 9.578125 -2.375 9.21875 -1.851562 8.75 -1.40625 C 8.289062 -0.96875 7.738281 -0.625 7.09375 -0.375 C 6.457031 -0.125 5.757812 0 5 0 L 1.171875 0 Z M 3.328125 -7.859375 L 3.328125 -1.953125 L 5 -1.953125 C 5.4375 -1.953125 5.835938 -2.019531 6.203125 -2.15625 C 6.566406 -2.289062 6.875 -2.488281 7.125 -2.75 C 7.382812 -3.019531 7.585938 -3.332031 7.734375 -3.6875 C 7.878906 -4.039062 7.953125 -4.4375 7.953125 -4.875 L 7.953125 -4.90625 C 7.953125 -5.332031 7.878906 -5.726562 7.734375 -6.09375 C 7.585938 -6.457031 7.382812 -6.769531 7.125 -7.03125 C 6.875 -7.289062 6.566406 -7.492188 6.203125 -7.640625 C 5.835938 -7.785156 5.4375 -7.859375 5 -7.859375 Z M 3.328125 -7.859375 "/></g></g></g><g fill="#8cc849" fill-opacity="1"><g transform="translate(49.730484, 106.550022)"><g><path d="M 1.171875 -9.796875 L 8.5625 -9.796875 L 8.5625 -7.875 L 3.3125 -7.875 L 3.3125 -5.890625 L 7.9375 -5.890625 L 7.9375 -3.96875 L 3.3125 -3.96875 L 3.3125 -1.921875 L 8.640625 -1.921875 L 8.640625 0 L 1.171875 0 Z M 1.171875 -9.796875 "/></g></g></g><g fill="#8cc849" fill-opacity="1"><g transform="translate(59.105255, 106.550022)"><g/></g></g><g fill="#8cc849" fill-opacity="1"><g transform="translate(63.302913, 106.550022)"><g><path d="M 3.40625 0.140625 C 2.632812 0.140625 1.988281 -0.00390625 1.46875 -0.296875 C 0.957031 -0.585938 0.535156 -0.929688 0.203125 -1.328125 L 1.546875 -2.84375 C 1.828125 -2.53125 2.109375 -2.285156 2.390625 -2.109375 C 2.679688 -1.941406 3 -1.859375 3.34375 -1.859375 C 3.757812 -1.859375 4.082031 -1.984375 4.3125 -2.234375 C 4.539062 -2.492188 4.65625 -2.910156 4.65625 -3.484375 L 4.65625 -9.796875 L 6.875 -9.796875 L 6.875 -3.390625 C 6.875 -2.796875 6.789062 -2.285156 6.625 -1.859375 C 6.46875 -1.429688 6.242188 -1.066406 5.953125 -0.765625 C 5.648438 -0.472656 5.28125 -0.25 4.84375 -0.09375 C 4.414062 0.0625 3.9375 0.140625 3.40625 0.140625 Z M 3.40625 0.140625 "/></g></g></g><g fill="#8cc849" fill-opacity="1"><g transform="translate(71.194507, 106.550022)"><g><path d="M 4.65625 0.140625 C 3.914062 0.140625 3.1875 0.015625 2.46875 -0.234375 C 1.75 -0.492188 1.09375 -0.890625 0.5 -1.421875 L 1.78125 -2.953125 C 2.226562 -2.585938 2.6875 -2.296875 3.15625 -2.078125 C 3.625 -1.867188 4.140625 -1.765625 4.703125 -1.765625 C 5.148438 -1.765625 5.5 -1.84375 5.75 -2 C 6 -2.164062 6.125 -2.394531 6.125 -2.6875 L 6.125 -2.71875 C 6.125 -2.851562 6.097656 -2.972656 6.046875 -3.078125 C 5.992188 -3.191406 5.894531 -3.296875 5.75 -3.390625 C 5.601562 -3.484375 5.398438 -3.578125 5.140625 -3.671875 C 4.890625 -3.765625 4.554688 -3.863281 4.140625 -3.96875 C 3.648438 -4.082031 3.203125 -4.210938 2.796875 -4.359375 C 2.398438 -4.515625 2.0625 -4.703125 1.78125 -4.921875 C 1.5 -5.140625 1.28125 -5.410156 1.125 -5.734375 C 0.96875 -6.066406 0.890625 -6.472656 0.890625 -6.953125 L 0.890625 -6.984375 C 0.890625 -7.429688 0.972656 -7.832031 1.140625 -8.1875 C 1.316406 -8.550781 1.554688 -8.863281 1.859375 -9.125 C 2.160156 -9.382812 2.519531 -9.582031 2.9375 -9.71875 C 3.351562 -9.863281 3.816406 -9.9375 4.328125 -9.9375 C 5.046875 -9.9375 5.703125 -9.828125 6.296875 -9.609375 C 6.898438 -9.398438 7.457031 -9.09375 7.96875 -8.6875 L 6.84375 -7.0625 C 6.40625 -7.363281 5.972656 -7.597656 5.546875 -7.765625 C 5.128906 -7.941406 4.710938 -8.03125 4.296875 -8.03125 C 3.878906 -8.03125 3.5625 -7.945312 3.34375 -7.78125 C 3.132812 -7.625 3.03125 -7.425781 3.03125 -7.1875 L 3.03125 -7.15625 C 3.03125 -7 3.0625 -6.859375 3.125 -6.734375 C 3.1875 -6.617188 3.296875 -6.515625 3.453125 -6.421875 C 3.617188 -6.328125 3.835938 -6.238281 4.109375 -6.15625 C 4.378906 -6.070312 4.726562 -5.972656 5.15625 -5.859375 C 5.644531 -5.734375 6.082031 -5.585938 6.46875 -5.421875 C 6.863281 -5.265625 7.191406 -5.070312 7.453125 -4.84375 C 7.722656 -4.613281 7.925781 -4.34375 8.0625 -4.03125 C 8.195312 -3.71875 8.265625 -3.347656 8.265625 -2.921875 L 8.265625 -2.890625 C 8.265625 -2.410156 8.175781 -1.976562 8 -1.59375 C 7.820312 -1.21875 7.570312 -0.898438 7.25 -0.640625 C 6.9375 -0.390625 6.554688 -0.195312 6.109375 -0.0625 C 5.671875 0.0703125 5.1875 0.140625 4.65625 0.140625 Z M 4.65625 0.140625 "/></g></g></g></svg>