<svg xmlns="http://www.w3.org/2000/svg" xmlns:xlink="http://www.w3.org/1999/xlink" width="128" zoomAndPan="magnify" viewBox="0 0 96 119.999999" height="160" preserveAspectRatio="xMidYMid meet" version="1.0"><defs><g/><clipPath id="3546eda4a2"><path d="M 9.601562 11 L 86.101562 11 L 86.101562 80 L 9.601562 80 Z M 9.601562 11 " clip-rule="nonzero"/></clipPath></defs><rect x="-9.6" width="115.2" fill="#ffffff" y="-12" height="143.999998" fill-opacity="1"/><rect x="-9.6" width="115.2" fill="#ffffff" y="-12" height="143.999998" fill-opacity="1"/><rect x="-9.6" width="115.2" fill="#005766" y="-12" height="143.999998" fill-opacity="1"/><g clip-path="url(#3546eda4a2)"><path fill="#00d8ff" d="M 72.46875 33.195312 C 71.679688 32.921875 70.859375 32.664062 70.011719 32.417969 C 70.148438 31.847656 70.277344 31.285156 70.390625 30.730469 C 72.25 21.640625 71.035156 14.320312 66.878906 11.910156 C 62.890625 9.597656 56.371094 12.007812 49.789062 17.769531 C 49.15625 18.324219 48.519531 18.910156 47.886719 19.527344 C 47.460938 19.117188 47.042969 18.726562 46.621094 18.351562 C 39.71875 12.191406 32.800781 9.59375 28.648438 12.011719 C 24.667969 14.328125 23.488281 21.210938 25.164062 29.824219 C 25.324219 30.65625 25.515625 31.507812 25.726562 32.371094 C 24.75 32.648438 23.804688 32.949219 22.898438 33.265625 C 14.808594 36.101562 9.644531 40.546875 9.644531 45.15625 C 9.644531 49.914062 15.191406 54.695312 23.617188 57.589844 C 24.28125 57.816406 24.972656 58.035156 25.683594 58.238281 C 25.453125 59.171875 25.25 60.085938 25.082031 60.980469 C 23.484375 69.445312 24.730469 76.164062 28.703125 78.46875 C 32.804688 80.847656 39.691406 78.402344 46.394531 72.507812 C 46.925781 72.042969 47.457031 71.550781 47.992188 71.03125 C 48.683594 71.699219 49.371094 72.332031 50.054688 72.925781 C 56.550781 78.546875 62.964844 80.8125 66.933594 78.507812 C 71.03125 76.121094 72.363281 68.898438 70.632812 60.117188 C 70.503906 59.445312 70.347656 58.761719 70.175781 58.0625 C 70.660156 57.921875 71.136719 57.769531 71.597656 57.617188 C 80.359375 54.695312 86.058594 49.980469 86.058594 45.15625 C 86.058594 40.527344 80.722656 36.054688 72.46875 33.195312 Z M 70.570312 54.5 C 70.152344 54.640625 69.722656 54.773438 69.289062 54.902344 C 68.320312 51.828125 67.015625 48.554688 65.417969 45.171875 C 66.941406 41.871094 68.195312 38.636719 69.136719 35.582031 C 69.917969 35.808594 70.675781 36.046875 71.40625 36.300781 C 78.476562 38.75 82.792969 42.367188 82.792969 45.15625 C 82.792969 48.125 78.132812 51.980469 70.570312 54.5 Z M 67.429688 60.753906 C 68.199219 64.636719 68.304688 68.148438 67.796875 70.894531 C 67.34375 73.363281 66.429688 75.007812 65.296875 75.664062 C 62.886719 77.066406 57.738281 75.242188 52.1875 70.4375 C 51.546875 69.886719 50.90625 69.296875 50.265625 68.675781 C 52.417969 66.308594 54.570312 63.558594 56.671875 60.5 C 60.363281 60.171875 63.851562 59.632812 67.019531 58.894531 C 67.175781 59.527344 67.3125 60.148438 67.429688 60.753906 Z M 35.695312 75.421875 C 33.34375 76.257812 31.46875 76.28125 30.335938 75.625 C 27.925781 74.226562 26.921875 68.828125 28.289062 61.59375 C 28.449219 60.765625 28.632812 59.914062 28.847656 59.042969 C 31.976562 59.738281 35.441406 60.242188 39.144531 60.539062 C 41.261719 63.53125 43.476562 66.28125 45.703125 68.6875 C 45.21875 69.164062 44.730469 69.613281 44.25 70.035156 C 41.285156 72.644531 38.3125 74.492188 35.695312 75.421875 Z M 24.671875 54.484375 C 20.945312 53.203125 17.871094 51.539062 15.761719 49.722656 C 13.867188 48.089844 12.910156 46.46875 12.910156 45.15625 C 12.910156 42.359375 17.058594 38.789062 23.976562 36.363281 C 24.816406 36.070312 25.695312 35.792969 26.605469 35.53125 C 27.5625 38.660156 28.816406 41.929688 30.332031 45.234375 C 28.796875 48.589844 27.523438 51.910156 26.558594 55.078125 C 25.910156 54.890625 25.277344 54.691406 24.671875 54.484375 Z M 28.367188 29.195312 C 26.933594 21.816406 27.886719 16.25 30.285156 14.851562 C 32.84375 13.363281 38.496094 15.484375 44.453125 20.804688 C 44.832031 21.144531 45.214844 21.5 45.601562 21.867188 C 43.378906 24.265625 41.1875 26.996094 39.089844 29.96875 C 35.496094 30.304688 32.054688 30.839844 28.894531 31.5625 C 28.695312 30.757812 28.519531 29.96875 28.367188 29.195312 Z M 61.328125 37.378906 C 60.570312 36.066406 59.796875 34.78125 59.003906 33.535156 C 61.445312 33.847656 63.777344 34.257812 65.972656 34.761719 C 65.316406 36.882812 64.492188 39.101562 63.527344 41.378906 C 62.835938 40.054688 62.101562 38.71875 61.328125 37.378906 Z M 47.886719 24.214844 C 49.394531 25.855469 50.902344 27.6875 52.382812 29.671875 C 50.890625 29.601562 49.375 29.566406 47.851562 29.566406 C 46.339844 29.566406 44.839844 29.601562 43.351562 29.671875 C 44.835938 27.703125 46.359375 25.875 47.886719 24.214844 Z M 34.359375 37.402344 C 33.605469 38.71875 32.882812 40.042969 32.203125 41.375 C 31.25 39.105469 30.4375 36.878906 29.773438 34.726562 C 31.953125 34.234375 34.277344 33.835938 36.703125 33.53125 C 35.898438 34.789062 35.117188 36.082031 34.359375 37.402344 Z M 36.769531 57.015625 C 34.269531 56.734375 31.910156 56.355469 29.730469 55.875 C 30.402344 53.6875 31.234375 51.410156 32.207031 49.09375 C 32.890625 50.421875 33.613281 51.75 34.371094 53.070312 C 35.144531 54.414062 35.949219 55.730469 36.769531 57.015625 Z M 47.976562 66.328125 C 46.429688 64.648438 44.886719 62.792969 43.378906 60.796875 C 44.839844 60.851562 46.332031 60.882812 47.851562 60.882812 C 49.410156 60.882812 50.949219 60.847656 52.460938 60.78125 C 50.976562 62.8125 49.472656 64.671875 47.976562 66.328125 Z M 63.558594 48.976562 C 64.578125 51.316406 65.441406 53.582031 66.125 55.734375 C 63.910156 56.242188 61.515625 56.652344 58.996094 56.957031 C 59.789062 55.695312 60.570312 54.386719 61.34375 53.046875 C 62.121094 51.691406 62.859375 50.332031 63.558594 48.976562 Z M 58.511719 51.40625 C 57.320312 53.492188 56.089844 55.476562 54.847656 57.351562 C 52.582031 57.515625 50.238281 57.597656 47.851562 57.597656 C 45.472656 57.597656 43.15625 57.527344 40.929688 57.378906 C 39.636719 55.480469 38.382812 53.488281 37.195312 51.425781 C 36.011719 49.371094 34.925781 47.296875 33.9375 45.234375 C 34.921875 43.167969 36.011719 41.09375 37.1875 39.039062 C 38.367188 36.984375 39.609375 35 40.890625 33.109375 C 43.164062 32.9375 45.496094 32.847656 47.851562 32.847656 C 50.21875 32.847656 52.546875 32.9375 54.820312 33.113281 C 56.085938 34.988281 57.320312 36.964844 58.503906 39.023438 C 59.699219 41.105469 60.800781 43.167969 61.796875 45.1875 C 60.804688 47.246094 59.707031 49.328125 58.511719 51.40625 Z M 65.246094 14.753906 C 67.808594 16.238281 68.800781 22.21875 67.191406 30.066406 C 67.089844 30.566406 66.972656 31.078125 66.847656 31.59375 C 63.679688 30.859375 60.238281 30.3125 56.636719 29.972656 C 54.535156 26.964844 52.359375 24.230469 50.171875 21.867188 C 50.761719 21.296875 51.347656 20.757812 51.929688 20.246094 C 57.570312 15.308594 62.847656 13.359375 65.246094 14.753906 Z M 47.851562 38.292969 C 51.617188 38.292969 54.671875 41.363281 54.671875 45.15625 C 54.671875 48.941406 51.617188 52.015625 47.851562 52.015625 C 44.082031 52.015625 41.027344 48.941406 41.027344 45.15625 C 41.027344 41.363281 44.082031 38.292969 47.851562 38.292969 Z M 47.851562 38.292969 " fill-opacity="1" fill-rule="nonzero"/></g><g fill="#00d8ff" fill-opacity="1"><g transform="translate(13.565623, 103.799996)"><g><path d="M 2.375 -16.796875 L 9.59375 -16.796875 C 10.632812 -16.796875 11.554688 -16.644531 12.359375 -16.34375 C 13.171875 -16.050781 13.84375 -15.644531 14.375 -15.125 C 14.789062 -14.707031 15.109375 -14.21875 15.328125 -13.65625 C 15.554688 -13.09375 15.671875 -12.476562 15.671875 -11.8125 L 15.671875 -11.765625 C 15.671875 -11.054688 15.554688 -10.425781 15.328125 -9.875 C 15.109375 -9.320312 14.796875 -8.84375 14.390625 -8.4375 C 13.984375 -8.03125 13.5 -7.691406 12.9375 -7.421875 C 12.375 -7.160156 11.765625 -6.972656 11.109375 -6.859375 L 16.265625 0 L 13.9375 0 L 9.078125 -6.53125 L 4.265625 -6.53125 L 4.265625 0 L 2.375 0 Z M 9.4375 -8.234375 C 10.0625 -8.234375 10.632812 -8.3125 11.15625 -8.46875 C 11.6875 -8.632812 12.144531 -8.863281 12.53125 -9.15625 C 12.914062 -9.445312 13.210938 -9.804688 13.421875 -10.234375 C 13.640625 -10.660156 13.75 -11.144531 13.75 -11.6875 L 13.75 -11.734375 C 13.75 -12.773438 13.375 -13.585938 12.625 -14.171875 C 11.875 -14.753906 10.816406 -15.046875 9.453125 -15.046875 L 4.265625 -15.046875 L 4.265625 -8.234375 Z M 9.4375 -8.234375 "/></g></g></g><g fill="#00d8ff" fill-opacity="1"><g transform="translate(30.917658, 103.799996)"><g><path d="M 7.484375 0.28125 C 6.640625 0.28125 5.835938 0.128906 5.078125 -0.171875 C 4.328125 -0.484375 3.671875 -0.925781 3.109375 -1.5 C 2.554688 -2.070312 2.113281 -2.753906 1.78125 -3.546875 C 1.457031 -4.335938 1.296875 -5.210938 1.296875 -6.171875 L 1.296875 -6.21875 C 1.296875 -7.113281 1.441406 -7.953125 1.734375 -8.734375 C 2.035156 -9.515625 2.445312 -10.195312 2.96875 -10.78125 C 3.5 -11.363281 4.128906 -11.820312 4.859375 -12.15625 C 5.585938 -12.5 6.382812 -12.671875 7.25 -12.671875 C 8.15625 -12.671875 8.96875 -12.5 9.6875 -12.15625 C 10.414062 -11.8125 11.023438 -11.34375 11.515625 -10.75 C 12.015625 -10.15625 12.390625 -9.460938 12.640625 -8.671875 C 12.898438 -7.878906 13.03125 -7.03125 13.03125 -6.125 C 13.03125 -5.988281 13.03125 -5.878906 13.03125 -5.796875 C 13.03125 -5.722656 13.023438 -5.628906 13.015625 -5.515625 L 3.171875 -5.515625 C 3.234375 -4.847656 3.390625 -4.253906 3.640625 -3.734375 C 3.898438 -3.210938 4.222656 -2.769531 4.609375 -2.40625 C 5.003906 -2.050781 5.453125 -1.78125 5.953125 -1.59375 C 6.453125 -1.40625 6.976562 -1.3125 7.53125 -1.3125 C 8.394531 -1.3125 9.132812 -1.472656 9.75 -1.796875 C 10.375 -2.117188 10.941406 -2.546875 11.453125 -3.078125 L 12.59375 -2.046875 C 11.96875 -1.335938 11.253906 -0.769531 10.453125 -0.34375 C 9.660156 0.0703125 8.671875 0.28125 7.484375 0.28125 Z M 11.15625 -6.890625 C 11.113281 -7.453125 11 -7.988281 10.8125 -8.5 C 10.625 -9.007812 10.363281 -9.457031 10.03125 -9.84375 C 9.707031 -10.226562 9.3125 -10.535156 8.84375 -10.765625 C 8.375 -10.992188 7.828125 -11.109375 7.203125 -11.109375 C 6.660156 -11.109375 6.15625 -11 5.6875 -10.78125 C 5.21875 -10.570312 4.804688 -10.28125 4.453125 -9.90625 C 4.109375 -9.53125 3.820312 -9.082031 3.59375 -8.5625 C 3.375 -8.050781 3.234375 -7.492188 3.171875 -6.890625 Z M 11.15625 -6.890625 "/></g></g></g><g fill="#00d8ff" fill-opacity="1"><g transform="translate(45.12568, 103.799996)"><g><path d="M 5.765625 0.265625 C 5.179688 0.265625 4.613281 0.179688 4.0625 0.015625 C 3.507812 -0.140625 3.015625 -0.378906 2.578125 -0.703125 C 2.140625 -1.035156 1.785156 -1.441406 1.515625 -1.921875 C 1.253906 -2.398438 1.125 -2.957031 1.125 -3.59375 L 1.125 -3.640625 C 1.125 -4.296875 1.25 -4.875 1.5 -5.375 C 1.757812 -5.875 2.125 -6.289062 2.59375 -6.625 C 3.070312 -6.957031 3.632812 -7.210938 4.28125 -7.390625 C 4.925781 -7.566406 5.644531 -7.65625 6.4375 -7.65625 C 7.226562 -7.65625 7.921875 -7.609375 8.515625 -7.515625 C 9.109375 -7.421875 9.6875 -7.289062 10.25 -7.125 L 10.25 -7.5625 C 10.25 -8.675781 9.921875 -9.515625 9.265625 -10.078125 C 8.617188 -10.648438 7.710938 -10.9375 6.546875 -10.9375 C 5.816406 -10.9375 5.148438 -10.851562 4.546875 -10.6875 C 3.941406 -10.519531 3.351562 -10.300781 2.78125 -10.03125 L 2.234375 -11.546875 C 2.921875 -11.867188 3.613281 -12.117188 4.3125 -12.296875 C 5.019531 -12.484375 5.832031 -12.578125 6.75 -12.578125 C 8.507812 -12.578125 9.84375 -12.117188 10.75 -11.203125 C 11.601562 -10.359375 12.03125 -9.148438 12.03125 -7.578125 L 12.03125 0 L 10.25 0 L 10.25 -1.875 C 9.8125 -1.3125 9.226562 -0.8125 8.5 -0.375 C 7.78125 0.0507812 6.867188 0.265625 5.765625 0.265625 Z M 6.125 -1.203125 C 6.695312 -1.203125 7.234375 -1.285156 7.734375 -1.453125 C 8.242188 -1.617188 8.6875 -1.847656 9.0625 -2.140625 C 9.4375 -2.441406 9.726562 -2.796875 9.9375 -3.203125 C 10.15625 -3.609375 10.265625 -4.0625 10.265625 -4.5625 L 10.265625 -5.765625 C 9.804688 -5.890625 9.273438 -6.003906 8.671875 -6.109375 C 8.078125 -6.222656 7.394531 -6.28125 6.625 -6.28125 C 5.457031 -6.28125 4.5625 -6.046875 3.9375 -5.578125 C 3.3125 -5.117188 3 -4.5 3 -3.71875 L 3 -3.671875 C 3 -3.285156 3.082031 -2.9375 3.25 -2.625 C 3.414062 -2.3125 3.644531 -2.050781 3.9375 -1.84375 C 4.226562 -1.632812 4.5625 -1.472656 4.9375 -1.359375 C 5.3125 -1.253906 5.707031 -1.203125 6.125 -1.203125 Z M 6.125 -1.203125 "/></g></g></g><g fill="#00d8ff" fill-opacity="1"><g transform="translate(59.021713, 103.799996)"><g><path d="M 7.65625 0.28125 C 6.738281 0.28125 5.890625 0.109375 5.109375 -0.234375 C 4.335938 -0.578125 3.664062 -1.039062 3.09375 -1.625 C 2.53125 -2.207031 2.085938 -2.890625 1.765625 -3.671875 C 1.453125 -4.453125 1.296875 -5.273438 1.296875 -6.140625 L 1.296875 -6.1875 C 1.296875 -7.070312 1.453125 -7.90625 1.765625 -8.6875 C 2.085938 -9.46875 2.53125 -10.15625 3.09375 -10.75 C 3.664062 -11.34375 4.335938 -11.8125 5.109375 -12.15625 C 5.890625 -12.5 6.738281 -12.671875 7.65625 -12.671875 C 8.25 -12.671875 8.785156 -12.613281 9.265625 -12.5 C 9.742188 -12.394531 10.179688 -12.238281 10.578125 -12.03125 C 10.984375 -11.832031 11.351562 -11.597656 11.6875 -11.328125 C 12.019531 -11.054688 12.332031 -10.769531 12.625 -10.46875 L 11.40625 -9.171875 C 10.90625 -9.679688 10.363281 -10.117188 9.78125 -10.484375 C 9.195312 -10.859375 8.476562 -11.046875 7.625 -11.046875 C 7.007812 -11.046875 6.425781 -10.921875 5.875 -10.671875 C 5.332031 -10.421875 4.859375 -10.078125 4.453125 -9.640625 C 4.054688 -9.210938 3.742188 -8.707031 3.515625 -8.125 C 3.296875 -7.539062 3.1875 -6.910156 3.1875 -6.234375 L 3.1875 -6.1875 C 3.1875 -5.519531 3.300781 -4.894531 3.53125 -4.3125 C 3.769531 -3.726562 4.09375 -3.210938 4.5 -2.765625 C 4.90625 -2.328125 5.382812 -1.984375 5.9375 -1.734375 C 6.488281 -1.492188 7.09375 -1.375 7.75 -1.375 C 8.550781 -1.375 9.257812 -1.546875 9.875 -1.890625 C 10.488281 -2.242188 11.046875 -2.6875 11.546875 -3.21875 L 12.71875 -2.109375 C 12.09375 -1.410156 11.382812 -0.835938 10.59375 -0.390625 C 9.800781 0.0546875 8.820312 0.28125 7.65625 0.28125 Z M 7.65625 0.28125 "/></g></g></g><g fill="#00d8ff" fill-opacity="1"><g transform="translate(72.725738, 103.799996)"><g><path d="M 6.21875 0.21875 C 5.71875 0.21875 5.25 0.148438 4.8125 0.015625 C 4.382812 -0.109375 4.015625 -0.3125 3.703125 -0.59375 C 3.390625 -0.875 3.144531 -1.238281 2.96875 -1.6875 C 2.800781 -2.132812 2.71875 -2.664062 2.71875 -3.28125 L 2.71875 -10.78125 L 0.984375 -10.78125 L 0.984375 -12.40625 L 2.71875 -12.40625 L 2.71875 -16.15625 L 4.5625 -16.15625 L 4.5625 -12.40625 L 8.5 -12.40625 L 8.5 -10.78125 L 4.5625 -10.78125 L 4.5625 -3.53125 C 4.5625 -2.757812 4.753906 -2.222656 5.140625 -1.921875 C 5.523438 -1.617188 6.023438 -1.46875 6.640625 -1.46875 C 6.960938 -1.46875 7.265625 -1.5 7.546875 -1.5625 C 7.828125 -1.625 8.128906 -1.734375 8.453125 -1.890625 L 8.453125 -0.3125 C 8.128906 -0.132812 7.785156 -0.00390625 7.421875 0.078125 C 7.066406 0.171875 6.664062 0.21875 6.21875 0.21875 Z M 6.21875 0.21875 "/></g></g></g></svg>