<svg xmlns="http://www.w3.org/2000/svg" xmlns:xlink="http://www.w3.org/1999/xlink" width="128" zoomAndPan="magnify" viewBox="0 0 96 119.999999" height="160" preserveAspectRatio="xMidYMid meet" version="1.0"><defs><g/><clipPath id="6a01d5e0b2"><path d="M 9.601562 11 L 86.101562 11 L 86.101562 80 L 9.601562 80 Z M 9.601562 11 " clip-rule="nonzero"/></clipPath></defs><rect x="-9.6" width="115.2" fill="#ffffff" y="-12" height="143.999998" fill-opacity="1"/><rect x="-9.6" width="115.2" fill="#ffffff" y="-12" height="143.999998" fill-opacity="1"/><rect x="-9.6" width="115.2" fill="#005766" y="-12" height="143.999998" fill-opacity="1"/><g clip-path="url(#6a01d5e0b2)"><path fill="#00d8ff" d="M 72.46875 33.195312 C 71.679688 32.921875 70.859375 32.664062 70.011719 32.417969 C 70.148438 31.847656 70.277344 31.285156 70.390625 30.730469 C 72.25 21.640625 71.035156 14.320312 66.878906 11.910156 C 62.890625 9.597656 56.371094 12.007812 49.789062 17.769531 C 49.15625 18.324219 48.519531 18.910156 47.886719 19.527344 C 47.460938 19.117188 47.042969 18.726562 46.621094 18.351562 C 39.71875 12.191406 32.800781 9.59375 28.648438 12.011719 C 24.667969 14.328125 23.488281 21.210938 25.164062 29.824219 C 25.324219 30.65625 25.515625 31.507812 25.726562 32.371094 C 24.75 32.648438 23.804688 32.949219 22.898438 33.265625 C 14.808594 36.101562 9.644531 40.546875 9.644531 45.15625 C 9.644531 49.914062 15.191406 54.695312 23.617188 57.589844 C 24.28125 57.816406 24.972656 58.035156 25.683594 58.238281 C 25.453125 59.171875 25.25 60.085938 25.082031 60.980469 C 23.484375 69.445312 24.730469 76.164062 28.703125 78.46875 C 32.804688 80.847656 39.691406 78.402344 46.394531 72.507812 C 46.925781 72.042969 47.457031 71.550781 47.992188 71.03125 C 48.683594 71.699219 49.371094 72.332031 50.054688 72.925781 C 56.550781 78.546875 62.964844 80.8125 66.933594 78.507812 C 71.03125 76.121094 72.363281 68.898438 70.632812 60.117188 C 70.503906 59.445312 70.347656 58.761719 70.175781 58.0625 C 70.660156 57.921875 71.136719 57.769531 71.597656 57.617188 C 80.359375 54.695312 86.058594 49.980469 86.058594 45.15625 C 86.058594 40.527344 80.722656 36.054688 72.46875 33.195312 Z M 70.570312 54.5 C 70.152344 54.640625 69.722656 54.773438 69.289062 54.902344 C 68.320312 51.828125 67.015625 48.554688 65.417969 45.171875 C 66.941406 41.871094 68.195312 38.636719 69.136719 35.582031 C 69.917969 35.808594 70.675781 36.046875 71.40625 36.300781 C 78.476562 38.75 82.792969 42.367188 82.792969 45.15625 C 82.792969 48.125 78.132812 51.980469 70.570312 54.5 Z M 67.429688 60.753906 C 68.199219 64.636719 68.304688 68.148438 67.796875 70.894531 C 67.34375 73.363281 66.429688 75.007812 65.296875 75.664062 C 62.886719 77.066406 57.738281 75.242188 52.1875 70.4375 C 51.546875 69.886719 50.90625 69.296875 50.265625 68.675781 C 52.417969 66.308594 54.570312 63.558594 56.671875 60.5 C 60.363281 60.171875 63.851562 59.632812 67.019531 58.894531 C 67.175781 59.527344 67.3125 60.148438 67.429688 60.753906 Z M 35.695312 75.421875 C 33.34375 76.257812 31.46875 76.28125 30.335938 75.625 C 27.925781 74.226562 26.921875 68.828125 28.289062 61.59375 C 28.449219 60.765625 28.632812 59.914062 28.847656 59.042969 C 31.976562 59.738281 35.441406 60.242188 39.144531 60.539062 C 41.261719 63.53125 43.476562 66.28125 45.703125 68.6875 C 45.21875 69.164062 44.730469 69.613281 44.25 70.035156 C 41.285156 72.644531 38.3125 74.492188 35.695312 75.421875 Z M 24.671875 54.484375 C 20.945312 53.203125 17.871094 51.539062 15.761719 49.722656 C 13.867188 48.089844 12.910156 46.46875 12.910156 45.15625 C 12.910156 42.359375 17.058594 38.789062 23.976562 36.363281 C 24.816406 36.070312 25.695312 35.792969 26.605469 35.53125 C 27.5625 38.660156 28.816406 41.929688 30.332031 45.234375 C 28.796875 48.589844 27.523438 51.910156 26.558594 55.078125 C 25.910156 54.890625 25.277344 54.691406 24.671875 54.484375 Z M 28.367188 29.195312 C 26.933594 21.816406 27.886719 16.25 30.285156 14.851562 C 32.84375 13.363281 38.496094 15.484375 44.453125 20.804688 C 44.832031 21.144531 45.214844 21.5 45.601562 21.867188 C 43.378906 24.265625 41.1875 26.996094 39.089844 29.96875 C 35.496094 30.304688 32.054688 30.839844 28.894531 31.5625 C 28.695312 30.757812 28.519531 29.96875 28.367188 29.195312 Z M 61.328125 37.378906 C 60.570312 36.066406 59.796875 34.78125 59.003906 33.535156 C 61.445312 33.847656 63.777344 34.257812 65.972656 34.761719 C 65.316406 36.882812 64.492188 39.101562 63.527344 41.378906 C 62.835938 40.054688 62.101562 38.71875 61.328125 37.378906 Z M 47.886719 24.214844 C 49.394531 25.855469 50.902344 27.6875 52.382812 29.671875 C 50.890625 29.601562 49.375 29.566406 47.851562 29.566406 C 46.339844 29.566406 44.839844 29.601562 43.351562 29.671875 C 44.835938 27.703125 46.359375 25.875 47.886719 24.214844 Z M 34.359375 37.402344 C 33.605469 38.71875 32.882812 40.042969 32.203125 41.375 C 31.25 39.105469 30.4375 36.878906 29.773438 34.726562 C 31.953125 34.234375 34.277344 33.835938 36.703125 33.53125 C 35.898438 34.789062 35.117188 36.082031 34.359375 37.402344 Z M 36.769531 57.015625 C 34.269531 56.734375 31.910156 56.355469 29.730469 55.875 C 30.402344 53.6875 31.234375 51.410156 32.207031 49.09375 C 32.890625 50.421875 33.613281 51.75 34.371094 53.070312 C 35.144531 54.414062 35.949219 55.730469 36.769531 57.015625 Z M 47.976562 66.328125 C 46.429688 64.648438 44.886719 62.792969 43.378906 60.796875 C 44.839844 60.851562 46.332031 60.882812 47.851562 60.882812 C 49.410156 60.882812 50.949219 60.847656 52.460938 60.78125 C 50.976562 62.8125 49.472656 64.671875 47.976562 66.328125 Z M 63.558594 48.976562 C 64.578125 51.316406 65.441406 53.582031 66.125 55.734375 C 63.910156 56.242188 61.515625 56.652344 58.996094 56.957031 C 59.789062 55.695312 60.570312 54.386719 61.34375 53.046875 C 62.121094 51.691406 62.859375 50.332031 63.558594 48.976562 Z M 58.511719 51.40625 C 57.320312 53.492188 56.089844 55.476562 54.847656 57.351562 C 52.582031 57.515625 50.238281 57.597656 47.851562 57.597656 C 45.472656 57.597656 43.15625 57.527344 40.929688 57.378906 C 39.636719 55.480469 38.382812 53.488281 37.195312 51.425781 C 36.011719 49.371094 34.925781 47.296875 33.9375 45.234375 C 34.921875 43.167969 36.011719 41.09375 37.1875 39.039062 C 38.367188 36.984375 39.609375 35 40.890625 33.109375 C 43.164062 32.9375 45.496094 32.847656 47.851562 32.847656 C 50.21875 32.847656 52.546875 32.9375 54.820312 33.113281 C 56.085938 34.988281 57.320312 36.964844 58.503906 39.023438 C 59.699219 41.105469 60.800781 43.167969 61.796875 45.1875 C 60.804688 47.246094 59.707031 49.328125 58.511719 51.40625 Z M 65.246094 14.753906 C 67.808594 16.238281 68.800781 22.21875 67.191406 30.066406 C 67.089844 30.566406 66.972656 31.078125 66.847656 31.59375 C 63.679688 30.859375 60.238281 30.3125 56.636719 29.972656 C 54.535156 26.964844 52.359375 24.230469 50.171875 21.867188 C 50.761719 21.296875 51.347656 20.757812 51.929688 20.246094 C 57.570312 15.308594 62.847656 13.359375 65.246094 14.753906 Z M 47.851562 38.292969 C 51.617188 38.292969 54.671875 41.363281 54.671875 45.15625 C 54.671875 48.941406 51.617188 52.015625 47.851562 52.015625 C 44.082031 52.015625 41.027344 48.941406 41.027344 45.15625 C 41.027344 41.363281 44.082031 38.292969 47.851562 38.292969 Z M 47.851562 38.292969 " fill-opacity="1" fill-rule="nonzero"/></g><g fill="#00d8ff" fill-opacity="1"><g transform="translate(27.604688, 106.550022)"><g><path d="M 1.171875 -9.796875 L 5.65625 -9.796875 C 6.894531 -9.796875 7.847656 -9.46875 8.515625 -8.8125 C 9.078125 -8.25 9.359375 -7.5 9.359375 -6.5625 L 9.359375 -6.53125 C 9.359375 -5.738281 9.160156 -5.09375 8.765625 -4.59375 C 8.378906 -4.09375 7.875 -3.726562 7.25 -3.5 L 9.640625 0 L 7.125 0 L 5.03125 -3.140625 L 3.328125 -3.140625 L 3.328125 0 L 1.171875 0 Z M 5.515625 -5.046875 C 6.046875 -5.046875 6.453125 -5.171875 6.734375 -5.421875 C 7.023438 -5.671875 7.171875 -6.003906 7.171875 -6.421875 L 7.171875 -6.453125 C 7.171875 -6.921875 7.019531 -7.269531 6.71875 -7.5 C 6.414062 -7.738281 6 -7.859375 5.46875 -7.859375 L 3.328125 -7.859375 L 3.328125 -5.046875 Z M 5.515625 -5.046875 "/></g></g></g><g fill="#00d8ff" fill-opacity="1"><g transform="translate(37.721036, 106.550022)"><g><path d="M 4.515625 0.171875 C 3.953125 0.171875 3.425781 0.078125 2.9375 -0.109375 C 2.457031 -0.296875 2.039062 -0.5625 1.6875 -0.90625 C 1.34375 -1.25 1.070312 -1.65625 0.875 -2.125 C 0.6875 -2.601562 0.59375 -3.128906 0.59375 -3.703125 L 0.59375 -3.734375 C 0.59375 -4.265625 0.679688 -4.769531 0.859375 -5.25 C 1.046875 -5.726562 1.300781 -6.144531 1.625 -6.5 C 1.945312 -6.851562 2.332031 -7.128906 2.78125 -7.328125 C 3.238281 -7.535156 3.742188 -7.640625 4.296875 -7.640625 C 4.921875 -7.640625 5.460938 -7.523438 5.921875 -7.296875 C 6.378906 -7.078125 6.757812 -6.78125 7.0625 -6.40625 C 7.363281 -6.03125 7.585938 -5.597656 7.734375 -5.109375 C 7.878906 -4.617188 7.953125 -4.101562 7.953125 -3.5625 C 7.953125 -3.476562 7.945312 -3.390625 7.9375 -3.296875 C 7.9375 -3.203125 7.929688 -3.109375 7.921875 -3.015625 L 2.703125 -3.015625 C 2.804688 -2.523438 3.019531 -2.15625 3.34375 -1.90625 C 3.664062 -1.664062 4.0625 -1.546875 4.53125 -1.546875 C 4.882812 -1.546875 5.203125 -1.601562 5.484375 -1.71875 C 5.765625 -1.84375 6.054688 -2.039062 6.359375 -2.3125 L 7.578125 -1.234375 C 7.222656 -0.796875 6.789062 -0.453125 6.28125 -0.203125 C 5.78125 0.046875 5.191406 0.171875 4.515625 0.171875 Z M 5.875 -4.34375 C 5.8125 -4.8125 5.644531 -5.191406 5.375 -5.484375 C 5.101562 -5.785156 4.742188 -5.9375 4.296875 -5.9375 C 3.847656 -5.9375 3.484375 -5.789062 3.203125 -5.5 C 2.929688 -5.207031 2.753906 -4.820312 2.671875 -4.34375 Z M 5.875 -4.34375 "/></g></g></g><g fill="#00d8ff" fill-opacity="1"><g transform="translate(46.298245, 106.550022)"><g><path d="M 3.078125 0.140625 C 2.722656 0.140625 2.390625 0.09375 2.078125 0 C 1.765625 -0.101562 1.488281 -0.25 1.25 -0.4375 C 1.019531 -0.632812 0.835938 -0.875 0.703125 -1.15625 C 0.566406 -1.445312 0.5 -1.78125 0.5 -2.15625 L 0.5 -2.1875 C 0.5 -2.59375 0.570312 -2.945312 0.71875 -3.25 C 0.875 -3.550781 1.082031 -3.796875 1.34375 -3.984375 C 1.613281 -4.179688 1.929688 -4.328125 2.296875 -4.421875 C 2.671875 -4.523438 3.082031 -4.578125 3.53125 -4.578125 C 3.914062 -4.578125 4.25 -4.546875 4.53125 -4.484375 C 4.8125 -4.429688 5.085938 -4.359375 5.359375 -4.265625 L 5.359375 -4.390625 C 5.359375 -4.835938 5.222656 -5.175781 4.953125 -5.40625 C 4.679688 -5.644531 4.28125 -5.765625 3.75 -5.765625 C 3.34375 -5.765625 2.984375 -5.726562 2.671875 -5.65625 C 2.359375 -5.59375 2.03125 -5.492188 1.6875 -5.359375 L 1.140625 -6.984375 C 1.554688 -7.160156 1.988281 -7.304688 2.4375 -7.421875 C 2.882812 -7.535156 3.425781 -7.59375 4.0625 -7.59375 C 4.644531 -7.59375 5.144531 -7.519531 5.5625 -7.375 C 5.976562 -7.226562 6.320312 -7.019531 6.59375 -6.75 C 6.875 -6.46875 7.078125 -6.125 7.203125 -5.71875 C 7.335938 -5.3125 7.40625 -4.859375 7.40625 -4.359375 L 7.40625 0 L 5.34375 0 L 5.34375 -0.8125 C 5.082031 -0.519531 4.769531 -0.285156 4.40625 -0.109375 C 4.039062 0.0546875 3.597656 0.140625 3.078125 0.140625 Z M 3.71875 -1.328125 C 4.226562 -1.328125 4.632812 -1.445312 4.9375 -1.6875 C 5.238281 -1.9375 5.390625 -2.253906 5.390625 -2.640625 L 5.390625 -3.03125 C 5.203125 -3.113281 4.992188 -3.175781 4.765625 -3.21875 C 4.535156 -3.269531 4.289062 -3.296875 4.03125 -3.296875 C 3.570312 -3.296875 3.210938 -3.207031 2.953125 -3.03125 C 2.691406 -2.851562 2.5625 -2.597656 2.5625 -2.265625 L 2.5625 -2.234375 C 2.5625 -1.953125 2.664062 -1.726562 2.875 -1.5625 C 3.09375 -1.40625 3.375 -1.328125 3.71875 -1.328125 Z M 3.71875 -1.328125 "/></g></g></g><g fill="#00d8ff" fill-opacity="1"><g transform="translate(54.581627, 106.550022)"><g><path d="M 4.5 0.171875 C 3.9375 0.171875 3.414062 0.0664062 2.9375 -0.140625 C 2.457031 -0.347656 2.039062 -0.625 1.6875 -0.96875 C 1.34375 -1.320312 1.070312 -1.734375 0.875 -2.203125 C 0.6875 -2.671875 0.59375 -3.171875 0.59375 -3.703125 L 0.59375 -3.734375 C 0.59375 -4.265625 0.6875 -4.769531 0.875 -5.25 C 1.070312 -5.726562 1.34375 -6.144531 1.6875 -6.5 C 2.039062 -6.851562 2.457031 -7.128906 2.9375 -7.328125 C 3.414062 -7.535156 3.941406 -7.640625 4.515625 -7.640625 C 5.234375 -7.640625 5.820312 -7.523438 6.28125 -7.296875 C 6.75 -7.078125 7.160156 -6.773438 7.515625 -6.390625 L 6.21875 -4.984375 C 5.976562 -5.234375 5.726562 -5.429688 5.46875 -5.578125 C 5.207031 -5.734375 4.890625 -5.8125 4.515625 -5.8125 C 4.242188 -5.8125 3.992188 -5.753906 3.765625 -5.640625 C 3.546875 -5.535156 3.351562 -5.390625 3.1875 -5.203125 C 3.03125 -5.015625 2.90625 -4.796875 2.8125 -4.546875 C 2.726562 -4.304688 2.6875 -4.046875 2.6875 -3.765625 L 2.6875 -3.734375 C 2.6875 -3.441406 2.726562 -3.171875 2.8125 -2.921875 C 2.90625 -2.671875 3.035156 -2.453125 3.203125 -2.265625 C 3.367188 -2.078125 3.566406 -1.929688 3.796875 -1.828125 C 4.035156 -1.722656 4.300781 -1.671875 4.59375 -1.671875 C 4.945312 -1.671875 5.253906 -1.738281 5.515625 -1.875 C 5.785156 -2.019531 6.050781 -2.21875 6.3125 -2.46875 L 7.5625 -1.203125 C 7.195312 -0.804688 6.78125 -0.476562 6.3125 -0.21875 C 5.84375 0.0390625 5.238281 0.171875 4.5 0.171875 Z M 4.5 0.171875 "/></g></g></g><g fill="#00d8ff" fill-opacity="1"><g transform="translate(62.571171, 106.550022)"><g><path d="M 3.484375 0.125 C 3.160156 0.125 2.863281 0.0859375 2.59375 0.015625 C 2.332031 -0.046875 2.101562 -0.164062 1.90625 -0.34375 C 1.71875 -0.519531 1.566406 -0.75 1.453125 -1.03125 C 1.347656 -1.320312 1.296875 -1.6875 1.296875 -2.125 L 1.296875 -5.6875 L 0.40625 -5.6875 L 0.40625 -7.5 L 1.296875 -7.5 L 1.296875 -9.421875 L 3.4375 -9.421875 L 3.4375 -7.5 L 5.1875 -7.5 L 5.1875 -5.6875 L 3.4375 -5.6875 L 3.4375 -2.484375 C 3.4375 -1.992188 3.660156 -1.75 4.109375 -1.75 C 4.484375 -1.75 4.835938 -1.835938 5.171875 -2.015625 L 5.171875 -0.3125 C 4.941406 -0.175781 4.691406 -0.0703125 4.421875 0 C 4.148438 0.0820312 3.835938 0.125 3.484375 0.125 Z M 3.484375 0.125 "/></g></g></g></svg>