<svg xmlns="http://www.w3.org/2000/svg" xmlns:xlink="http://www.w3.org/1999/xlink" width="128" zoomAndPan="magnify" viewBox="0 0 96 119.999999" height="160" preserveAspectRatio="xMidYMid meet" version="1.0"><defs><g/><clipPath id="d42411e323"><path d="M 26 9.601562 L 68 9.601562 L 68 66 L 26 66 Z M 26 9.601562 " clip-rule="nonzero"/></clipPath></defs><rect x="-9.6" width="115.2" fill="#ffffff" y="-12" height="143.999998" fill-opacity="1"/><rect x="-9.6" width="115.2" fill="#ffffff" y="-12" height="143.999998" fill-opacity="1"/><rect x="-9.6" width="115.2" fill="#2b1f47" y="-12" height="143.999998" fill-opacity="1"/><g clip-path="url(#d42411e323)"><path fill="#6c4eb0" d="M 37.078125 19.644531 C 39.808594 16.191406 44.949219 14.484375 48.449219 14.398438 C 58.273438 14.207031 62.371094 26.597656 62.683594 31.523438 L 67.234375 32.90625 C 66.1875 17.804688 56.910156 9.882812 48.039062 9.882812 C 39.71875 9.882812 32.035156 16.003906 28.9375 24.984375 C 24.707031 36.957031 27.484375 48.464844 32.667969 57.675781 C 32.214844 58.273438 31.941406 59.332031 32.035156 60.34375 C 32.121094 63.105469 34.441406 65.410156 37.21875 65.410156 L 37.402344 65.410156 C 40.3125 65.316406 42.539062 62.878906 42.402344 59.976562 C 42.402344 57.210938 40.039062 54.914062 37.265625 54.914062 L 37.078125 54.914062 C 36.898438 54.914062 36.628906 54.914062 36.394531 55.003906 C 32.621094 48.558594 31.027344 41.648438 31.625 34.195312 C 31.984375 28.574219 33.808594 23.695312 37.078125 19.644531 Z M 37.078125 19.644531 " fill-opacity="1" fill-rule="nonzero"/></g><path fill="#6c4eb0" d="M 15.160156 71.90625 C 18.210938 76.511719 24.441406 79.453125 31.261719 79.453125 C 33.082031 79.453125 34.992188 79.320312 36.859375 78.859375 C 48.683594 76.554688 57.644531 69.375 62.785156 58.785156 L 62.828125 58.691406 C 65.464844 58.460938 67.511719 56.109375 67.378906 53.300781 C 67.238281 50.492188 64.964844 48.238281 62.195312 48.238281 L 62.007812 48.238281 C 59.144531 48.332031 56.914062 50.769531 57.003906 53.675781 C 57.097656 55.144531 57.691406 56.34375 58.503906 57.21875 C 55.324219 63.480469 50.546875 68.082031 43.316406 71.953125 C 38.449219 74.527344 33.308594 75.496094 28.304688 74.808594 C 24.121094 74.210938 20.851562 72.316406 18.847656 69.28125 C 15.847656 64.675781 15.574219 59.707031 18.074219 54.734375 C 19.898438 51.144531 22.625 48.519531 24.445312 47.226562 C 23.988281 46.03125 23.441406 44.007812 23.167969 42.492188 C 9.699219 52.25 11.070312 65.597656 15.160156 71.90625 Z M 15.160156 71.90625 " fill-opacity="1" fill-rule="nonzero"/><path fill="#6c4eb0" d="M 83.566406 69.875 C 86.292969 64.351562 86.066406 55.050781 79.105469 47.085938 L 79.0625 47.175781 C 72.015625 38.796875 61.644531 34.191406 49.8125 34.191406 L 48.265625 34.191406 C 47.496094 32.488281 45.726562 31.429688 43.722656 31.429688 L 43.585938 31.429688 C 40.722656 31.429688 38.492188 33.917969 38.585938 36.816406 C 38.675781 39.578125 40.996094 41.882812 43.769531 41.882812 L 43.996094 41.882812 C 46.042969 41.789062 47.816406 40.5 48.542969 38.660156 L 50.226562 38.660156 C 57.238281 38.660156 63.871094 40.730469 69.925781 44.78125 C 74.5625 47.867188 77.886719 51.917969 79.75 56.75 C 81.382812 60.710938 81.292969 64.578125 79.613281 67.804688 C 77.019531 72.867188 72.652344 75.539062 66.878906 75.539062 C 63.238281 75.539062 59.691406 74.386719 57.871094 73.5625 C 56.78125 74.476562 54.960938 75.996094 53.640625 76.921875 C 57.640625 78.757812 61.691406 79.820312 65.601562 79.820312 C 74.46875 79.820312 81.0625 74.757812 83.566406 69.875 Z M 83.566406 69.875 " fill-opacity="1" fill-rule="nonzero"/><g fill="#6c4eb0" fill-opacity="1"><g transform="translate(25.488281, 106.550022)"><g><path d="M 1.171875 -9.796875 L 5.65625 -9.796875 C 6.894531 -9.796875 7.847656 -9.46875 8.515625 -8.8125 C 9.078125 -8.25 9.359375 -7.5 9.359375 -6.5625 L 9.359375 -6.53125 C 9.359375 -5.738281 9.160156 -5.09375 8.765625 -4.59375 C 8.378906 -4.09375 7.875 -3.726562 7.25 -3.5 L 9.640625 0 L 7.125 0 L 5.03125 -3.140625 L 3.328125 -3.140625 L 3.328125 0 L 1.171875 0 Z M 5.515625 -5.046875 C 6.046875 -5.046875 6.453125 -5.171875 6.734375 -5.421875 C 7.023438 -5.671875 7.171875 -6.003906 7.171875 -6.421875 L 7.171875 -6.453125 C 7.171875 -6.921875 7.019531 -7.269531 6.71875 -7.5 C 6.414062 -7.738281 6 -7.859375 5.46875 -7.859375 L 3.328125 -7.859375 L 3.328125 -5.046875 Z M 5.515625 -5.046875 "/></g></g></g><g fill="#6c4eb0" fill-opacity="1"><g transform="translate(35.604628, 106.550022)"><g><path d="M 4.515625 0.171875 C 3.953125 0.171875 3.425781 0.078125 2.9375 -0.109375 C 2.457031 -0.296875 2.039062 -0.5625 1.6875 -0.90625 C 1.34375 -1.25 1.070312 -1.65625 0.875 -2.125 C 0.6875 -2.601562 0.59375 -3.128906 0.59375 -3.703125 L 0.59375 -3.734375 C 0.59375 -4.265625 0.679688 -4.769531 0.859375 -5.25 C 1.046875 -5.726562 1.300781 -6.144531 1.625 -6.5 C 1.945312 -6.851562 2.332031 -7.128906 2.78125 -7.328125 C 3.238281 -7.535156 3.742188 -7.640625 4.296875 -7.640625 C 4.921875 -7.640625 5.460938 -7.523438 5.921875 -7.296875 C 6.378906 -7.078125 6.757812 -6.78125 7.0625 -6.40625 C 7.363281 -6.03125 7.585938 -5.597656 7.734375 -5.109375 C 7.878906 -4.617188 7.953125 -4.101562 7.953125 -3.5625 C 7.953125 -3.476562 7.945312 -3.390625 7.9375 -3.296875 C 7.9375 -3.203125 7.929688 -3.109375 7.921875 -3.015625 L 2.703125 -3.015625 C 2.804688 -2.523438 3.019531 -2.15625 3.34375 -1.90625 C 3.664062 -1.664062 4.0625 -1.546875 4.53125 -1.546875 C 4.882812 -1.546875 5.203125 -1.601562 5.484375 -1.71875 C 5.765625 -1.84375 6.054688 -2.039062 6.359375 -2.3125 L 7.578125 -1.234375 C 7.222656 -0.796875 6.789062 -0.453125 6.28125 -0.203125 C 5.78125 0.046875 5.191406 0.171875 4.515625 0.171875 Z M 5.875 -4.34375 C 5.8125 -4.8125 5.644531 -5.191406 5.375 -5.484375 C 5.101562 -5.785156 4.742188 -5.9375 4.296875 -5.9375 C 3.847656 -5.9375 3.484375 -5.789062 3.203125 -5.5 C 2.929688 -5.207031 2.753906 -4.820312 2.671875 -4.34375 Z M 5.875 -4.34375 "/></g></g></g><g fill="#6c4eb0" fill-opacity="1"><g transform="translate(44.181837, 106.550022)"><g><path d="M 4.03125 0.140625 C 3.59375 0.140625 3.164062 0.0546875 2.75 -0.109375 C 2.34375 -0.273438 1.976562 -0.523438 1.65625 -0.859375 C 1.34375 -1.191406 1.085938 -1.597656 0.890625 -2.078125 C 0.703125 -2.554688 0.609375 -3.109375 0.609375 -3.734375 L 0.609375 -3.765625 C 0.609375 -4.390625 0.703125 -4.941406 0.890625 -5.421875 C 1.085938 -5.898438 1.34375 -6.304688 1.65625 -6.640625 C 1.96875 -6.972656 2.328125 -7.222656 2.734375 -7.390625 C 3.148438 -7.554688 3.582031 -7.640625 4.03125 -7.640625 C 4.601562 -7.640625 5.070312 -7.523438 5.4375 -7.296875 C 5.800781 -7.078125 6.113281 -6.820312 6.375 -6.53125 L 6.375 -10.21875 L 8.5 -10.21875 L 8.5 0 L 6.375 0 L 6.375 -1.078125 C 6.113281 -0.722656 5.796875 -0.429688 5.421875 -0.203125 C 5.054688 0.0234375 4.59375 0.140625 4.03125 0.140625 Z M 4.578125 -1.671875 C 4.828125 -1.671875 5.0625 -1.71875 5.28125 -1.8125 C 5.5 -1.90625 5.691406 -2.039062 5.859375 -2.21875 C 6.023438 -2.40625 6.15625 -2.628906 6.25 -2.890625 C 6.34375 -3.148438 6.390625 -3.429688 6.390625 -3.734375 L 6.390625 -3.765625 C 6.390625 -4.078125 6.34375 -4.359375 6.25 -4.609375 C 6.15625 -4.867188 6.023438 -5.085938 5.859375 -5.265625 C 5.691406 -5.453125 5.5 -5.59375 5.28125 -5.6875 C 5.0625 -5.789062 4.828125 -5.84375 4.578125 -5.84375 C 4.328125 -5.84375 4.09375 -5.789062 3.875 -5.6875 C 3.65625 -5.59375 3.457031 -5.453125 3.28125 -5.265625 C 3.113281 -5.085938 2.984375 -4.867188 2.890625 -4.609375 C 2.796875 -4.359375 2.75 -4.078125 2.75 -3.765625 L 2.75 -3.734375 C 2.75 -3.429688 2.796875 -3.148438 2.890625 -2.890625 C 2.984375 -2.628906 3.113281 -2.40625 3.28125 -2.21875 C 3.457031 -2.039062 3.65625 -1.90625 3.875 -1.8125 C 4.09375 -1.71875 4.328125 -1.671875 4.578125 -1.671875 Z M 4.578125 -1.671875 "/></g></g></g><g fill="#6c4eb0" fill-opacity="1"><g transform="translate(53.626566, 106.550022)"><g><path d="M 3.4375 0.140625 C 2.625 0.140625 1.992188 -0.101562 1.546875 -0.59375 C 1.109375 -1.09375 0.890625 -1.773438 0.890625 -2.640625 L 0.890625 -7.5 L 3.03125 -7.5 L 3.03125 -3.3125 C 3.03125 -2.8125 3.140625 -2.429688 3.359375 -2.171875 C 3.585938 -1.921875 3.90625 -1.796875 4.3125 -1.796875 C 4.71875 -1.796875 5.039062 -1.921875 5.28125 -2.171875 C 5.519531 -2.429688 5.640625 -2.8125 5.640625 -3.3125 L 5.640625 -7.5 L 7.765625 -7.5 L 7.765625 0 L 5.640625 0 L 5.640625 -1.0625 C 5.515625 -0.90625 5.378906 -0.753906 5.234375 -0.609375 C 5.097656 -0.460938 4.941406 -0.332031 4.765625 -0.21875 C 4.585938 -0.113281 4.390625 -0.03125 4.171875 0.03125 C 3.953125 0.101562 3.707031 0.140625 3.4375 0.140625 Z M 3.4375 0.140625 "/></g></g></g><g fill="#6c4eb0" fill-opacity="1"><g transform="translate(62.343702, 106.550022)"><g><path d="M 4.109375 -5.3125 L 5.515625 -7.5 L 7.734375 -7.5 L 5.203125 -3.84375 L 7.859375 0 L 5.578125 0 L 4.0625 -2.34375 L 2.546875 0 L 0.328125 0 L 2.953125 -3.8125 L 0.421875 -7.5 L 2.703125 -7.5 Z M 4.109375 -5.3125 "/></g></g></g></svg>