<svg xmlns="http://www.w3.org/2000/svg" xmlns:xlink="http://www.w3.org/1999/xlink" width="128" zoomAndPan="magnify" viewBox="0 0 96 119.999999" height="160" preserveAspectRatio="xMidYMid meet" version="1.0"><defs><g/><clipPath id="5ccc89d6f7"><path d="M 10.585938 27.894531 L 85.585938 27.894531 L 85.585938 72.894531 L 10.585938 72.894531 Z M 10.585938 27.894531 " clip-rule="nonzero"/></clipPath><clipPath id="6d9ff6f536"><path d="M 48.085938 27.894531 C 38.085938 27.894531 31.835938 32.894531 29.335938 42.894531 C 33.085938 37.894531 37.460938 36.019531 42.460938 37.269531 C 45.3125 37.980469 47.351562 40.050781 49.609375 42.34375 C 53.285156 46.074219 57.539062 50.394531 66.835938 50.394531 C 76.835938 50.394531 83.085938 45.394531 85.585938 35.394531 C 81.835938 40.394531 77.460938 42.269531 72.460938 41.019531 C 69.605469 40.304688 67.566406 38.234375 65.3125 35.945312 C 61.632812 32.210938 57.378906 27.894531 48.085938 27.894531 Z M 29.335938 50.394531 C 19.335938 50.394531 13.085938 55.394531 10.585938 65.394531 C 14.335938 60.394531 18.710938 58.519531 23.710938 59.769531 C 26.5625 60.480469 28.601562 62.550781 30.859375 64.84375 C 34.535156 68.574219 38.789062 72.894531 48.085938 72.894531 C 58.085938 72.894531 64.335938 67.894531 66.835938 57.894531 C 63.085938 62.894531 58.710938 64.769531 53.710938 63.519531 C 50.855469 62.804688 48.816406 60.734375 46.558594 58.445312 C 42.882812 54.710938 38.628906 50.394531 29.335938 50.394531 Z M 29.335938 50.394531 " clip-rule="nonzero"/></clipPath><linearGradient x1="-13.502167" gradientTransform="matrix(0.5, 0, 0, 0.5, 10.58428, 27.893274)" y1="23.417482" x2="138.017671" gradientUnits="userSpaceOnUse" y2="110.781537" id="63921ba000"><stop stop-opacity="1" stop-color="rgb(13.299561%, 59.599304%, 74.099731%)" offset="0"/><stop stop-opacity="1" stop-color="rgb(13.294983%, 59.611511%, 74.098206%)" offset="0.0625"/><stop stop-opacity="1" stop-color="rgb(13.25531%, 59.738159%, 74.081421%)" offset="0.0703125"/><stop stop-opacity="1" stop-color="rgb(13.183594%, 59.963989%, 74.052429%)" offset="0.078125"/><stop stop-opacity="1" stop-color="rgb(13.111877%, 60.189819%, 74.024963%)" offset="0.0859375"/><stop stop-opacity="1" stop-color="rgb(13.041687%, 60.414124%, 73.995972%)" offset="0.09375"/><stop stop-opacity="1" stop-color="rgb(12.969971%, 60.639954%, 73.968506%)" offset="0.101563"/><stop stop-opacity="1" stop-color="rgb(12.898254%, 60.865784%, 73.939514%)" offset="0.109375"/><stop stop-opacity="1" stop-color="rgb(12.828064%, 61.091614%, 73.912048%)" offset="0.117188"/><stop stop-opacity="1" stop-color="rgb(12.756348%, 61.317444%, 73.883057%)" offset="0.125"/><stop stop-opacity="1" stop-color="rgb(12.684631%, 61.543274%, 73.854065%)" offset="0.132813"/><stop stop-opacity="1" stop-color="rgb(12.612915%, 61.769104%, 73.826599%)" offset="0.140625"/><stop stop-opacity="1" stop-color="rgb(12.542725%, 61.994934%, 73.797607%)" offset="0.148438"/><stop stop-opacity="1" stop-color="rgb(12.471008%, 62.220764%, 73.770142%)" offset="0.15625"/><stop stop-opacity="1" stop-color="rgb(12.399292%, 62.446594%, 73.74115%)" offset="0.164063"/><stop stop-opacity="1" stop-color="rgb(12.329102%, 62.672424%, 73.713684%)" offset="0.171875"/><stop stop-opacity="1" stop-color="rgb(12.257385%, 62.896729%, 73.684692%)" offset="0.179688"/><stop stop-opacity="1" stop-color="rgb(12.185669%, 63.122559%, 73.657227%)" offset="0.1875"/><stop stop-opacity="1" stop-color="rgb(12.113953%, 63.348389%, 73.628235%)" offset="0.195313"/><stop stop-opacity="1" stop-color="rgb(12.043762%, 63.574219%, 73.599243%)" offset="0.203125"/><stop stop-opacity="1" stop-color="rgb(11.972046%, 63.800049%, 73.571777%)" offset="0.210938"/><stop stop-opacity="1" stop-color="rgb(11.90033%, 64.025879%, 73.542786%)" offset="0.21875"/><stop stop-opacity="1" stop-color="rgb(11.830139%, 64.251709%, 73.51532%)" offset="0.226563"/><stop stop-opacity="1" stop-color="rgb(11.758423%, 64.477539%, 73.486328%)" offset="0.234375"/><stop stop-opacity="1" stop-color="rgb(11.686707%, 64.703369%, 73.458862%)" offset="0.242188"/><stop stop-opacity="1" stop-color="rgb(11.61499%, 64.929199%, 73.429871%)" offset="0.25"/><stop stop-opacity="1" stop-color="rgb(11.5448%, 65.155029%, 73.400879%)" offset="0.257031"/><stop stop-opacity="1" stop-color="rgb(11.509705%, 65.267944%, 73.387146%)" offset="0.257813"/><stop stop-opacity="1" stop-color="rgb(11.473083%, 65.380859%, 73.373413%)" offset="0.265625"/><stop stop-opacity="1" stop-color="rgb(11.401367%, 65.605164%, 73.344421%)" offset="0.273438"/><stop stop-opacity="1" stop-color="rgb(11.331177%, 65.830994%, 73.316956%)" offset="0.28125"/><stop stop-opacity="1" stop-color="rgb(11.25946%, 66.056824%, 73.287964%)" offset="0.289063"/><stop stop-opacity="1" stop-color="rgb(11.187744%, 66.282654%, 73.260498%)" offset="0.296875"/><stop stop-opacity="1" stop-color="rgb(11.116028%, 66.508484%, 73.231506%)" offset="0.304688"/><stop stop-opacity="1" stop-color="rgb(11.045837%, 66.734314%, 73.204041%)" offset="0.3125"/><stop stop-opacity="1" stop-color="rgb(10.974121%, 66.960144%, 73.175049%)" offset="0.320313"/><stop stop-opacity="1" stop-color="rgb(10.902405%, 67.185974%, 73.146057%)" offset="0.328125"/><stop stop-opacity="1" stop-color="rgb(10.832214%, 67.411804%, 73.118591%)" offset="0.335938"/><stop stop-opacity="1" stop-color="rgb(10.760498%, 67.637634%, 73.0896%)" offset="0.34375"/><stop stop-opacity="1" stop-color="rgb(10.688782%, 67.863464%, 73.062134%)" offset="0.351563"/><stop stop-opacity="1" stop-color="rgb(10.618591%, 68.087769%, 73.033142%)" offset="0.359375"/><stop stop-opacity="1" stop-color="rgb(10.546875%, 68.313599%, 73.005676%)" offset="0.367188"/><stop stop-opacity="1" stop-color="rgb(10.475159%, 68.539429%, 72.976685%)" offset="0.375"/><stop stop-opacity="1" stop-color="rgb(10.403442%, 68.765259%, 72.947693%)" offset="0.382813"/><stop stop-opacity="1" stop-color="rgb(10.333252%, 68.991089%, 72.920227%)" offset="0.390625"/><stop stop-opacity="1" stop-color="rgb(10.261536%, 69.216919%, 72.891235%)" offset="0.398438"/><stop stop-opacity="1" stop-color="rgb(10.189819%, 69.442749%, 72.86377%)" offset="0.40625"/><stop stop-opacity="1" stop-color="rgb(10.119629%, 69.668579%, 72.834778%)" offset="0.414063"/><stop stop-opacity="1" stop-color="rgb(10.047913%, 69.894409%, 72.807312%)" offset="0.421875"/><stop stop-opacity="1" stop-color="rgb(9.976196%, 70.120239%, 72.77832%)" offset="0.429688"/><stop stop-opacity="1" stop-color="rgb(9.90448%, 70.346069%, 72.749329%)" offset="0.4375"/><stop stop-opacity="1" stop-color="rgb(9.83429%, 70.570374%, 72.721863%)" offset="0.445313"/><stop stop-opacity="1" stop-color="rgb(9.762573%, 70.796204%, 72.692871%)" offset="0.453125"/><stop stop-opacity="1" stop-color="rgb(9.690857%, 71.022034%, 72.665405%)" offset="0.460938"/><stop stop-opacity="1" stop-color="rgb(9.620667%, 71.247864%, 72.636414%)" offset="0.46875"/><stop stop-opacity="1" stop-color="rgb(9.54895%, 71.473694%, 72.608948%)" offset="0.476563"/><stop stop-opacity="1" stop-color="rgb(9.477234%, 71.699524%, 72.579956%)" offset="0.484375"/><stop stop-opacity="1" stop-color="rgb(9.405518%, 71.925354%, 72.55249%)" offset="0.492187"/><stop stop-opacity="1" stop-color="rgb(9.335327%, 72.151184%, 72.523499%)" offset="0.5"/><stop stop-opacity="1" stop-color="rgb(9.263611%, 72.377014%, 72.494507%)" offset="0.507812"/><stop stop-opacity="1" stop-color="rgb(9.191895%, 72.602844%, 72.467041%)" offset="0.515625"/><stop stop-opacity="1" stop-color="rgb(9.121704%, 72.828674%, 72.438049%)" offset="0.523438"/><stop stop-opacity="1" stop-color="rgb(9.049988%, 73.054504%, 72.410583%)" offset="0.53125"/><stop stop-opacity="1" stop-color="rgb(8.978271%, 73.278809%, 72.381592%)" offset="0.539062"/><stop stop-opacity="1" stop-color="rgb(8.908081%, 73.504639%, 72.354126%)" offset="0.546875"/><stop stop-opacity="1" stop-color="rgb(8.836365%, 73.730469%, 72.325134%)" offset="0.554688"/><stop stop-opacity="1" stop-color="rgb(8.764648%, 73.956299%, 72.296143%)" offset="0.5625"/><stop stop-opacity="1" stop-color="rgb(8.692932%, 74.182129%, 72.268677%)" offset="0.570312"/><stop stop-opacity="1" stop-color="rgb(8.622742%, 74.407959%, 72.239685%)" offset="0.578125"/><stop stop-opacity="1" stop-color="rgb(8.551025%, 74.633789%, 72.212219%)" offset="0.585938"/><stop stop-opacity="1" stop-color="rgb(8.479309%, 74.859619%, 72.183228%)" offset="0.59375"/><stop stop-opacity="1" stop-color="rgb(8.409119%, 75.085449%, 72.155762%)" offset="0.601562"/><stop stop-opacity="1" stop-color="rgb(8.337402%, 75.311279%, 72.12677%)" offset="0.609375"/><stop stop-opacity="1" stop-color="rgb(8.265686%, 75.537109%, 72.099304%)" offset="0.617188"/><stop stop-opacity="1" stop-color="rgb(8.19397%, 75.761414%, 72.070312%)" offset="0.625"/><stop stop-opacity="1" stop-color="rgb(8.123779%, 75.987244%, 72.041321%)" offset="0.632812"/><stop stop-opacity="1" stop-color="rgb(8.052063%, 76.213074%, 72.013855%)" offset="0.640625"/><stop stop-opacity="1" stop-color="rgb(7.980347%, 76.438904%, 71.984863%)" offset="0.648438"/><stop stop-opacity="1" stop-color="rgb(7.910156%, 76.664734%, 71.957397%)" offset="0.65625"/><stop stop-opacity="1" stop-color="rgb(7.83844%, 76.890564%, 71.928406%)" offset="0.664062"/><stop stop-opacity="1" stop-color="rgb(7.766724%, 77.116394%, 71.90094%)" offset="0.671875"/><stop stop-opacity="1" stop-color="rgb(7.695007%, 77.342224%, 71.871948%)" offset="0.679688"/><stop stop-opacity="1" stop-color="rgb(7.624817%, 77.568054%, 71.842957%)" offset="0.6875"/><stop stop-opacity="1" stop-color="rgb(7.553101%, 77.793884%, 71.815491%)" offset="0.695312"/><stop stop-opacity="1" stop-color="rgb(7.481384%, 78.019714%, 71.786499%)" offset="0.703125"/><stop stop-opacity="1" stop-color="rgb(7.411194%, 78.244019%, 71.759033%)" offset="0.710938"/><stop stop-opacity="1" stop-color="rgb(7.339478%, 78.469849%, 71.730042%)" offset="0.71875"/><stop stop-opacity="1" stop-color="rgb(7.267761%, 78.695679%, 71.702576%)" offset="0.726562"/><stop stop-opacity="1" stop-color="rgb(7.196045%, 78.921509%, 71.673584%)" offset="0.734375"/><stop stop-opacity="1" stop-color="rgb(7.125854%, 79.147339%, 71.646118%)" offset="0.742188"/><stop stop-opacity="1" stop-color="rgb(7.054138%, 79.373169%, 71.617126%)" offset="0.742969"/><stop stop-opacity="1" stop-color="rgb(7.019043%, 79.486084%, 71.603394%)" offset="0.75"/><stop stop-opacity="1" stop-color="rgb(6.982422%, 79.598999%, 71.588135%)" offset="0.757812"/><stop stop-opacity="1" stop-color="rgb(6.912231%, 79.824829%, 71.560669%)" offset="0.765625"/><stop stop-opacity="1" stop-color="rgb(6.840515%, 80.050659%, 71.531677%)" offset="0.773438"/><stop stop-opacity="1" stop-color="rgb(6.768799%, 80.276489%, 71.504211%)" offset="0.78125"/><stop stop-opacity="1" stop-color="rgb(6.698608%, 80.502319%, 71.47522%)" offset="0.789062"/><stop stop-opacity="1" stop-color="rgb(6.626892%, 80.726624%, 71.447754%)" offset="0.796875"/><stop stop-opacity="1" stop-color="rgb(6.555176%, 80.952454%, 71.418762%)" offset="0.804688"/><stop stop-opacity="1" stop-color="rgb(6.483459%, 81.178284%, 71.389771%)" offset="0.8125"/><stop stop-opacity="1" stop-color="rgb(6.413269%, 81.404114%, 71.362305%)" offset="0.820312"/><stop stop-opacity="1" stop-color="rgb(6.341553%, 81.629944%, 71.333313%)" offset="0.828125"/><stop stop-opacity="1" stop-color="rgb(6.269836%, 81.855774%, 71.305847%)" offset="0.835938"/><stop stop-opacity="1" stop-color="rgb(6.199646%, 82.081604%, 71.276855%)" offset="0.84375"/><stop stop-opacity="1" stop-color="rgb(6.12793%, 82.307434%, 71.24939%)" offset="0.851562"/><stop stop-opacity="1" stop-color="rgb(6.056213%, 82.533264%, 71.220398%)" offset="0.859375"/><stop stop-opacity="1" stop-color="rgb(5.984497%, 82.759094%, 71.191406%)" offset="0.867188"/><stop stop-opacity="1" stop-color="rgb(5.914307%, 82.984924%, 71.16394%)" offset="0.875"/><stop stop-opacity="1" stop-color="rgb(5.84259%, 83.210754%, 71.134949%)" offset="0.882812"/><stop stop-opacity="1" stop-color="rgb(5.770874%, 83.435059%, 71.107483%)" offset="0.890625"/><stop stop-opacity="1" stop-color="rgb(5.700684%, 83.660889%, 71.078491%)" offset="0.898438"/><stop stop-opacity="1" stop-color="rgb(5.628967%, 83.886719%, 71.051025%)" offset="0.90625"/><stop stop-opacity="1" stop-color="rgb(5.54657%, 84.14917%, 71.017456%)" offset="0.9375"/><stop stop-opacity="1" stop-color="rgb(5.499268%, 84.298706%, 70.999146%)" offset="1"/></linearGradient></defs><rect x="-9.6" width="115.2" fill="#ffffff" y="-12" height="143.999998" fill-opacity="1"/><rect x="-9.6" width="115.2" fill="#ffffff" y="-12" height="143.999998" fill-opacity="1"/><rect x="-9.6" width="115.2" fill="#0a4a4a" y="-12" height="143.999998" fill-opacity="1"/><g clip-path="url(#5ccc89d6f7)"><g clip-path="url(#6d9ff6f536)"><path fill="url(#63921ba000)" d="M 10.585938 27.894531 L 10.585938 72.894531 L 85.585938 72.894531 L 85.585938 27.894531 Z M 10.585938 27.894531 " fill-rule="nonzero"/></g></g><g fill="#16bcb8" fill-opacity="1"><g transform="translate(17.880468, 106.550022)"><g><path d="M 3.453125 -7.8125 L 0.46875 -7.8125 L 0.46875 -9.796875 L 8.59375 -9.796875 L 8.59375 -7.8125 L 5.609375 -7.8125 L 5.609375 0 L 3.453125 0 Z M 3.453125 -7.8125 "/></g></g></g><g fill="#16bcb8" fill-opacity="1"><g transform="translate(26.947404, 106.550022)"><g><path d="M 3.078125 0.140625 C 2.722656 0.140625 2.390625 0.09375 2.078125 0 C 1.765625 -0.101562 1.488281 -0.25 1.25 -0.4375 C 1.019531 -0.632812 0.835938 -0.875 0.703125 -1.15625 C 0.566406 -1.445312 0.5 -1.78125 0.5 -2.15625 L 0.5 -2.1875 C 0.5 -2.59375 0.570312 -2.945312 0.71875 -3.25 C 0.875 -3.550781 1.082031 -3.796875 1.34375 -3.984375 C 1.613281 -4.179688 1.929688 -4.328125 2.296875 -4.421875 C 2.671875 -4.523438 3.082031 -4.578125 3.53125 -4.578125 C 3.914062 -4.578125 4.25 -4.546875 4.53125 -4.484375 C 4.8125 -4.429688 5.085938 -4.359375 5.359375 -4.265625 L 5.359375 -4.390625 C 5.359375 -4.835938 5.222656 -5.175781 4.953125 -5.40625 C 4.679688 -5.644531 4.28125 -5.765625 3.75 -5.765625 C 3.34375 -5.765625 2.984375 -5.726562 2.671875 -5.65625 C 2.359375 -5.59375 2.03125 -5.492188 1.6875 -5.359375 L 1.140625 -6.984375 C 1.554688 -7.160156 1.988281 -7.304688 2.4375 -7.421875 C 2.882812 -7.535156 3.425781 -7.59375 4.0625 -7.59375 C 4.644531 -7.59375 5.144531 -7.519531 5.5625 -7.375 C 5.976562 -7.226562 6.320312 -7.019531 6.59375 -6.75 C 6.875 -6.46875 7.078125 -6.125 7.203125 -5.71875 C 7.335938 -5.3125 7.40625 -4.859375 7.40625 -4.359375 L 7.40625 0 L 5.34375 0 L 5.34375 -0.8125 C 5.082031 -0.519531 4.769531 -0.285156 4.40625 -0.109375 C 4.039062 0.0546875 3.597656 0.140625 3.078125 0.140625 Z M 3.71875 -1.328125 C 4.226562 -1.328125 4.632812 -1.445312 4.9375 -1.6875 C 5.238281 -1.9375 5.390625 -2.253906 5.390625 -2.640625 L 5.390625 -3.03125 C 5.203125 -3.113281 4.992188 -3.175781 4.765625 -3.21875 C 4.535156 -3.269531 4.289062 -3.296875 4.03125 -3.296875 C 3.570312 -3.296875 3.210938 -3.207031 2.953125 -3.03125 C 2.691406 -2.851562 2.5625 -2.597656 2.5625 -2.265625 L 2.5625 -2.234375 C 2.5625 -1.953125 2.664062 -1.726562 2.875 -1.5625 C 3.09375 -1.40625 3.375 -1.328125 3.71875 -1.328125 Z M 3.71875 -1.328125 "/></g></g></g><g fill="#16bcb8" fill-opacity="1"><g transform="translate(35.230786, 106.550022)"><g><path d="M 1 -10.21875 L 3.234375 -10.21875 L 3.234375 -8.328125 L 1 -8.328125 Z M 1.046875 -7.5 L 3.171875 -7.5 L 3.171875 0 L 1.046875 0 Z M 1.046875 -7.5 "/></g></g></g><g fill="#16bcb8" fill-opacity="1"><g transform="translate(39.456426, 106.550022)"><g><path d="M 1.046875 -10.21875 L 3.171875 -10.21875 L 3.171875 0 L 1.046875 0 Z M 1.046875 -10.21875 "/></g></g></g><g fill="#16bcb8" fill-opacity="1"><g transform="translate(43.682065, 106.550022)"><g><path d="M 0.34375 -7.5 L 2.484375 -7.5 L 3.703125 -2.953125 L 5.109375 -7.53125 L 6.9375 -7.53125 L 8.375 -2.9375 L 9.609375 -7.5 L 11.71875 -7.5 L 9.375 0.0625 L 7.46875 0.0625 L 6.015625 -4.546875 L 4.546875 0.0625 L 2.640625 0.0625 Z M 0.34375 -7.5 "/></g></g></g><g fill="#16bcb8" fill-opacity="1"><g transform="translate(55.72934, 106.550022)"><g><path d="M 1 -10.21875 L 3.234375 -10.21875 L 3.234375 -8.328125 L 1 -8.328125 Z M 1.046875 -7.5 L 3.171875 -7.5 L 3.171875 0 L 1.046875 0 Z M 1.046875 -7.5 "/></g></g></g><g fill="#16bcb8" fill-opacity="1"><g transform="translate(59.954979, 106.550022)"><g><path d="M 0.953125 -7.5 L 3.078125 -7.5 L 3.078125 -6.4375 C 3.203125 -6.59375 3.335938 -6.742188 3.484375 -6.890625 C 3.628906 -7.035156 3.789062 -7.164062 3.96875 -7.28125 C 4.144531 -7.394531 4.335938 -7.484375 4.546875 -7.546875 C 4.765625 -7.609375 5.007812 -7.640625 5.28125 -7.640625 C 6.09375 -7.640625 6.71875 -7.390625 7.15625 -6.890625 C 7.601562 -6.398438 7.828125 -5.722656 7.828125 -4.859375 L 7.828125 0 L 5.703125 0 L 5.703125 -4.1875 C 5.703125 -4.6875 5.585938 -5.066406 5.359375 -5.328125 C 5.140625 -5.585938 4.820312 -5.71875 4.40625 -5.71875 C 4 -5.71875 3.675781 -5.585938 3.4375 -5.328125 C 3.195312 -5.066406 3.078125 -4.6875 3.078125 -4.1875 L 3.078125 0 L 0.953125 0 Z M 0.953125 -7.5 "/></g></g></g><g fill="#16bcb8" fill-opacity="1"><g transform="translate(68.672115, 106.550022)"><g><path d="M 4.03125 0.140625 C 3.59375 0.140625 3.164062 0.0546875 2.75 -0.109375 C 2.34375 -0.273438 1.976562 -0.523438 1.65625 -0.859375 C 1.34375 -1.191406 1.085938 -1.597656 0.890625 -2.078125 C 0.703125 -2.554688 0.609375 -3.109375 0.609375 -3.734375 L 0.609375 -3.765625 C 0.609375 -4.390625 0.703125 -4.941406 0.890625 -5.421875 C 1.085938 -5.898438 1.34375 -6.304688 1.65625 -6.640625 C 1.96875 -6.972656 2.328125 -7.222656 2.734375 -7.390625 C 3.148438 -7.554688 3.582031 -7.640625 4.03125 -7.640625 C 4.601562 -7.640625 5.070312 -7.523438 5.4375 -7.296875 C 5.800781 -7.078125 6.113281 -6.820312 6.375 -6.53125 L 6.375 -10.21875 L 8.5 -10.21875 L 8.5 0 L 6.375 0 L 6.375 -1.078125 C 6.113281 -0.722656 5.796875 -0.429688 5.421875 -0.203125 C 5.054688 0.0234375 4.59375 0.140625 4.03125 0.140625 Z M 4.578125 -1.671875 C 4.828125 -1.671875 5.0625 -1.71875 5.28125 -1.8125 C 5.5 -1.90625 5.691406 -2.039062 5.859375 -2.21875 C 6.023438 -2.40625 6.15625 -2.628906 6.25 -2.890625 C 6.34375 -3.148438 6.390625 -3.429688 6.390625 -3.734375 L 6.390625 -3.765625 C 6.390625 -4.078125 6.34375 -4.359375 6.25 -4.609375 C 6.15625 -4.867188 6.023438 -5.085938 5.859375 -5.265625 C 5.691406 -5.453125 5.5 -5.59375 5.28125 -5.6875 C 5.0625 -5.789062 4.828125 -5.84375 4.578125 -5.84375 C 4.328125 -5.84375 4.09375 -5.789062 3.875 -5.6875 C 3.65625 -5.59375 3.457031 -5.453125 3.28125 -5.265625 C 3.113281 -5.085938 2.984375 -4.867188 2.890625 -4.609375 C 2.796875 -4.359375 2.75 -4.078125 2.75 -3.765625 L 2.75 -3.734375 C 2.75 -3.429688 2.796875 -3.148438 2.890625 -2.890625 C 2.984375 -2.628906 3.113281 -2.40625 3.28125 -2.21875 C 3.457031 -2.039062 3.65625 -1.90625 3.875 -1.8125 C 4.09375 -1.71875 4.328125 -1.671875 4.578125 -1.671875 Z M 4.578125 -1.671875 "/></g></g></g></svg>