<svg xmlns="http://www.w3.org/2000/svg" xmlns:xlink="http://www.w3.org/1999/xlink" width="128" zoomAndPan="magnify" viewBox="0 0 96 119.999999" height="160" preserveAspectRatio="xMidYMid meet" version="1.0"><defs><g/><clipPath id="15f0b4091a"><path d="M 9.601562 11.941406 L 86.101562 11.941406 L 86.101562 88.441406 L 9.601562 88.441406 Z M 9.601562 11.941406 " clip-rule="nonzero"/></clipPath></defs><rect x="-9.6" width="115.2" fill="#ffffff" y="-12" height="143.999998" fill-opacity="1"/><rect x="-9.6" width="115.2" fill="#ffffff" y="-12" height="143.999998" fill-opacity="1"/><rect x="-9.6" width="115.2" fill="#0d2d3c" y="-12" height="143.999998" fill-opacity="1"/><g clip-path="url(#15f0b4091a)"><path fill="#207196" d="M 22.808594 31.976562 C 28.4375 24.25 37.558594 19.226562 47.851562 19.226562 C 57.316406 19.226562 65.792969 23.476562 71.472656 30.171875 C 66.40625 28.449219 60.886719 33.242188 62.679688 38.898438 L 65.058594 46.402344 L 58.621094 62.3125 L 51.738281 45.191406 L 49.355469 39.265625 L 51.492188 39.265625 C 53.503906 39.265625 55.136719 37.632812 55.136719 35.621094 C 55.136719 33.609375 53.503906 31.976562 51.492188 31.976562 L 40.5625 31.976562 C 38.550781 31.976562 36.921875 33.609375 36.921875 35.621094 C 36.921875 37.632812 38.550781 39.265625 40.5625 39.265625 L 41.503906 39.265625 L 44.421875 46.519531 L 37.648438 62.640625 L 27.832031 39.265625 L 29.636719 39.265625 C 31.648438 39.265625 33.277344 37.632812 33.277344 35.621094 C 33.277344 33.609375 31.648438 31.976562 29.636719 31.976562 Z M 19.386719 37.976562 C 17.777344 41.726562 16.886719 45.855469 16.886719 50.191406 C 16.886719 67.292969 30.75 81.15625 47.851562 81.15625 C 64.949219 81.15625 78.8125 67.292969 78.8125 50.191406 C 78.8125 45.753906 77.878906 41.53125 76.195312 37.714844 C 76.121094 38.285156 75.972656 38.851562 75.75 39.40625 L 72.304688 47.914062 L 61.988281 73.414062 C 61.433594 74.792969 60.09375 75.695312 58.609375 75.691406 C 57.121094 75.691406 55.785156 74.789062 55.230469 73.410156 L 48.285156 56.132812 L 41.007812 73.460938 C 40.441406 74.8125 39.117188 75.691406 37.648438 75.691406 C 36.183594 75.691406 34.859375 74.8125 34.292969 73.460938 Z M 47.851562 11.941406 C 26.726562 11.941406 9.601562 29.066406 9.601562 50.191406 C 9.601562 71.316406 26.726562 88.441406 47.851562 88.441406 C 68.976562 88.441406 86.101562 71.316406 86.101562 50.191406 C 86.101562 29.066406 68.976562 11.941406 47.851562 11.941406 Z M 47.851562 11.941406 " fill-opacity="1" fill-rule="evenodd"/></g><g fill="#207196" fill-opacity="1"><g transform="translate(8.953125, 106.550022)"><g><path d="M 0.421875 -9.796875 L 2.734375 -9.796875 L 4.765625 -3.15625 L 6.953125 -9.828125 L 8.8125 -9.828125 L 11 -3.15625 L 13.03125 -9.796875 L 15.28125 -9.796875 L 11.9375 0.0625 L 10.0625 0.0625 L 7.859375 -6.34375 L 5.640625 0.0625 L 3.765625 0.0625 Z M 0.421875 -9.796875 "/></g></g></g><g fill="#207196" fill-opacity="1"><g transform="translate(24.652358, 106.550022)"><g><path d="M 4.640625 0.171875 C 4.054688 0.171875 3.515625 0.0703125 3.015625 -0.125 C 2.523438 -0.332031 2.097656 -0.609375 1.734375 -0.953125 C 1.378906 -1.304688 1.097656 -1.71875 0.890625 -2.1875 C 0.691406 -2.65625 0.59375 -3.160156 0.59375 -3.703125 L 0.59375 -3.734375 C 0.59375 -4.273438 0.691406 -4.78125 0.890625 -5.25 C 1.097656 -5.726562 1.382812 -6.144531 1.75 -6.5 C 2.113281 -6.851562 2.539062 -7.128906 3.03125 -7.328125 C 3.53125 -7.535156 4.070312 -7.640625 4.65625 -7.640625 C 5.238281 -7.640625 5.773438 -7.539062 6.265625 -7.34375 C 6.765625 -7.144531 7.191406 -6.867188 7.546875 -6.515625 C 7.910156 -6.160156 8.191406 -5.75 8.390625 -5.28125 C 8.597656 -4.8125 8.703125 -4.304688 8.703125 -3.765625 L 8.703125 -3.734375 C 8.703125 -3.191406 8.597656 -2.6875 8.390625 -2.21875 C 8.191406 -1.75 7.910156 -1.335938 7.546875 -0.984375 C 7.179688 -0.628906 6.75 -0.347656 6.25 -0.140625 C 5.757812 0.0664062 5.222656 0.171875 4.640625 0.171875 Z M 4.65625 -1.671875 C 4.96875 -1.671875 5.242188 -1.722656 5.484375 -1.828125 C 5.722656 -1.929688 5.925781 -2.078125 6.09375 -2.265625 C 6.257812 -2.453125 6.382812 -2.671875 6.46875 -2.921875 C 6.5625 -3.171875 6.609375 -3.429688 6.609375 -3.703125 L 6.609375 -3.734375 C 6.609375 -4.015625 6.5625 -4.28125 6.46875 -4.53125 C 6.375 -4.78125 6.238281 -5 6.0625 -5.1875 C 5.882812 -5.375 5.671875 -5.523438 5.421875 -5.640625 C 5.179688 -5.753906 4.921875 -5.8125 4.640625 -5.8125 C 4.328125 -5.8125 4.050781 -5.753906 3.8125 -5.640625 C 3.570312 -5.535156 3.367188 -5.390625 3.203125 -5.203125 C 3.035156 -5.015625 2.90625 -4.796875 2.8125 -4.546875 C 2.726562 -4.304688 2.6875 -4.046875 2.6875 -3.765625 L 2.6875 -3.734375 C 2.6875 -3.453125 2.734375 -3.1875 2.828125 -2.9375 C 2.921875 -2.695312 3.054688 -2.476562 3.234375 -2.28125 C 3.410156 -2.09375 3.617188 -1.941406 3.859375 -1.828125 C 4.097656 -1.722656 4.363281 -1.671875 4.65625 -1.671875 Z M 4.65625 -1.671875 "/></g></g></g><g fill="#207196" fill-opacity="1"><g transform="translate(33.943175, 106.550022)"><g><path d="M 0.953125 -7.5 L 3.078125 -7.5 L 3.078125 -5.984375 C 3.296875 -6.503906 3.585938 -6.914062 3.953125 -7.21875 C 4.328125 -7.53125 4.832031 -7.671875 5.46875 -7.640625 L 5.46875 -5.421875 L 5.359375 -5.421875 C 4.648438 -5.421875 4.09375 -5.203125 3.6875 -4.765625 C 3.28125 -4.335938 3.078125 -3.671875 3.078125 -2.765625 L 3.078125 0 L 0.953125 0 Z M 0.953125 -7.5 "/></g></g></g><g fill="#207196" fill-opacity="1"><g transform="translate(39.791907, 106.550022)"><g><path d="M 4.03125 0.140625 C 3.59375 0.140625 3.164062 0.0546875 2.75 -0.109375 C 2.34375 -0.273438 1.976562 -0.523438 1.65625 -0.859375 C 1.34375 -1.191406 1.085938 -1.597656 0.890625 -2.078125 C 0.703125 -2.554688 0.609375 -3.109375 0.609375 -3.734375 L 0.609375 -3.765625 C 0.609375 -4.390625 0.703125 -4.941406 0.890625 -5.421875 C 1.085938 -5.898438 1.34375 -6.304688 1.65625 -6.640625 C 1.96875 -6.972656 2.328125 -7.222656 2.734375 -7.390625 C 3.148438 -7.554688 3.582031 -7.640625 4.03125 -7.640625 C 4.601562 -7.640625 5.070312 -7.523438 5.4375 -7.296875 C 5.800781 -7.078125 6.113281 -6.820312 6.375 -6.53125 L 6.375 -10.21875 L 8.5 -10.21875 L 8.5 0 L 6.375 0 L 6.375 -1.078125 C 6.113281 -0.722656 5.796875 -0.429688 5.421875 -0.203125 C 5.054688 0.0234375 4.59375 0.140625 4.03125 0.140625 Z M 4.578125 -1.671875 C 4.828125 -1.671875 5.0625 -1.71875 5.28125 -1.8125 C 5.5 -1.90625 5.691406 -2.039062 5.859375 -2.21875 C 6.023438 -2.40625 6.15625 -2.628906 6.25 -2.890625 C 6.34375 -3.148438 6.390625 -3.429688 6.390625 -3.734375 L 6.390625 -3.765625 C 6.390625 -4.078125 6.34375 -4.359375 6.25 -4.609375 C 6.15625 -4.867188 6.023438 -5.085938 5.859375 -5.265625 C 5.691406 -5.453125 5.5 -5.59375 5.28125 -5.6875 C 5.0625 -5.789062 4.828125 -5.84375 4.578125 -5.84375 C 4.328125 -5.84375 4.09375 -5.789062 3.875 -5.6875 C 3.65625 -5.59375 3.457031 -5.453125 3.28125 -5.265625 C 3.113281 -5.085938 2.984375 -4.867188 2.890625 -4.609375 C 2.796875 -4.359375 2.75 -4.078125 2.75 -3.765625 L 2.75 -3.734375 C 2.75 -3.429688 2.796875 -3.148438 2.890625 -2.890625 C 2.984375 -2.628906 3.113281 -2.40625 3.28125 -2.21875 C 3.457031 -2.039062 3.65625 -1.90625 3.875 -1.8125 C 4.09375 -1.71875 4.328125 -1.671875 4.578125 -1.671875 Z M 4.578125 -1.671875 "/></g></g></g><g fill="#207196" fill-opacity="1"><g transform="translate(49.236635, 106.550022)"><g><path d="M 1.171875 -9.796875 L 5.1875 -9.796875 C 5.769531 -9.796875 6.289062 -9.710938 6.75 -9.546875 C 7.21875 -9.390625 7.609375 -9.160156 7.921875 -8.859375 C 8.242188 -8.554688 8.492188 -8.195312 8.671875 -7.78125 C 8.847656 -7.375 8.9375 -6.914062 8.9375 -6.40625 L 8.9375 -6.390625 C 8.9375 -5.816406 8.832031 -5.3125 8.625 -4.875 C 8.414062 -4.445312 8.128906 -4.085938 7.765625 -3.796875 C 7.410156 -3.515625 6.992188 -3.300781 6.515625 -3.15625 C 6.035156 -3.007812 5.519531 -2.9375 4.96875 -2.9375 L 3.328125 -2.9375 L 3.328125 0 L 1.171875 0 Z M 5.046875 -4.859375 C 5.585938 -4.859375 6.003906 -5 6.296875 -5.28125 C 6.597656 -5.570312 6.75 -5.925781 6.75 -6.34375 L 6.75 -6.375 C 6.75 -6.851562 6.59375 -7.21875 6.28125 -7.46875 C 5.96875 -7.726562 5.539062 -7.859375 5 -7.859375 L 3.328125 -7.859375 L 3.328125 -4.859375 Z M 5.046875 -4.859375 "/></g></g></g><g fill="#207196" fill-opacity="1"><g transform="translate(58.583413, 106.550022)"><g><path d="M 0.953125 -7.5 L 3.078125 -7.5 L 3.078125 -5.984375 C 3.296875 -6.503906 3.585938 -6.914062 3.953125 -7.21875 C 4.328125 -7.53125 4.832031 -7.671875 5.46875 -7.640625 L 5.46875 -5.421875 L 5.359375 -5.421875 C 4.648438 -5.421875 4.09375 -5.203125 3.6875 -4.765625 C 3.28125 -4.335938 3.078125 -3.671875 3.078125 -2.765625 L 3.078125 0 L 0.953125 0 Z M 0.953125 -7.5 "/></g></g></g><g fill="#207196" fill-opacity="1"><g transform="translate(64.432145, 106.550022)"><g><path d="M 4.515625 0.171875 C 3.953125 0.171875 3.425781 0.078125 2.9375 -0.109375 C 2.457031 -0.296875 2.039062 -0.5625 1.6875 -0.90625 C 1.34375 -1.25 1.070312 -1.65625 0.875 -2.125 C 0.6875 -2.601562 0.59375 -3.128906 0.59375 -3.703125 L 0.59375 -3.734375 C 0.59375 -4.265625 0.679688 -4.769531 0.859375 -5.25 C 1.046875 -5.726562 1.300781 -6.144531 1.625 -6.5 C 1.945312 -6.851562 2.332031 -7.128906 2.78125 -7.328125 C 3.238281 -7.535156 3.742188 -7.640625 4.296875 -7.640625 C 4.921875 -7.640625 5.460938 -7.523438 5.921875 -7.296875 C 6.378906 -7.078125 6.757812 -6.78125 7.0625 -6.40625 C 7.363281 -6.03125 7.585938 -5.597656 7.734375 -5.109375 C 7.878906 -4.617188 7.953125 -4.101562 7.953125 -3.5625 C 7.953125 -3.476562 7.945312 -3.390625 7.9375 -3.296875 C 7.9375 -3.203125 7.929688 -3.109375 7.921875 -3.015625 L 2.703125 -3.015625 C 2.804688 -2.523438 3.019531 -2.15625 3.34375 -1.90625 C 3.664062 -1.664062 4.0625 -1.546875 4.53125 -1.546875 C 4.882812 -1.546875 5.203125 -1.601562 5.484375 -1.71875 C 5.765625 -1.84375 6.054688 -2.039062 6.359375 -2.3125 L 7.578125 -1.234375 C 7.222656 -0.796875 6.789062 -0.453125 6.28125 -0.203125 C 5.78125 0.046875 5.191406 0.171875 4.515625 0.171875 Z M 5.875 -4.34375 C 5.8125 -4.8125 5.644531 -5.191406 5.375 -5.484375 C 5.101562 -5.785156 4.742188 -5.9375 4.296875 -5.9375 C 3.847656 -5.9375 3.484375 -5.789062 3.203125 -5.5 C 2.929688 -5.207031 2.753906 -4.820312 2.671875 -4.34375 Z M 5.875 -4.34375 "/></g></g></g><g fill="#207196" fill-opacity="1"><g transform="translate(73.009354, 106.550022)"><g><path d="M 3.578125 0.140625 C 3.046875 0.140625 2.503906 0.0507812 1.953125 -0.125 C 1.398438 -0.3125 0.867188 -0.601562 0.359375 -1 L 1.28125 -2.390625 C 1.6875 -2.097656 2.09375 -1.875 2.5 -1.71875 C 2.90625 -1.570312 3.285156 -1.5 3.640625 -1.5 C 3.953125 -1.5 4.175781 -1.550781 4.3125 -1.65625 C 4.457031 -1.757812 4.53125 -1.894531 4.53125 -2.0625 L 4.53125 -2.09375 C 4.53125 -2.195312 4.488281 -2.289062 4.40625 -2.375 C 4.320312 -2.457031 4.207031 -2.53125 4.0625 -2.59375 C 3.914062 -2.65625 3.75 -2.710938 3.5625 -2.765625 C 3.382812 -2.828125 3.191406 -2.890625 2.984375 -2.953125 C 2.722656 -3.023438 2.457031 -3.113281 2.1875 -3.21875 C 1.925781 -3.332031 1.6875 -3.472656 1.46875 -3.640625 C 1.25 -3.816406 1.070312 -4.03125 0.9375 -4.28125 C 0.800781 -4.53125 0.734375 -4.835938 0.734375 -5.203125 L 0.734375 -5.234375 C 0.734375 -5.617188 0.804688 -5.957031 0.953125 -6.25 C 1.097656 -6.539062 1.296875 -6.789062 1.546875 -7 C 1.796875 -7.207031 2.082031 -7.359375 2.40625 -7.453125 C 2.738281 -7.554688 3.097656 -7.609375 3.484375 -7.609375 C 3.960938 -7.609375 4.445312 -7.53125 4.9375 -7.375 C 5.425781 -7.226562 5.875 -7.019531 6.28125 -6.75 L 5.46875 -5.28125 C 5.09375 -5.488281 4.726562 -5.65625 4.375 -5.78125 C 4.019531 -5.914062 3.707031 -5.984375 3.4375 -5.984375 C 3.175781 -5.984375 2.976562 -5.929688 2.84375 -5.828125 C 2.71875 -5.734375 2.65625 -5.609375 2.65625 -5.453125 L 2.65625 -5.4375 C 2.65625 -5.332031 2.695312 -5.238281 2.78125 -5.15625 C 2.863281 -5.082031 2.972656 -5.007812 3.109375 -4.9375 C 3.253906 -4.863281 3.414062 -4.796875 3.59375 -4.734375 C 3.78125 -4.671875 3.976562 -4.601562 4.1875 -4.53125 C 4.445312 -4.445312 4.710938 -4.347656 4.984375 -4.234375 C 5.253906 -4.117188 5.492188 -3.976562 5.703125 -3.8125 C 5.921875 -3.644531 6.097656 -3.4375 6.234375 -3.1875 C 6.378906 -2.945312 6.453125 -2.65625 6.453125 -2.3125 L 6.453125 -2.28125 C 6.453125 -1.863281 6.378906 -1.5 6.234375 -1.1875 C 6.085938 -0.882812 5.882812 -0.632812 5.625 -0.4375 C 5.363281 -0.25 5.054688 -0.101562 4.703125 0 C 4.359375 0.09375 3.984375 0.140625 3.578125 0.140625 Z M 3.578125 0.140625 "/></g></g></g><g fill="#207196" fill-opacity="1"><g transform="translate(80.033428, 106.550022)"><g><path d="M 3.578125 0.140625 C 3.046875 0.140625 2.503906 0.0507812 1.953125 -0.125 C 1.398438 -0.3125 0.867188 -0.601562 0.359375 -1 L 1.28125 -2.390625 C 1.6875 -2.097656 2.09375 -1.875 2.5 -1.71875 C 2.90625 -1.570312 3.285156 -1.5 3.640625 -1.5 C 3.953125 -1.5 4.175781 -1.550781 4.3125 -1.65625 C 4.457031 -1.757812 4.53125 -1.894531 4.53125 -2.0625 L 4.53125 -2.09375 C 4.53125 -2.195312 4.488281 -2.289062 4.40625 -2.375 C 4.320312 -2.457031 4.207031 -2.53125 4.0625 -2.59375 C 3.914062 -2.65625 3.75 -2.710938 3.5625 -2.765625 C 3.382812 -2.828125 3.191406 -2.890625 2.984375 -2.953125 C 2.722656 -3.023438 2.457031 -3.113281 2.1875 -3.21875 C 1.925781 -3.332031 1.6875 -3.472656 1.46875 -3.640625 C 1.25 -3.816406 1.070312 -4.03125 0.9375 -4.28125 C 0.800781 -4.53125 0.734375 -4.835938 0.734375 -5.203125 L 0.734375 -5.234375 C 0.734375 -5.617188 0.804688 -5.957031 0.953125 -6.25 C 1.097656 -6.539062 1.296875 -6.789062 1.546875 -7 C 1.796875 -7.207031 2.082031 -7.359375 2.40625 -7.453125 C 2.738281 -7.554688 3.097656 -7.609375 3.484375 -7.609375 C 3.960938 -7.609375 4.445312 -7.53125 4.9375 -7.375 C 5.425781 -7.226562 5.875 -7.019531 6.28125 -6.75 L 5.46875 -5.28125 C 5.09375 -5.488281 4.726562 -5.65625 4.375 -5.78125 C 4.019531 -5.914062 3.707031 -5.984375 3.4375 -5.984375 C 3.175781 -5.984375 2.976562 -5.929688 2.84375 -5.828125 C 2.71875 -5.734375 2.65625 -5.609375 2.65625 -5.453125 L 2.65625 -5.4375 C 2.65625 -5.332031 2.695312 -5.238281 2.78125 -5.15625 C 2.863281 -5.082031 2.972656 -5.007812 3.109375 -4.9375 C 3.253906 -4.863281 3.414062 -4.796875 3.59375 -4.734375 C 3.78125 -4.671875 3.976562 -4.601562 4.1875 -4.53125 C 4.445312 -4.445312 4.710938 -4.347656 4.984375 -4.234375 C 5.253906 -4.117188 5.492188 -3.976562 5.703125 -3.8125 C 5.921875 -3.644531 6.097656 -3.4375 6.234375 -3.1875 C 6.378906 -2.945312 6.453125 -2.65625 6.453125 -2.3125 L 6.453125 -2.28125 C 6.453125 -1.863281 6.378906 -1.5 6.234375 -1.1875 C 6.085938 -0.882812 5.882812 -0.632812 5.625 -0.4375 C 5.363281 -0.25 5.054688 -0.101562 4.703125 0 C 4.359375 0.09375 3.984375 0.140625 3.578125 0.140625 Z M 3.578125 0.140625 "/></g></g></g></svg>