<svg xmlns="http://www.w3.org/2000/svg" xmlns:xlink="http://www.w3.org/1999/xlink" width="128" zoomAndPan="magnify" viewBox="0 0 96 119.999999" height="160" preserveAspectRatio="xMidYMid meet" version="1.0"><defs><g/><clipPath id="b9be37bfa1"><path d="M 9.601562 11 L 86.101562 11 L 86.101562 86.101562 L 9.601562 86.101562 Z M 9.601562 11 " clip-rule="nonzero"/></clipPath></defs><rect x="-9.6" width="115.2" fill="#ffffff" y="-12" height="143.999998" fill-opacity="1"/><rect x="-9.6" width="115.2" fill="#ffffff" y="-12" height="143.999998" fill-opacity="1"/><rect x="-9.6" width="115.2" fill="#660f4c" y="-12" height="143.999998" fill-opacity="1"/><g clip-path="url(#b9be37bfa1)"><path fill="#ff26be" d="M 23.625 11.511719 L 72.074219 11.511719 C 79.804688 11.511719 86.101562 17.808594 86.101562 25.539062 L 86.101562 72.074219 C 86.101562 79.804688 79.804688 86.101562 72.074219 86.101562 L 23.625 86.101562 C 15.894531 86.101562 9.601562 79.804688 9.601562 72.074219 L 9.601562 25.539062 C 9.601562 17.808594 15.894531 11.511719 23.625 11.511719 " fill-opacity="1" fill-rule="nonzero"/></g><path fill="#2e001f" d="M 24.261719 14.699219 L 71.4375 14.699219 C 77.8125 14.699219 82.914062 19.800781 82.914062 26.175781 L 82.914062 71.4375 C 82.914062 77.8125 77.8125 82.914062 71.4375 82.914062 L 24.261719 82.914062 C 17.886719 82.914062 12.789062 77.8125 12.789062 71.4375 L 12.789062 26.175781 C 12.789062 19.800781 17.886719 14.699219 24.261719 14.699219 " fill-opacity="1" fill-rule="nonzero"/><path fill="#ffffff" d="M 40.273438 48.046875 L 49.242188 65.445312 C 49.402344 65.699219 49.308594 65.957031 49.050781 65.957031 L 43.445312 65.957031 C 43.148438 65.996094 42.867188 65.820312 42.769531 65.539062 C 40.71875 61.3125 38.628906 56.921875 36.492188 52.371094 L 36.457031 52.371094 C 34.535156 56.664062 32.453125 61.34375 30.371094 65.574219 C 30.265625 65.792969 30.039062 65.933594 29.792969 65.925781 L 24.476562 65.925781 C 24.15625 65.925781 24.125 65.667969 24.285156 65.476562 L 33.09375 48.589844 L 24.605469 31.769531 C 24.492188 31.664062 24.488281 31.484375 24.597656 31.375 C 24.65625 31.3125 24.742188 31.28125 24.828125 31.289062 L 30.339844 31.289062 C 30.660156 31.289062 30.820312 31.355469 30.917969 31.644531 C 32.933594 35.9375 34.953125 40.132812 36.875 44.425781 L 36.941406 44.425781 C 38.796875 40.199219 40.847656 35.9375 42.804688 31.738281 C 42.964844 31.484375 43.058594 31.324219 43.378906 31.324219 L 48.539062 31.324219 C 48.792969 31.324219 48.890625 31.515625 48.730469 31.804688 Z M 51.195312 53.238281 C 51.195312 45.773438 56.003906 39.941406 63.882812 39.941406 C 64.441406 39.929688 64.996094 39.953125 65.550781 40.003906 L 65.550781 31.675781 C 65.550781 31.5 65.695312 31.355469 65.871094 31.355469 L 71.027344 31.355469 C 71.285156 31.355469 71.347656 31.449219 71.347656 31.609375 L 71.347656 60.894531 C 71.332031 61.945312 71.382812 62.992188 71.507812 64.035156 C 71.507812 64.257812 71.507812 64.292969 71.316406 64.386719 C 68.753906 65.609375 65.953125 66.242188 63.117188 66.246094 C 56.164062 66.246094 51.195312 61.953125 51.195312 53.238281 Z M 65.550781 45.035156 C 64.960938 44.796875 64.328125 44.6875 63.691406 44.714844 C 59.6875 44.714844 56.964844 47.824219 56.964844 52.980469 C 56.964844 58.875 59.71875 61.246094 63.308594 61.246094 C 64.058594 61.269531 64.808594 61.148438 65.519531 60.894531 L 65.519531 45.035156 Z M 65.550781 45.035156 " fill-opacity="1" fill-rule="nonzero"/><path fill="#ff26be" d="M 40.273438 48.046875 L 49.242188 65.445312 C 49.402344 65.699219 49.308594 65.957031 49.050781 65.957031 L 43.445312 65.957031 C 43.148438 65.996094 42.867188 65.820312 42.769531 65.539062 C 40.71875 61.3125 38.628906 56.921875 36.492188 52.371094 L 36.457031 52.371094 C 34.535156 56.664062 32.453125 61.34375 30.371094 65.574219 C 30.265625 65.792969 30.039062 65.933594 29.792969 65.925781 L 24.476562 65.925781 C 24.15625 65.925781 24.125 65.667969 24.285156 65.476562 L 33.09375 48.589844 L 24.605469 31.769531 C 24.492188 31.664062 24.488281 31.484375 24.597656 31.375 C 24.65625 31.3125 24.742188 31.28125 24.828125 31.289062 L 30.339844 31.289062 C 30.660156 31.289062 30.820312 31.355469 30.917969 31.644531 C 32.933594 35.9375 34.953125 40.132812 36.875 44.425781 L 36.941406 44.425781 C 38.796875 40.199219 40.847656 35.9375 42.804688 31.738281 C 42.964844 31.484375 43.058594 31.324219 43.378906 31.324219 L 48.539062 31.324219 C 48.792969 31.324219 48.890625 31.515625 48.730469 31.804688 Z M 51.195312 53.238281 C 51.195312 45.773438 56.003906 39.941406 63.882812 39.941406 C 64.441406 39.929688 64.996094 39.953125 65.550781 40.003906 L 65.550781 31.675781 C 65.550781 31.5 65.695312 31.355469 65.871094 31.355469 L 71.027344 31.355469 C 71.285156 31.355469 71.347656 31.449219 71.347656 31.609375 L 71.347656 60.894531 C 71.332031 61.945312 71.382812 62.992188 71.507812 64.035156 C 71.507812 64.257812 71.507812 64.292969 71.316406 64.386719 C 68.753906 65.609375 65.953125 66.242188 63.117188 66.246094 C 56.164062 66.246094 51.195312 61.953125 51.195312 53.238281 Z M 65.550781 45.035156 C 64.960938 44.796875 64.328125 44.6875 63.691406 44.714844 C 59.6875 44.714844 56.964844 47.824219 56.964844 52.980469 C 56.964844 58.875 59.71875 61.246094 63.308594 61.246094 C 64.058594 61.269531 64.808594 61.148438 65.519531 60.894531 L 65.519531 45.035156 Z M 65.550781 45.035156 " fill-opacity="0.149" fill-rule="nonzero"/><g fill="#ff26be" fill-opacity="1"><g transform="translate(12.147654, 106.550022)"><g><path d="M 4.53125 -9.875 L 6.53125 -9.875 L 10.71875 0 L 8.46875 0 L 7.578125 -2.203125 L 3.4375 -2.203125 L 2.53125 0 L 0.34375 0 Z M 6.796875 -4.109375 L 5.5 -7.28125 L 4.203125 -4.109375 Z M 6.796875 -4.109375 "/></g></g></g><g fill="#ff26be" fill-opacity="1"><g transform="translate(23.201479, 106.550022)"><g><path d="M 4.03125 0.140625 C 3.59375 0.140625 3.164062 0.0546875 2.75 -0.109375 C 2.34375 -0.273438 1.976562 -0.523438 1.65625 -0.859375 C 1.34375 -1.191406 1.085938 -1.597656 0.890625 -2.078125 C 0.703125 -2.554688 0.609375 -3.109375 0.609375 -3.734375 L 0.609375 -3.765625 C 0.609375 -4.390625 0.703125 -4.941406 0.890625 -5.421875 C 1.085938 -5.898438 1.34375 -6.304688 1.65625 -6.640625 C 1.96875 -6.972656 2.328125 -7.222656 2.734375 -7.390625 C 3.148438 -7.554688 3.582031 -7.640625 4.03125 -7.640625 C 4.601562 -7.640625 5.070312 -7.523438 5.4375 -7.296875 C 5.800781 -7.078125 6.113281 -6.820312 6.375 -6.53125 L 6.375 -10.21875 L 8.5 -10.21875 L 8.5 0 L 6.375 0 L 6.375 -1.078125 C 6.113281 -0.722656 5.796875 -0.429688 5.421875 -0.203125 C 5.054688 0.0234375 4.59375 0.140625 4.03125 0.140625 Z M 4.578125 -1.671875 C 4.828125 -1.671875 5.0625 -1.71875 5.28125 -1.8125 C 5.5 -1.90625 5.691406 -2.039062 5.859375 -2.21875 C 6.023438 -2.40625 6.15625 -2.628906 6.25 -2.890625 C 6.34375 -3.148438 6.390625 -3.429688 6.390625 -3.734375 L 6.390625 -3.765625 C 6.390625 -4.078125 6.34375 -4.359375 6.25 -4.609375 C 6.15625 -4.867188 6.023438 -5.085938 5.859375 -5.265625 C 5.691406 -5.453125 5.5 -5.59375 5.28125 -5.6875 C 5.0625 -5.789062 4.828125 -5.84375 4.578125 -5.84375 C 4.328125 -5.84375 4.09375 -5.789062 3.875 -5.6875 C 3.65625 -5.59375 3.457031 -5.453125 3.28125 -5.265625 C 3.113281 -5.085938 2.984375 -4.867188 2.890625 -4.609375 C 2.796875 -4.359375 2.75 -4.078125 2.75 -3.765625 L 2.75 -3.734375 C 2.75 -3.429688 2.796875 -3.148438 2.890625 -2.890625 C 2.984375 -2.628906 3.113281 -2.40625 3.28125 -2.21875 C 3.457031 -2.039062 3.65625 -1.90625 3.875 -1.8125 C 4.09375 -1.71875 4.328125 -1.671875 4.578125 -1.671875 Z M 4.578125 -1.671875 "/></g></g></g><g fill="#ff26be" fill-opacity="1"><g transform="translate(32.646208, 106.550022)"><g><path d="M 4.640625 0.171875 C 4.054688 0.171875 3.515625 0.0703125 3.015625 -0.125 C 2.523438 -0.332031 2.097656 -0.609375 1.734375 -0.953125 C 1.378906 -1.304688 1.097656 -1.71875 0.890625 -2.1875 C 0.691406 -2.65625 0.59375 -3.160156 0.59375 -3.703125 L 0.59375 -3.734375 C 0.59375 -4.273438 0.691406 -4.78125 0.890625 -5.25 C 1.097656 -5.726562 1.382812 -6.144531 1.75 -6.5 C 2.113281 -6.851562 2.539062 -7.128906 3.03125 -7.328125 C 3.53125 -7.535156 4.070312 -7.640625 4.65625 -7.640625 C 5.238281 -7.640625 5.773438 -7.539062 6.265625 -7.34375 C 6.765625 -7.144531 7.191406 -6.867188 7.546875 -6.515625 C 7.910156 -6.160156 8.191406 -5.75 8.390625 -5.28125 C 8.597656 -4.8125 8.703125 -4.304688 8.703125 -3.765625 L 8.703125 -3.734375 C 8.703125 -3.191406 8.597656 -2.6875 8.390625 -2.21875 C 8.191406 -1.75 7.910156 -1.335938 7.546875 -0.984375 C 7.179688 -0.628906 6.75 -0.347656 6.25 -0.140625 C 5.757812 0.0664062 5.222656 0.171875 4.640625 0.171875 Z M 4.65625 -1.671875 C 4.96875 -1.671875 5.242188 -1.722656 5.484375 -1.828125 C 5.722656 -1.929688 5.925781 -2.078125 6.09375 -2.265625 C 6.257812 -2.453125 6.382812 -2.671875 6.46875 -2.921875 C 6.5625 -3.171875 6.609375 -3.429688 6.609375 -3.703125 L 6.609375 -3.734375 C 6.609375 -4.015625 6.5625 -4.28125 6.46875 -4.53125 C 6.375 -4.78125 6.238281 -5 6.0625 -5.1875 C 5.882812 -5.375 5.671875 -5.523438 5.421875 -5.640625 C 5.179688 -5.753906 4.921875 -5.8125 4.640625 -5.8125 C 4.328125 -5.8125 4.050781 -5.753906 3.8125 -5.640625 C 3.570312 -5.535156 3.367188 -5.390625 3.203125 -5.203125 C 3.035156 -5.015625 2.90625 -4.796875 2.8125 -4.546875 C 2.726562 -4.304688 2.6875 -4.046875 2.6875 -3.765625 L 2.6875 -3.734375 C 2.6875 -3.453125 2.734375 -3.1875 2.828125 -2.9375 C 2.921875 -2.695312 3.054688 -2.476562 3.234375 -2.28125 C 3.410156 -2.09375 3.617188 -1.941406 3.859375 -1.828125 C 4.097656 -1.722656 4.363281 -1.671875 4.65625 -1.671875 Z M 4.65625 -1.671875 "/></g></g></g><g fill="#ff26be" fill-opacity="1"><g transform="translate(41.937024, 106.550022)"><g><path d="M 5.421875 0.140625 C 4.847656 0.140625 4.375 0.03125 4 -0.1875 C 3.632812 -0.414062 3.328125 -0.679688 3.078125 -0.984375 L 3.078125 0 L 0.953125 0 L 0.953125 -10.21875 L 3.078125 -10.21875 L 3.078125 -6.421875 C 3.335938 -6.773438 3.648438 -7.066406 4.015625 -7.296875 C 4.390625 -7.523438 4.859375 -7.640625 5.421875 -7.640625 C 5.859375 -7.640625 6.28125 -7.554688 6.6875 -7.390625 C 7.101562 -7.222656 7.46875 -6.972656 7.78125 -6.640625 C 8.101562 -6.304688 8.359375 -5.898438 8.546875 -5.421875 C 8.734375 -4.941406 8.828125 -4.390625 8.828125 -3.765625 L 8.828125 -3.734375 C 8.828125 -3.109375 8.734375 -2.554688 8.546875 -2.078125 C 8.359375 -1.597656 8.109375 -1.191406 7.796875 -0.859375 C 7.484375 -0.523438 7.117188 -0.273438 6.703125 -0.109375 C 6.296875 0.0546875 5.867188 0.140625 5.421875 0.140625 Z M 4.875 -1.671875 C 5.125 -1.671875 5.359375 -1.71875 5.578125 -1.8125 C 5.796875 -1.90625 5.988281 -2.039062 6.15625 -2.21875 C 6.320312 -2.40625 6.453125 -2.625 6.546875 -2.875 C 6.648438 -3.132812 6.703125 -3.421875 6.703125 -3.734375 L 6.703125 -3.765625 C 6.703125 -4.078125 6.648438 -4.359375 6.546875 -4.609375 C 6.453125 -4.867188 6.320312 -5.085938 6.15625 -5.265625 C 5.988281 -5.453125 5.796875 -5.59375 5.578125 -5.6875 C 5.359375 -5.789062 5.125 -5.84375 4.875 -5.84375 C 4.625 -5.84375 4.390625 -5.789062 4.171875 -5.6875 C 3.953125 -5.59375 3.757812 -5.453125 3.59375 -5.265625 C 3.425781 -5.085938 3.289062 -4.867188 3.1875 -4.609375 C 3.09375 -4.359375 3.046875 -4.078125 3.046875 -3.765625 L 3.046875 -3.734375 C 3.046875 -3.429688 3.09375 -3.148438 3.1875 -2.890625 C 3.289062 -2.628906 3.425781 -2.40625 3.59375 -2.21875 C 3.757812 -2.039062 3.953125 -1.90625 4.171875 -1.8125 C 4.390625 -1.71875 4.625 -1.671875 4.875 -1.671875 Z M 4.875 -1.671875 "/></g></g></g><g fill="#ff26be" fill-opacity="1"><g transform="translate(51.381753, 106.550022)"><g><path d="M 4.515625 0.171875 C 3.953125 0.171875 3.425781 0.078125 2.9375 -0.109375 C 2.457031 -0.296875 2.039062 -0.5625 1.6875 -0.90625 C 1.34375 -1.25 1.070312 -1.65625 0.875 -2.125 C 0.6875 -2.601562 0.59375 -3.128906 0.59375 -3.703125 L 0.59375 -3.734375 C 0.59375 -4.265625 0.679688 -4.769531 0.859375 -5.25 C 1.046875 -5.726562 1.300781 -6.144531 1.625 -6.5 C 1.945312 -6.851562 2.332031 -7.128906 2.78125 -7.328125 C 3.238281 -7.535156 3.742188 -7.640625 4.296875 -7.640625 C 4.921875 -7.640625 5.460938 -7.523438 5.921875 -7.296875 C 6.378906 -7.078125 6.757812 -6.78125 7.0625 -6.40625 C 7.363281 -6.03125 7.585938 -5.597656 7.734375 -5.109375 C 7.878906 -4.617188 7.953125 -4.101562 7.953125 -3.5625 C 7.953125 -3.476562 7.945312 -3.390625 7.9375 -3.296875 C 7.9375 -3.203125 7.929688 -3.109375 7.921875 -3.015625 L 2.703125 -3.015625 C 2.804688 -2.523438 3.019531 -2.15625 3.34375 -1.90625 C 3.664062 -1.664062 4.0625 -1.546875 4.53125 -1.546875 C 4.882812 -1.546875 5.203125 -1.601562 5.484375 -1.71875 C 5.765625 -1.84375 6.054688 -2.039062 6.359375 -2.3125 L 7.578125 -1.234375 C 7.222656 -0.796875 6.789062 -0.453125 6.28125 -0.203125 C 5.78125 0.046875 5.191406 0.171875 4.515625 0.171875 Z M 5.875 -4.34375 C 5.8125 -4.8125 5.644531 -5.191406 5.375 -5.484375 C 5.101562 -5.785156 4.742188 -5.9375 4.296875 -5.9375 C 3.847656 -5.9375 3.484375 -5.789062 3.203125 -5.5 C 2.929688 -5.207031 2.753906 -4.820312 2.671875 -4.34375 Z M 5.875 -4.34375 "/></g></g></g><g fill="#ff26be" fill-opacity="1"><g transform="translate(59.958962, 106.550022)"><g/></g></g><g fill="#ff26be" fill-opacity="1"><g transform="translate(64.15662, 106.550022)"><g><path d="M 9.671875 -9.796875 L 6.390625 -5.015625 L 9.8125 0 L 7.296875 0 L 5.09375 -3.359375 L 2.890625 0 L 0.4375 0 L 3.84375 -4.984375 L 0.578125 -9.796875 L 3.09375 -9.796875 L 5.140625 -6.625 L 7.21875 -9.796875 Z M 9.671875 -9.796875 "/></g></g></g><g fill="#ff26be" fill-opacity="1"><g transform="translate(74.398898, 106.550022)"><g><path d="M 4.03125 0.140625 C 3.59375 0.140625 3.164062 0.0546875 2.75 -0.109375 C 2.34375 -0.273438 1.976562 -0.523438 1.65625 -0.859375 C 1.34375 -1.191406 1.085938 -1.597656 0.890625 -2.078125 C 0.703125 -2.554688 0.609375 -3.109375 0.609375 -3.734375 L 0.609375 -3.765625 C 0.609375 -4.390625 0.703125 -4.941406 0.890625 -5.421875 C 1.085938 -5.898438 1.34375 -6.304688 1.65625 -6.640625 C 1.96875 -6.972656 2.328125 -7.222656 2.734375 -7.390625 C 3.148438 -7.554688 3.582031 -7.640625 4.03125 -7.640625 C 4.601562 -7.640625 5.070312 -7.523438 5.4375 -7.296875 C 5.800781 -7.078125 6.113281 -6.820312 6.375 -6.53125 L 6.375 -10.21875 L 8.5 -10.21875 L 8.5 0 L 6.375 0 L 6.375 -1.078125 C 6.113281 -0.722656 5.796875 -0.429688 5.421875 -0.203125 C 5.054688 0.0234375 4.59375 0.140625 4.03125 0.140625 Z M 4.578125 -1.671875 C 4.828125 -1.671875 5.0625 -1.71875 5.28125 -1.8125 C 5.5 -1.90625 5.691406 -2.039062 5.859375 -2.21875 C 6.023438 -2.40625 6.15625 -2.628906 6.25 -2.890625 C 6.34375 -3.148438 6.390625 -3.429688 6.390625 -3.734375 L 6.390625 -3.765625 C 6.390625 -4.078125 6.34375 -4.359375 6.25 -4.609375 C 6.15625 -4.867188 6.023438 -5.085938 5.859375 -5.265625 C 5.691406 -5.453125 5.5 -5.59375 5.28125 -5.6875 C 5.0625 -5.789062 4.828125 -5.84375 4.578125 -5.84375 C 4.328125 -5.84375 4.09375 -5.789062 3.875 -5.6875 C 3.65625 -5.59375 3.457031 -5.453125 3.28125 -5.265625 C 3.113281 -5.085938 2.984375 -4.867188 2.890625 -4.609375 C 2.796875 -4.359375 2.75 -4.078125 2.75 -3.765625 L 2.75 -3.734375 C 2.75 -3.429688 2.796875 -3.148438 2.890625 -2.890625 C 2.984375 -2.628906 3.113281 -2.40625 3.28125 -2.21875 C 3.457031 -2.039062 3.65625 -1.90625 3.875 -1.8125 C 4.09375 -1.71875 4.328125 -1.671875 4.578125 -1.671875 Z M 4.578125 -1.671875 "/></g></g></g></svg>